<svg xmlns="http://www.w3.org/2000/svg" viewBox="0 0 500 500"><g id="freepik--background-complete--inject-71"><rect y="382.4" width="500" height="0.25" style="fill:#ebebeb"></rect><rect x="416.78" y="398.49" width="33.12" height="0.25" style="fill:#ebebeb"></rect><rect x="322.53" y="401.21" width="8.69" height="0.25" style="fill:#ebebeb"></rect><rect x="396.59" y="389.21" width="19.19" height="0.25" style="fill:#ebebeb"></rect><rect x="52.46" y="390.89" width="43.19" height="0.25" style="fill:#ebebeb"></rect><rect x="104.56" y="390.89" width="6.33" height="0.25" style="fill:#ebebeb"></rect><rect x="131.47" y="395.11" width="93.68" height="0.25" style="fill:#ebebeb"></rect><path d="M237,337.8H43.91a5.71,5.71,0,0,1-5.7-5.71V60.66A5.71,5.71,0,0,1,43.91,55H237a5.71,5.71,0,0,1,5.71,5.71V332.09A5.71,5.71,0,0,1,237,337.8ZM43.91,55.2a5.46,5.46,0,0,0-5.45,5.46V332.09a5.46,5.46,0,0,0,5.45,5.46H237a5.47,5.47,0,0,0,5.46-5.46V60.66A5.47,5.47,0,0,0,237,55.2Z" style="fill:#ebebeb"></path><path d="M453.31,337.8H260.21a5.72,5.72,0,0,1-5.71-5.71V60.66A5.72,5.72,0,0,1,260.21,55h193.1A5.71,5.71,0,0,1,459,60.66V332.09A5.71,5.71,0,0,1,453.31,337.8ZM260.21,55.2a5.47,5.47,0,0,0-5.46,5.46V332.09a5.47,5.47,0,0,0,5.46,5.46h193.1a5.47,5.47,0,0,0,5.46-5.46V60.66a5.47,5.47,0,0,0-5.46-5.46Z" style="fill:#ebebeb"></path><circle cx="210.2" cy="143.81" r="35.64" transform="translate(-20.32 35.53) rotate(-9.22)" style="fill:#f5f5f5"></circle><path d="M129.79,204a5.81,5.81,0,0,1,5.81-5.81,5.65,5.65,0,0,1,1.66.25,13.08,13.08,0,0,1-.13-1.78,12.3,12.3,0,0,1,12.3-12.29,12,12,0,0,1,2.26.21A10.74,10.74,0,0,1,171.61,190h.18a9.91,9.91,0,1,1,0,19.81H135.43A5.8,5.8,0,0,1,129.79,204Z" style="fill:#ebebeb"></path><path d="M215.08,169.56a5.79,5.79,0,0,1,7.47-5.56,11.66,11.66,0,0,1-.13-1.78,12.3,12.3,0,0,1,12.29-12.3,13,13,0,0,1,2.27.21,10.74,10.74,0,0,1,19.92,5.44h.18a9.9,9.9,0,1,1,0,19.8H220.72A5.79,5.79,0,0,1,215.08,169.56Z" style="fill:#ebebeb"></path><path d="M378.61,201.12a5.81,5.81,0,0,1,5.81-5.8,6,6,0,0,1,1.66.24,13,13,0,0,1-.13-1.78,12.3,12.3,0,0,1,12.3-12.29,12,12,0,0,1,2.26.21,10.74,10.74,0,0,1,19.92,5.43h.18a9.91,9.91,0,1,1,0,19.81H384.25A5.8,5.8,0,0,1,378.61,201.12Z" style="fill:#ebebeb"></path><path d="M88.3,167.2a3.51,3.51,0,0,1,3.51-3.51,3.74,3.74,0,0,1,1,.15,7.62,7.62,0,0,1-.08-1.08,7.43,7.43,0,0,1,7.43-7.43,7.76,7.76,0,0,1,1.37.13,6.49,6.49,0,0,1,12,3.29h.11a6,6,0,0,1,0,12h-22A3.51,3.51,0,0,1,88.3,167.2Z" style="fill:#ebebeb"></path><path d="M142.07,126.64a5.65,5.65,0,0,1,5.65-5.65,5.72,5.72,0,0,1,1.62.24,12.26,12.26,0,0,1-.12-1.73,12,12,0,0,1,12-12,12.36,12.36,0,0,1,2.21.21A10.45,10.45,0,0,1,182.78,113H183a9.64,9.64,0,1,1,0,19.27H147.56A5.64,5.64,0,0,1,142.07,126.64Z" style="fill:#ebebeb"></path><path d="M347.64,114.13a3.51,3.51,0,0,1,3.5-3.51,3.74,3.74,0,0,1,1,.15,7.62,7.62,0,0,1-.08-1.08,7.43,7.43,0,0,1,7.43-7.43,7.67,7.67,0,0,1,1.37.13,6.49,6.49,0,0,1,12,3.28H373a6,6,0,1,1,0,12h-22A3.51,3.51,0,0,1,347.64,114.13Z" style="fill:#ebebeb"></path><path d="M267.51,250.37a3.51,3.51,0,0,1,3.51-3.51,3.74,3.74,0,0,1,1,.15,7.62,7.62,0,0,1-.08-1.08,7.43,7.43,0,0,1,7.43-7.43,7.76,7.76,0,0,1,1.37.13,6.49,6.49,0,0,1,12,3.29h.11a6,6,0,0,1,0,12h-22A3.51,3.51,0,0,1,267.51,250.37Z" style="fill:#ebebeb"></path><polygon points="371.84 303.92 359.49 360.05 357.24 359 370.22 303.61 371.84 303.92" style="fill:#ebebeb"></polygon><path d="M393.14,313.66s-5.32-9.57-19.75-17.85a56.89,56.89,0,0,0-25,4.78s-2.69,4.46.36,6.22,5.59-1.78,5.59-1.78.57,5.4,4.55,5.55,5.16-3.77,5.16-3.77.39,4.95,5.15,6.2c4.13,1.09,6.7-2.43,6.7-2.43s.82,4.07,4.52,5.24a4.86,4.86,0,0,0,5-1.61s.85,4.41,4,4.41C392.15,318.62,393.14,313.66,393.14,313.66Z" style="fill:#e0e0e0"></path><path d="M121.66,376.57s4.5-69.92,27.61-161L144.58,212S124.32,244.94,104,372.43Z" style="fill:#e6e6e6"></path><path d="M155.23,194.37c10.86-6.05,25.45,5.88,26.33,22.95a31.68,31.68,0,0,0-4.6-2.61c-.5-4.31-1-8.14-1-8.14v7.68c-.89-.39-1.86-.78-2.92-1.16l-.42-4.16-.62,3.82a37.15,37.15,0,0,0-4.4-1.12l-1.07-12.13-1.86,11.71a32,32,0,0,0-4.62-.13l-.6-8.24-.61,8.32a29.59,29.59,0,0,0-4,.61l-.55-12.27s-.45,6.85-1,12.64A32.16,32.16,0,0,0,143,217.32v-1.51S145.3,199.89,155.23,194.37Z" style="fill:#e0e0e0"></path><path d="M141.28,187.9c-7.57-9.87-25.69-4.72-33.29,10.59a31.58,31.58,0,0,1,5.26-.57c2.17-3.76,4.15-7.06,4.15-7.06l-3.05,7c1,0,2,0,3.14.1l2-3.65-1,3.74a36.86,36.86,0,0,1,4.48.73l5.81-10.71-3,11.49a31.74,31.74,0,0,1,4.29,1.72L134,194l-2.74,7.88a30.13,30.13,0,0,1,3.38,2.13l5.38-11s-2.31,6.46-4.16,12a31.89,31.89,0,0,1,7.53,8.9l.6-1.39S148.19,196.91,141.28,187.9Z" style="fill:#e0e0e0"></path><path d="M131.75,209.33c8.84-7.47,14.54,0,14.54,0a18.07,18.07,0,0,0-8.67,4.72l-1-1.54V215c-.62.62-1.23,1.27-1.81,2l-1.58-4.45.39,5.89c-.85,1.06-1.64,2.15-2.37,3.25l-.53-4.33-.34,5.66c-.78,1.23-1.49,2.43-2.12,3.58l-.34-7.9-.85,10.12c-1.54,3-2.39,5.17-2.39,5.17S122.9,216.79,131.75,209.33Z" style="fill:#e0e0e0"></path><path d="M152.67,230l-1.77.86c-.16-1.33-.35-2.73-.57-4.15l1.31-2-1.52.8c-.09-.47-.17-.95-.27-1.42l1.79-4.05-2.34,1.5c-.93-3.84-2.23-7.25-4-9,0,0,18.51,7.43,6.32,27.08,0,0-.11-3.26-.56-7.56Z" style="fill:#e0e0e0"></path><path d="M135.25,211.93,132.63,206l.82,6-.93.1L129,207l.56,5.7a35.17,35.17,0,0,0-4,1.17,42,42,0,0,0-4.25,1.77l-1.55-5.14.49,5.66q-2,1-4,2.18l-.63-4.47-.28,5c-1.56,1-3,2-4.42,2.94l.69-8-1.79,8.76c-1.41,1-2.68,2-3.76,2.92l.25-5.54-1.91,6.92c-1.56,1.35-2.46,2.21-2.46,2.21,2.16-19.31,10.22-26.47,22.79-27.64s20.6,12.37,20.6,12.37S141.58,211.76,135.25,211.93Z" style="fill:#e0e0e0"></path><path d="M169.77,238.22l-1.55,5.7c-.45-1.48-1.06-3.37-1.85-5.49l1.63-8.38-2.34,6.53a65.57,65.57,0,0,0-4.42-9.07l2.19-5.73-3.18,4.14c-.52-.8-1.06-1.58-1.63-2.32L159.9,220l-1.78,3c-.39-.49-.79-1-1.2-1.42l1.57-4.84-2.24,4.12a21.81,21.81,0,0,0-3.77-3.16l2.41-5.88-3.5,5.23a13.8,13.8,0,0,0-6.12-1.75,20.8,20.8,0,0,1,11.24-7.3c7.07-1.57,21,12,12.57,39.11,0,0-.15-.64-.46-1.74Z" style="fill:#e0e0e0"></path><path d="M162.25,183.83l.93,3.58a9.2,9.2,0,0,0-1.31.09l-1.09-4.65.61,4.74a10.25,10.25,0,0,0-2.63,1l-1.52-6.29.67,6.78c-.33.21-.67.45-1,.7l-1.79-5.93,1.21,6.39a24.68,24.68,0,0,0-4.53,5.22v-8.52L150,198.41a69,69,0,0,0-4.71,10.92s1-30.86,8.68-33.8,11,12.18,11,12.18a4.68,4.68,0,0,0-1-.24Z" style="fill:#e0e0e0"></path><path d="M149.19,217.32l-1.09,5.79-1.81-5.79L143,221.5l-.89-4.18L138.38,220s1-7.41,3.43-10.65S150.74,209,149.19,217.32Z" style="fill:#e0e0e0"></path><path d="M346.44,355s7.17-99.92-32.46-199.87l4.78-4.27s43.37,74.62,47.3,205.51Z" style="fill:#e6e6e6"></path><path d="M303.26,128.92c-12.38-6.89-29,6.7-30,26.14a35.66,35.66,0,0,1,5.24-3c.56-4.91,1.14-9.27,1.14-9.27v8.75c1-.45,2.12-.9,3.32-1.32l.48-4.74.7,4.34a44.29,44.29,0,0,1,5-1.27l1.22-13.82,2.11,13.34a36.6,36.6,0,0,1,5.27-.14l.68-9.4.7,9.48a33.3,33.3,0,0,1,4.5.71l.62-14s.51,7.8,1.08,14.41a36.32,36.32,0,0,1,11.9,5.89v-1.72S314.57,135.21,303.26,128.92Z" style="fill:#e0e0e0"></path><path d="M319.15,121.55c8.62-11.25,29.27-5.38,37.92,12.06a36.06,36.06,0,0,0-6-.64c-2.47-4.29-4.73-8-4.73-8l3.48,8c-1.11,0-2.3,0-3.58.11l-2.32-4.16,1.08,4.27a42,42,0,0,0-5.11.83l-6.61-12.2,3.36,13.08a36.68,36.68,0,0,0-4.89,2l-4.35-8.35,3.12,9a33.35,33.35,0,0,0-3.85,2.43l-6.13-12.58s2.63,7.36,4.74,13.65a36.48,36.48,0,0,0-8.58,10.13l-.68-1.57S311.28,131.81,319.15,121.55Z" style="fill:#e0e0e0"></path><path d="M330,146c-10.07-8.51-16.56,0-16.56,0a20.54,20.54,0,0,1,9.87,5.38l1.15-1.75v2.84c.71.71,1.4,1.45,2.06,2.22l1.8-5.06-.44,6.7c1,1.21,1.86,2.46,2.7,3.7l.6-4.93.39,6.45c.89,1.4,1.7,2.77,2.42,4.07l.38-9,1,11.53c1.77,3.45,2.73,5.89,2.73,5.89S340.08,154.46,330,146Z" style="fill:#e0e0e0"></path><path d="M306.17,169.49l2,1c.17-1.52.39-3.11.65-4.73l-1.5-2.32,1.73.9.3-1.61-2-4.62L310,159.8c1.06-4.37,2.53-8.26,4.59-10.21,0,0-21.09,8.45-7.21,30.84,0,0,.13-3.71.65-8.61Z" style="fill:#e0e0e0"></path><path d="M326,148.92l3-6.74-.93,6.87,1.06.11,4.07-5.89-.64,6.49a40,40,0,0,1,4.61,1.33,52.09,52.09,0,0,1,4.84,2l1.77-5.85-.56,6.44c1.55.78,3.06,1.62,4.51,2.49l.72-5.1.31,5.73c1.79,1.1,3.48,2.24,5,3.35l-.79-9.08,2.05,10c1.61,1.18,3.05,2.32,4.28,3.33l-.28-6.32,2.17,7.89c1.78,1.53,2.81,2.52,2.81,2.52-2.47-22-11.64-30.15-26-31.5s-23.46,14.09-23.46,14.09S318.81,148.72,326,148.92Z" style="fill:#e0e0e0"></path><path d="M286.7,178.87l1.77,6.49c.5-1.68,1.2-3.84,2.1-6.25l-1.86-9.54,2.67,7.43a75.77,75.77,0,0,1,5-10.33l-2.49-6.53,3.62,4.71c.59-.9,1.21-1.79,1.85-2.64l-1.45-4.12,2,3.39c.44-.56.9-1.1,1.37-1.63l-1.8-5.5L302.1,159a24.53,24.53,0,0,1,4.3-3.6l-2.75-6.69,4,5.95a15.62,15.62,0,0,1,7-2,23.76,23.76,0,0,0-12.8-8.32c-8.06-1.79-24,13.68-14.33,44.56,0,0,.17-.74.52-2Z" style="fill:#e0e0e0"></path><path d="M295.26,116.91,294.2,121a9.1,9.1,0,0,1,1.49.11l1.25-5.31-.7,5.41a11.5,11.5,0,0,1,3,1.11l1.73-7.17-.76,7.74c.37.23.75.5,1.14.79l2-6.76L302,124.2a28,28,0,0,1,5.17,5.93v-9.69l2.06,13.08A78.94,78.94,0,0,1,314.61,146s-1.16-35.15-9.89-38.51-12.54,13.88-12.54,13.88a5,5,0,0,1,1.14-.27Z" style="fill:#e0e0e0"></path><path d="M310.14,155.06l1.24,6.59,2.07-6.59,3.8,4.77,1-4.77,4.2,3s-1.1-8.44-3.91-12.13S308.38,145.53,310.14,155.06Z" style="fill:#e0e0e0"></path><path d="M92.49,365.39c2-2.29,3.94-4.63,6.06-6.84a1.86,1.86,0,0,0,.31-.36,17.15,17.15,0,0,1,2.19-1.2l1-.4c.86-.31,1.7-.64,2.55-1,5.33-2.15,10.12-4.63,14.14-8.87,2.2-2.31,4-5,6.24-7.26.06.07.51-.16.72-.34l1.72-.22c.92,0,1.85,0,2.77.06,1.31.06,2.63.17,3.94.28,5.11,7.48,11.57,17.7,14.43,19.05,4.41,2.09,45.13,12.84,48.13,12.21s18.72.63,22.67.48,11.09-1.89,21.43-6.65,16-4.79,28.46-8.76,20.82-5.48,28.11.63,27.33-6.79,33.57-8.63,18.19-12.41,26.34-7.48,14.93,7.28,25.11,16.11,30.38,25.86,30.38,25.86h-344l4-6.91A28.28,28.28,0,0,0,92.49,365.39Z" style="fill:#f5f5f5"></path></g><g id="freepik--Shadow--inject-71"><ellipse id="freepik--path--inject-71" cx="250" cy="416.24" rx="193.89" ry="11.32" style="fill:#f5f5f5"></ellipse></g><g id="freepik--Umbrella--inject-71"><path d="M260.31,258.2s16.55,24.92,27.4,5.61c0,0,21.58,12.38,24.74-5.79,0,0,21,13.74,24.64-7.15,0,0,14.43,9.12,23-11.13,0,0,17.9,9.93,23.29-11.79,0,0,15.82,8.92,22.83-17.9,0,0-37.48-24.33-83.14-7.5S260.31,258.2,260.31,258.2Z" style="fill:#00D1FF"></path><path d="M260.31,258.2s16.55,24.92,27.4,5.61c0,0,21.58,12.38,24.74-5.79,0,0,21,13.74,24.64-7.15,0,0,14.43,9.12,23-11.13,0,0,17.9,9.93,23.29-11.79,0,0,15.82,8.92,22.83-17.9,0,0-37.48-24.33-83.14-7.5S260.31,258.2,260.31,258.2Z" style="opacity:0.30000000000000004;isolation:isolate"></path><rect x="356.03" y="196.82" width="4.58" height="221.76" transform="translate(-82.81 138.96) rotate(-19.72)" style="fill:#263238"></rect><path d="M306.15,196.66c3.65-2.68,7-4.95,10-6.83,3.43-.56,7.5-1.12,12-1.55,25.13-3.14,64.47,1,86.63,16.12A256.7,256.7,0,0,0,338,217.68q-10,3.33-19.62,7.48a256.75,256.75,0,0,0-66.11,41.24C258.73,240.37,285.33,211.05,306.15,196.66Z" style="fill:#00D1FF"></path><path d="M324.88,189.39c-3.29.07-6.23.24-8.74.43-2,1.51-4.33,3.37-6.82,5.51-14.17,11.66-32.55,33.87-36.45,55.09A256.82,256.82,0,0,1,321.2,224q6.87-2.85,13.89-5.3a256.79,256.79,0,0,1,53.67-12.45C371.72,193,343.19,188.66,324.88,189.39Z" style="fill:#fff;opacity:0.5"></path><path d="M320.59,190.92c-1.68-.47-3.18-.82-4.45-1.1-.78,1.05-1.66,2.32-2.6,3.79-5.32,8.13-12,22.71-11.26,39.13q11.09-5.7,22.69-10.3c2.09-.83,4.18-1.63,6.29-2.4q11.7-4.29,23.79-7.43C344.63,199.89,330,193.45,320.59,190.92Z" style="fill:#00D1FF"></path><path d="M252.26,266.4c.46-.24,18.81,10.38,20.61-16A256.32,256.32,0,0,0,252.26,266.4Z" style="fill:#00D1FF"></path><path d="M272.87,250.42c.69-.46,26.18,10.33,29.41-17.68A257.74,257.74,0,0,0,272.87,250.42Z" style="fill:#00D1FF"></path><path d="M272.87,250.42c.69-.46,26.18,10.33,29.41-17.68A257.74,257.74,0,0,0,272.87,250.42Z" style="fill:#fff;opacity:0.4"></path><path d="M252.26,266.4c.46-.24,18.81,10.38,20.61-16A256.32,256.32,0,0,0,252.26,266.4Z" style="opacity:0.2;isolation:isolate"></path><path d="M414.77,204.4c-.5.13-7.11,20.28-26,1.82A258.57,258.57,0,0,1,414.77,204.4Z" style="fill:#00D1FF"></path><path d="M388.76,206.22c-.82.11-12.65,25.13-33.71,6.39A256.9,256.9,0,0,1,388.76,206.22Z" style="fill:#00D1FF"></path><path d="M388.76,206.22c-.82.11-12.65,25.13-33.71,6.39A256.9,256.9,0,0,1,388.76,206.22Z" style="fill:#fff;opacity:0.4"></path><path d="M414.77,204.4c-.5.13-7.11,20.28-26,1.82A258.57,258.57,0,0,1,414.77,204.4Z" style="opacity:0.2;isolation:isolate"></path><path d="M302.28,232.74c1.33-.32,29,11.75,52.77-20.13A256.61,256.61,0,0,0,302.28,232.74Z" style="fill:#00D1FF"></path><path d="M302.28,232.74c1.33-.32,29,11.75,52.77-20.13A256.61,256.61,0,0,0,302.28,232.74Z" style="opacity:0.2;isolation:isolate"></path><path d="M415.72,413.86s-10.53-8.25-14.44-8-8.51,4-8.51,4-5.74-3.13-7.32-2.39-10.88,6.4-10.88,6.4Z" style="fill:#00D1FF"></path><path d="M415.72,413.86s-10.53-8.25-14.44-8-8.51,4-8.51,4-5.74-3.13-7.32-2.39-10.88,6.4-10.88,6.4Z" style="fill:#fff;opacity:0.4"></path></g><g id="freepik--Watermelon--inject-71"><path d="M281.4,402.34c-10.64,2.73-20.85,4.9-30.64,6.6-125.51,21.75-181.49-35.7-181.49-35.7l2.51-4.06,144,19.12,64.17,8.52Z" style="fill:#00D1FF"></path><path d="M281.4,402.34c-10.64,2.73-20.85,4.9-30.64,6.6-125.51,21.75-181.49-35.7-181.49-35.7l2.51-4.06,144,19.12,64.17,8.52Z" style="fill:#fff;opacity:0.2"></path><path d="M279.94,396.82s-12.11,3.51-30.41,6.79c-24,4.3-58.64,8.19-90.51,3.17-56.18-8.85-87.24-37.6-87.24-37.6l4.91-7.39L131.6,369l145.21,19.09Z" style="fill:#00D1FF"></path><path d="M279.94,396.82s-12.11,3.51-30.41,6.79c-24,4.3-58.64,8.19-90.51,3.17-56.18-8.85-87.24-37.6-87.24-37.6l4.91-7.39L131.6,369l145.21,19.09Z" style="fill:#fff;opacity:0.7000000000000001"></path><path d="M250.76,408.94c-125.51,21.75-181.49-35.7-181.49-35.7l2.51-4.06,4.91-7.39L131.6,369l84.17,19.3,31.92,7.31,1.84,8Z" style="fill:#fff;opacity:0.2"></path><path d="M76.69,361.79,195,226.63l52.74,169S155.25,425.78,76.69,361.79Z" style="fill:#00D1FF"></path><polygon points="194.95 226.63 276.81 388.09 247.69 395.62 194.95 226.63" style="fill:#00D1FF"></polygon><path d="M76.69,361.79,195,226.63l52.74,169S155.25,425.78,76.69,361.79Z" style="fill:#fff;opacity:0.2"></path><path d="M217.84,373.24s8.59,9.5,2.4,11.32S217.84,373.24,217.84,373.24Z" style="fill:#263238"></path><path d="M191.72,377.41s6.1,11.25-.34,11.57S191.72,377.41,191.72,377.41Z" style="fill:#263238"></path><path d="M161.17,361.41s4.34,12-2.08,11.39S161.17,361.41,161.17,361.41Z" style="fill:#263238"></path><path d="M132.45,365.4s2,12.64-4.15,10.81S132.45,365.4,132.45,365.4Z" style="fill:#263238"></path><path d="M122.72,339.71s-1.84,12.67-7.19,9.07S122.72,339.71,122.72,339.71Z" style="fill:#263238"></path><path d="M150.49,329.6s2.1,12.63-4.1,10.83S150.49,329.6,150.49,329.6Z" style="fill:#263238"></path><path d="M183.54,335.75s5,11.82-1.5,11.48S183.54,335.75,183.54,335.75Z" style="fill:#263238"></path><path d="M203.75,318.51s6.24,11.18-.2,11.57S203.75,318.51,203.75,318.51Z" style="fill:#263238"></path><path d="M173.06,309.43s1.65,12.7-4.48,10.68S173.06,309.43,173.06,309.43Z" style="fill:#263238"></path><path d="M155.29,292.7s-.45,11.24-5.06,10.27S155.29,292.7,155.29,292.7Z" style="fill:#263238"></path><path d="M175.22,274.79s.84,11.21-3.85,10.78S175.22,274.79,175.22,274.79Z" style="fill:#263238"></path><path d="M194,282s2.55,11-2.15,11.25S194,282,194,282Z" style="fill:#263238"></path><path d="M189.15,256.46s2.55,11-2.15,11.25S189.15,256.46,189.15,256.46Z" style="fill:#263238"></path><path d="M249.23,368s6,6.59,2.82,8.59S249.23,368,249.23,368Z" style="fill:#263238"></path><path d="M247.93,341s6,6.58,2.83,8.58S247.93,341,247.93,341Z" style="fill:#263238"></path><path d="M230.06,302.82s6,6.59,2.82,8.59S230.06,302.82,230.06,302.82Z" style="fill:#263238"></path><path d="M214.53,271.38s4.2,6.89,2.33,8.68S214.53,271.38,214.53,271.38Z" style="fill:#263238"></path><path d="M232.15,324.7s5.95,6.59,2.82,8.59S232.15,324.7,232.15,324.7Z" style="fill:#263238"></path></g><g id="freepik--Character--inject-71"><path d="M393.05,263.39S383,301.1,375,305.7s-10.18,18.11-16.45,24.51-11.9,12.48-18.39,18.63-5.07,9.46-15.19,13.48-30.3,7.33-36.17,9.53-9.5,2.52-13.86,5.54-24.68,7.5-31.65,2.44-24.13-15.21-26-15.49-29.5-28.88-29.5-28.88,23.91,64.65,42.62,72.72,88.21,23.61,124.12,5S404.06,357.16,393.05,263.39Z" style="fill:#00D1FF"></path><path d="M393.05,263.39S383,301.1,375,305.7s-10.18,18.11-16.45,24.51-11.9,12.48-18.39,18.63-5.07,9.46-15.19,13.48-30.3,7.33-36.17,9.53-9.5,2.52-13.86,5.54-24.68,7.5-31.65,2.44-24.13-15.21-26-15.49-29.5-28.88-29.5-28.88,23.91,64.65,42.62,72.72,88.21,23.61,124.12,5S404.06,357.16,393.05,263.39Z" style="opacity:0.2;isolation:isolate"></path><path d="M320.78,392.58s6.7,7.24,3.09,8.61S320.78,392.58,320.78,392.58Z" style="fill:#263238"></path><path d="M358.8,379.83s11.79,1.44,9,4.87S358.8,379.83,358.8,379.83Z" style="fill:#263238"></path><path d="M383.49,352.4s4.54-1.71,4.54,0S383.49,352.4,383.49,352.4Z" style="fill:#263238"></path><path d="M372.76,359.86s7.6-.38,6.78,2.18S372.76,359.86,372.76,359.86Z" style="fill:#263238"></path><path d="M348.4,397.68s6,4.69,3.7,6.09S348.4,397.68,348.4,397.68Z" style="fill:#263238"></path><path d="M308.79,402.94s4.08,6.42,1.45,7S308.79,402.94,308.79,402.94Z" style="fill:#263238"></path><path d="M273.8,389.14s.47,7.6-2.1,6.81S273.8,389.14,273.8,389.14Z" style="fill:#263238"></path><path d="M249,388.29s-4.29,6.29-5.83,4.09S249,388.29,249,388.29Z" style="fill:#263238"></path><path d="M383.49,317.41s3.26-4.78,5.62-2S383.49,317.41,383.49,317.41Z" style="fill:#263238"></path><path d="M290.69,387.78s3.47,10.14,0,10.14S290.69,387.78,290.69,387.78Z" style="fill:#263238"></path><path d="M259.21,393.76s-1.26,8.41-4,7.42S259.21,393.76,259.21,393.76Z" style="fill:#263238"></path><path d="M232.31,378.23s-8.64,2.62-9.95-1.15S232.31,378.23,232.31,378.23Z" style="fill:#263238"></path><path d="M374.86,322.2s14.47-12,14.68-13.65-14.72-.74-14.72-.74l-.85-4s20.55-1.69,24.77.79-22.51,30.27-22.51,30.27Z" style="fill:#b97964"></path><path d="M381.3,292.82a6.59,6.59,0,0,1,4.68,4.75c1.66,5.68-1.56,8-3.76,11.23s-1.05,4.32.16,6.5,2.41,6.36-2.18,9.94-4.21,2-4.58,4-10.38,4.08-18.22.87-8.71-9-5-11,7.36-.15,4.52-5.15-2.21-7.57.5-10.1,3.21.37,3.47-5.11,1-12.7,13.64-11.17C382,288.43,381.3,292.82,381.3,292.82Z" style="fill:#263238"></path><path d="M356,318.47l-1.52,3.43-2.16,4.93s-7.51.95-14.31,1.36c-4.91.3-9.45.31-10.52-.51-2.57-1.95,7.58-21.5,7.58-21.5l3.09,1.27-4.07,13.75A92.89,92.89,0,0,1,356,318.47Z" style="fill:#b97964"></path><path d="M335.8,307.9s-2.08-.15-2.42-1.91.67-7.51.61-7.68a53.87,53.87,0,0,1,6.72-.24c.22.1-.34,8.05-1,8.94S337.37,308,335.8,307.9Z" style="fill:#b97964"></path><path d="M348.14,295.2,342,306l-.45.8s-8.24-3.58-8.2-12.58l1.13.08Z" style="fill:#00D1FF"></path><path d="M342.33,305.46l-.3.53a12.78,12.78,0,0,1-7.52-11.7l.52,0C335.32,297.15,336.61,302.83,342.33,305.46Z" style="fill:#fff;opacity:0.7000000000000001"></path><path d="M348.14,295.2l-5.81,10.26c-5.72-2.63-7-8.31-7.3-11.14Z" style="opacity:0.2;isolation:isolate"></path><path d="M339.94,299s-.6,1-.9.59S339.94,299,339.94,299Z" style="fill:#263238"></path><path d="M343.2,299.69s-.09,1.33-.71.89S343.2,299.69,343.2,299.69Z" style="fill:#263238"></path><path d="M342.07,297s-1.15,1-1.35.47S342.07,297,342.07,297Z" style="fill:#263238"></path><path d="M345.29,296.92s-1.3-.47-1.13.26S345.29,296.92,345.29,296.92Z" style="fill:#263238"></path><path d="M341.28,301.69s.15,1.37-.3,1.1S341.28,301.69,341.28,301.69Z" style="fill:#263238"></path><path d="M338.27,297.13s-1.06.31-1.28-.05S338.27,297.13,338.27,297.13Z" style="fill:#263238"></path><path d="M340.11,295.61s-1.63.32-1.4-.14S340.11,295.61,340.11,295.61Z" style="fill:#263238"></path><path d="M339.73,301.51s-.43,1-.67.75S339.73,301.51,339.73,301.51Z" style="fill:#263238"></path><path d="M345.23,298.68s-.27.79-.59.59S345.23,298.68,345.23,298.68Z" style="fill:#263238"></path><path d="M343.34,301.79s0,1.25-.31,1.11S343.34,301.79,343.34,301.79Z" style="fill:#263238"></path><path d="M354.47,321.9l-2.16,4.93s-7.51.95-14.31,1.36c4.09-6.18,16.32-7.37,16.32-7.37A4.85,4.85,0,0,1,354.47,321.9Z" style="opacity:0.2;isolation:isolate"></path><path d="M277.46,349.35c6.12.14,34.31,5,34.31,5l9.56,2.06,2.09.46s-.53.58-1.31,1.5c-2.3,2.71-6.72,8.38-5.91,10.94,1.25,3.89,11.73,9.29,14.66,10.73l.76.37-.6.05c-12.81.77-36.73-9.61-48.34-14.9-3.84-1.75-6.33-3-6.64-3S276.06,349.31,277.46,349.35Z" style="fill:#b97964"></path><path d="M282.68,365.6c11.61,5.29,35.53,15.67,48.34,14.9l-.16-.42-8.75-21.67,1.25,3.5S300.23,358.73,282.68,365.6Z" style="opacity:0.2;isolation:isolate"></path><path d="M370.09,322.46s-2.54,2.13-8.86,1.28c0,0-2.5-2.79-.57-4.87,0,0,1.44-.06,2.28-2.09a10.64,10.64,0,0,0,.6-4.54c0-.24,0-.5,0-.76l9-2.78S367.18,317.77,370.09,322.46Z" style="fill:#b97964"></path><path d="M370,311s-1.88,5.41-7.09,5.74a10.64,10.64,0,0,0,.6-4.54C366.76,311.51,370,311,370,311Z" style="opacity:0.2;isolation:isolate"></path><path d="M373.23,291.41c-6.1-2.6-9.46-.17-12.58,5.92-3.91,7.62-4.54,13.94,3.8,15.51C375.77,315,383.35,295.72,373.23,291.41Z" style="fill:#b97964"></path><path d="M364.74,298.67a14.16,14.16,0,0,1-2.86,1.77,1.82,1.82,0,0,0,1.32,1.38Z" style="fill:#a24e3f"></path><path d="M368.68,299.76c-.22.5-.14,1,.19,1.17s.78-.13,1-.62.14-1-.19-1.17S368.91,299.27,368.68,299.76Z" style="fill:#263238"></path><path d="M369.81,299.22l-.88-.91S369.05,299.46,369.81,299.22Z" style="fill:#263238"></path><path d="M362.56,296.86c-.22.5-.14,1,.19,1.17s.78-.13,1-.63.14-1-.19-1.17S362.79,296.36,362.56,296.86Z" style="fill:#263238"></path><path d="M363.69,296.32l-.88-.91S362.93,296.56,363.69,296.32Z" style="fill:#263238"></path><path d="M372.79,298a.38.38,0,0,1-.35-.26,3,3,0,0,0-2-1.8.37.37,0,0,1-.25-.45.35.35,0,0,1,.44-.25,3.78,3.78,0,0,1,2.51,2.3.36.36,0,0,1-.25.44Z" style="fill:#263238"></path><path d="M366.21,293.79a.36.36,0,0,1-.24-.09,2.68,2.68,0,0,0-2.33-.45.36.36,0,1,1-.14-.71,3.4,3.4,0,0,1,3,.63.36.36,0,0,1,0,.51A.39.39,0,0,1,366.21,293.79Z" style="fill:#263238"></path><path d="M363.06,304.6a16.77,16.77,0,0,1-.19,2.42l.41.13c1.85.58,2.9.23,3.5-.32a2.68,2.68,0,0,0,.64-1,2.49,2.49,0,0,0,.14-.67,9.05,9.05,0,0,1-3.86-.38C363.3,304.68,363.06,304.6,363.06,304.6Z" style="fill:#263238"></path><path d="M363.7,304.78l0,.72c1.75.54,3,.68,3.76.33a2.49,2.49,0,0,0,.14-.67A9.05,9.05,0,0,1,363.7,304.78Z" style="fill:#fff"></path><path d="M363.28,307.15c1.85.58,2.9.23,3.5-.32a6.14,6.14,0,0,0-2.18-.24A2.36,2.36,0,0,0,363.28,307.15Z" style="fill:#de5753"></path><path d="M375.51,304.53s-.72-6.23,1.37-9.91c0,0-10-10.09-15.81,1.92,0,0,3.46-11.4,14.05-7.17s4,19.54-3.36,21.81C371.76,311.18,375.94,308.41,375.51,304.53Z" style="fill:#263238"></path><path d="M374,305.39a2.9,2.9,0,0,1,3.92-1.22c1.8,1,1.05,5.28-4.05,4.21C373.11,308.22,373,307.4,374,305.39Z" style="fill:#b97964"></path><path d="M361,294s1.54-.14,3.91,1.47h0a3,3,0,0,1,2.26.88,13.37,13.37,0,0,1,4.55,2.18l4.49,3.21-.14.54-4.74-2.64c-.75,1.13-2.39,2.75-4,1.94-2.16-1.07-1.4-3.39-.94-4.45-.33-.69-1.22-1-1.52-.63-.44.93-1.66,3-4,2.26S361,294,361,294Z" style="fill:#00D1FF"></path><path d="M361,294s1.54-.14,3.91,1.47h0a3,3,0,0,1,2.26.88,13.37,13.37,0,0,1,4.55,2.18l4.49,3.21-.14.54-4.74-2.64c-.75,1.13-2.39,2.75-4,1.94-2.16-1.07-1.4-3.39-.94-4.45-.33-.69-1.22-1-1.52-.63-.44.93-1.66,3-4,2.26S361,294,361,294Z" style="opacity:0.2;isolation:isolate"></path><g style="opacity:0.30000000000000004"><path d="M361.79,294.49l0,4s-1.54.1-1.62-1.13a7.21,7.21,0,0,1,.91-3A2.07,2.07,0,0,1,361.79,294.49Z" style="fill:#fff"></path><path d="M362.13,294.55v4s.69,0,.76-.27l0-3.41S362.36,294.63,362.13,294.55Z" style="fill:#fff"></path><path d="M367.93,297.09l0,4s-1.54.1-1.62-1.13a7.24,7.24,0,0,1,.9-3A2.1,2.1,0,0,1,367.93,297.09Z" style="fill:#fff"></path><path d="M368.27,297.14v4s.68,0,.75-.27l0-3.42Z" style="fill:#fff"></path></g><path d="M338.16,351.91a109.92,109.92,0,0,0-16.83,4.54,32.48,32.48,0,0,0-4.24,8.82c-2.21,9-1.58,20.28,10.4,21.45,17.46,1.7,24-3.06,29.79-25.66Z" style="fill:#00D1FF"></path><path d="M338.16,351.91a109.92,109.92,0,0,0-16.83,4.54,32.48,32.48,0,0,0-4.24,8.82c-2.21,9-1.58,20.28,10.4,21.45,17.46,1.7,24-3.06,29.79-25.66Z" style="fill:#fff;opacity:0.7000000000000001"></path><path d="M338.15,351.9l19.13,9.16a170.53,170.53,0,0,0,12-14.76h0c.05-.08.12-.17.18-.25,1-1.47,2.07-3,3-4.49a51.12,51.12,0,0,0,5.24-10.21c1.11-3.24,1.39-6.1.29-8.16,0,0-1.68-.57-4.25-1.31l-.65-.18a90.76,90.76,0,0,0-14.23-3h0c-.45-.06-.91-.09-1.35-.13-1.07-.08-2.11-.12-3.08-.1-2.41,0-4.68,2.39-6.71,5.83a48.59,48.59,0,0,0-3.13,6.46c-1.22,2.94-2.29,6.08-3.2,9-.06.18-.11.37-.17.55C339.28,346.67,338.15,351.9,338.15,351.9Z" style="fill:#b97964"></path><path d="M341.37,339.8a54.06,54.06,0,0,0,9.31-1.81l.09,0c.19.29.39.57.61.85l.82,1a16.56,16.56,0,0,0,3.86,3.08,28.26,28.26,0,0,0,12.87,3.43h.33l.22-.27,3.32-4.17-.34-.3a9.24,9.24,0,0,1-2.64-6c-.5-5.66,2.48-12.21,3.92-13.67.09-.08.16-.15.23-.2l-.46-.33a2.34,2.34,0,0,0-.42.35c-1.47,1.53-4,6.61-4,6.61-5.25-.8-14,.32-14,.32s-1.49-3.48-4.7-4.55c0,0,4.91-4.87,8.46-5.36a3.44,3.44,0,0,0-1.27-.16l-.08,0a42.23,42.23,0,0,0-14.1,9.61,5.4,5.4,0,0,0-.5.59C339.43,333.19,341.37,339.8,341.37,339.8Z" style="fill:#00D1FF"></path><path d="M341.37,339.8a54.06,54.06,0,0,0,9.31-1.81l.09,0c.19.29.39.57.61.85l.82,1a16.56,16.56,0,0,0,3.86,3.08,28.26,28.26,0,0,0,12.87,3.43h.33l.22-.27,3.32-4.17-.34-.3a9.24,9.24,0,0,1-2.64-6c-.5-5.66,2.48-12.21,3.92-13.67.09-.08.16-.15.23-.2l-.46-.33a2.34,2.34,0,0,0-.42.35c-1.47,1.53-4,6.61-4,6.61-5.25-.8-14,.32-14,.32s-1.49-3.48-4.7-4.55c0,0,4.91-4.87,8.46-5.36a3.44,3.44,0,0,0-1.27-.16l-.08,0a42.23,42.23,0,0,0-14.1,9.61,5.4,5.4,0,0,0-.5.59C339.43,333.19,341.37,339.8,341.37,339.8Z" style="fill:#fff;opacity:0.7000000000000001"></path><path d="M213.11,362.69c-.14,2.15-.28,4.06-.4,5.82-.15,2.14-.28,4.07-.41,5.93-.24,3.26,3.63.76,9.32.84l.58,0h0c.09,0,.17-.13.22-.33a30,30,0,0,0,.4-5.05h0a38.9,38.9,0,0,1-2.55-3.1c-1.45-1.94-3-4.51-3.4-6.75C216.16,355.75,213.44,357.94,213.11,362.69Z" style="fill:#b97964"></path><path d="M221.2,369.78l-.37,5.25.95.19.42.08c6.6,1.29,35.4,6.61,51.28,4.68,0,0,48.58,5.83,57.42,6.57s14.7-10.86,11-18.38c-2.16-4.4-5.64-8.22-18.56-6.26s-40.6,7.43-50.78,7.92c0,0-14.36,1.9-38,.82h0c-3.69-.16-7.62-.4-11.75-.74Z" style="fill:#b97964"></path><path d="M213.11,362.69c-.14,2.15-.28,4.06-.4,5.82-.15,2.14-.28,4.07-.41,5.93-.24,3.26,3.63.76,9.32.84a.76.76,0,0,0,.16-.06l.64-.25c4.38-1.73,8.86-3.25,12.14-4.32-3.69-.16-7.62-.4-11.75-.74a38.9,38.9,0,0,1-2.55-3.1c-1.45-1.94-3-4.51-3.4-6.75C216.16,355.75,213.44,357.94,213.11,362.69Z" style="opacity:0.2;isolation:isolate"></path><path d="M214.9,372.3c.56-.13.51-6.14.51-6.14s-7.51-3.12-9.36-7.08-3.87-1.12-2.9,3.54,1.72,8.22,2.42,11.53S209,373.67,214.9,372.3Z" style="fill:#b97964"></path><path d="M277.46,349.35c1.09,0-1.16,13.29-1.42,13.25-1.41-.26-64.8,10.31-64.8,10.31l-1.38-5.08S271.36,349.2,277.46,349.35Z" style="fill:#b97964"></path><path d="M181.65,335.46l5.14-3.9s69.57,98.23,150.66,80.29c77-17,55.6-148.46,55.6-148.46l7,3s18,170.16-86.61,154.69S181.65,335.46,181.65,335.46Z" style="fill:#00D1FF"></path><path d="M181.65,335.46l5.14-3.9s69.57,98.23,150.66,80.29c77-17,55.6-148.46,55.6-148.46l7,3s18,170.16-86.61,154.69S181.65,335.46,181.65,335.46Z" style="fill:#fff;opacity:0.7000000000000001"></path><path d="M333.15,422.2c-13.23.7-25.42.89-36.62.68h0c-13.54-.25-25.64-1.09-36.42-2.3-7-.79-13.37-1.74-19.25-2.79h0a224.32,224.32,0,0,1-27.77-6.7,143.3,143.3,0,0,1-17.93-6.92,59.55,59.55,0,0,1-9.81-5.54,102,102,0,0,1-5.17-24.57,152.75,152.75,0,0,1,1.5-38.6s11.32,15,30.75,32.35c2.51,2.23,5.15,4.51,7.92,6.79,26.43,21.8,64.53,44.59,108.22,44.59,82,0,72-146.36,71.5-152.59C400.78,272.72,417.29,417.75,333.15,422.2Z" style="fill:#00D1FF"></path><path d="M213.06,411.09c2.76-2.79,4-3.85-1.09-5.48-5.73-1.83-10.79-5-10.46-9.48s-3.71-4.18-5.18-8.73-3-11.23-3-11.23-7.3.09-6.92-6.16,5.13-12.05.73-16.3S181.65,337,181.65,337s14.22,22,11.7,25.48-4,8.3,2.25,11.59,3.66,4.84,3.66,8.84,1.11,4.18,4,7,3.3,5.78,2.57,8,9.72,4.85,15,5.91,2.66,4.41,3.76,6c.6.88,8.82,4.66,16.24,7.93A224.32,224.32,0,0,1,213.06,411.09Z" style="opacity:0.30000000000000004;isolation:isolate"></path><path d="M296.52,422.88c-13.54-.25-25.64-1.09-36.42-2.3-4.4-1.23-7.63-2.27-7.33-2.93.85-1.89-4-8.74-7.63-10.51s-12.11-9.6-10.94-10.9-6.31-7.5-11.11-10.36-5.84-4.49-5.75-7.78c0-1.2-2.16-5.42-4.94-10.29,2.51,2.23,5.15,4.51,7.92,6.79,2.72,3.63,5,6.69,6.11,8.3,4.4,6.28,13.57,9.87,13.19,13.34s5.16,6.8,13.38,10.9,7.19,5.45,8.29,8,13.21,1.1,23.12,2.49A28.81,28.81,0,0,1,296.52,422.88Z" style="opacity:0.30000000000000004;isolation:isolate"></path><path d="M195.13,404.17a59.55,59.55,0,0,1-9.81-5.54,102,102,0,0,1-5.17-24.57c2.84,4,6.52,8.43,5.53,11.37s1.23,7.11,2.94,8.94S197.23,400.46,195.13,404.17Z" style="opacity:0.30000000000000004;isolation:isolate"></path><path d="M398.74,304.6c-1.7-1-6-1.32-10.6-1.35v4.59c.89.16,1.44.38,1.4.71-.21,1.66-14.68,13.65-14.68,13.65l1.37,12.67S403,307.07,398.74,304.6Z" style="fill:#b97964"></path></g></svg>