<svg xmlns="http://www.w3.org/2000/svg" viewBox="0 0 500 500"><g id="freepik--background-complete--inject-25"><path d="M286.36,182.78s-62.46-3.48-96.4-12c-28.18-7.1-53.91-20.94-66.55-20.94-27.56,0-77.48,33-77.48,33H227.79" style="fill:#dbdbdb"></path><path d="M378.75,182.78S311,163.27,291,163.27c-14.79,0-129.08,19.51-129.08,19.51h158" style="fill:#ebebeb"></path><path d="M446.11,98.53H338.44s10.68-29.16,27.11-29.16S387.12,89.5,387.12,89.5s11.09-10.94,20.2-10.94,17,14.45,17,14.45S437.21,85.24,446.11,98.53Z" style="fill:#ebebeb"></path><path d="M317.34,132.17H267s11.25-16.29,20.1-16.29,11.48,10.86,11.48,10.86,6.25-5.06,12-4.16S317.34,132.17,317.34,132.17Z" style="fill:#ebebeb;opacity:0.5"></path><path d="M151.9,116.33h-98s13.42-30,27.78-31.84,21.22,22.26,21.22,22.26,9.26-8.53,16.54-8.53,12.91,11.24,12.91,11.24S146.9,101.76,151.9,116.33Z" style="fill:#ebebeb"></path><path d="M245.05,61.71H178.84s11.37-21.71,23.71-22,18.82,16.43,18.82,16.43S240.56,40.71,245.05,61.71Z" style="fill:#ebebeb;opacity:0.5"></path><path d="M451.64,245.55c-10.32.21-20.63.3-30.95.38l-31,.12-31-.12-15.48-.14-15.48-.24,15.48-.25,15.48-.14,31-.11,31,.12C431,245.25,441.32,245.34,451.64,245.55Z" style="fill:#ebebeb"></path><path d="M166.14,245.55c-10.31.21-20.63.3-30.95.38l-31,.12-30.95-.12-15.48-.14-15.48-.24,15.48-.25,15.48-.14,31-.11,31,.12C145.51,245.25,155.83,245.34,166.14,245.55Z" style="fill:#ebebeb"></path><path d="M359.48,280c-10.32.21-20.63.3-31,.38l-31,.12-30.95-.12-15.48-.14L235.66,280l15.48-.25,15.48-.14,30.95-.11,31,.12C338.85,279.71,349.16,279.8,359.48,280Z" style="fill:#ebebeb"></path><path d="M440.23,334.85c-10.32.21-20.64.31-31,.39l-30.95.11-31-.11-15.47-.14-15.48-.25,15.48-.24,15.47-.14,31-.11,30.95.11C419.59,334.55,429.91,334.65,440.23,334.85Z" style="fill:#ebebeb"></path><path d="M359.48,366.88c-10.32.21-20.63.3-31,.38l-31,.12-30.95-.12-15.48-.13-15.48-.25,15.48-.24,15.48-.14,30.95-.12,31,.12C338.85,366.58,349.16,366.67,359.48,366.88Z" style="fill:#ebebeb"></path><path d="M198.72,339.11c-10.32.21-20.63.31-30.95.39l-31,.11-30.95-.11-15.48-.14-15.48-.25,15.48-.24,15.48-.14,31-.11,31,.11C178.09,338.81,188.4,338.91,198.72,339.11Z" style="fill:#ebebeb"></path><polygon points="457.68 295.29 437.84 295.53 418 295.67 378.32 295.79 338.64 295.67 318.8 295.53 298.96 295.29 318.8 295.04 338.64 294.9 378.32 294.79 418 294.9 437.84 295.04 457.68 295.29" style="fill:#ebebeb"></polygon><polygon points="334.03 316.83 314.19 317.07 294.35 317.21 254.67 317.33 214.99 317.21 195.15 317.07 175.31 316.83 195.15 316.58 214.99 316.44 254.67 316.33 294.35 316.45 314.19 316.59 334.03 316.83" style="fill:#ebebeb"></polygon><polygon points="347.89 220.56 328.06 220.81 308.22 220.95 268.54 221.06 228.86 220.95 209.02 220.81 189.18 220.56 209.02 220.32 228.86 220.18 268.54 220.06 308.22 220.18 328.06 220.32 347.89 220.56" style="fill:#ebebeb"></polygon><polygon points="259.58 209.62 239.74 209.87 219.9 210.01 180.22 210.12 140.54 210.01 120.7 209.87 100.86 209.62 120.7 209.38 140.54 209.24 180.22 209.12 219.9 209.24 239.74 209.38 259.58 209.62" style="fill:#ebebeb"></polygon><polygon points="434.15 203.68 414.31 203.92 394.47 204.06 354.79 204.18 315.11 204.06 295.27 203.93 275.43 203.68 295.27 203.44 315.11 203.3 354.79 203.18 394.47 203.3 414.31 203.44 434.15 203.68" style="fill:#ebebeb"></polygon><polygon points="45.43 182.79 96.57 182.55 147.72 182.46 250 182.3 352.29 182.46 403.43 182.55 454.57 182.79 403.43 183.04 352.29 183.13 250 183.29 147.72 183.13 96.57 183.04 45.43 182.79" style="fill:#a6a6a6"></polygon><polygon points="45.43 382.05 96.57 381.81 147.72 381.72 250 381.55 352.29 381.72 403.43 381.8 454.57 382.05 403.43 382.29 352.29 382.38 250 382.55 147.72 382.38 96.57 382.29 45.43 382.05" style="fill:#a6a6a6"></polygon></g><g id="freepik--Shadow--inject-25"><ellipse cx="140.59" cy="453.93" rx="94.98" ry="10.25" style="fill:#ebebeb"></ellipse></g><g id="freepik--Plants--inject-25"><path d="M311.78,364.52c-2.53.09-5.35.23-7.45-1.41-1.93-1.52-3.66-3.78-3.41-6.37.08-.74.25-1.2,1-.88,1.21.48,2.14,1.81,3,2.75a25.15,25.15,0,0,0,3.51,3.33c.9.69,1.87,1.29,2.79,2l.34.25.13.1h.08a.17.17,0,0,1,.1.06.08.08,0,0,1,0,0A.13.13,0,0,1,311.78,364.52Z" style="fill:#263238"></path><path d="M311.91,364.35c-2.23,0-4.63.06-6.41-1.45a10.42,10.42,0,0,1-2.07-2.51c-.25-.42-1-1.67-.71-2.16.58-.9,3.24,2.76,3.6,3.11a10.8,10.8,0,0,0,4.92,2.56l.34.25a12,12,0,0,1-3.69-1.41c-1.58-.95-2.46-2.34-3.69-3.64-.27-.28-1.08-1.23-1.38-.64-.2.39.55,1.61.71,1.87a10.21,10.21,0,0,0,2,2.39c1.78,1.55,4.17,1.5,6.41,1.59A.08.08,0,0,1,311.91,364.35Z" style="fill:#fff"></path><path d="M313.18,366.06l-.06.3h0l-.05.05a.11.11,0,0,1-.13-.05.06.06,0,0,1,0-.06s0,0,0,0l0-.09h0v0c-.45-1.67-.63-3.41-1.1-5.09s-1-3.17-1.34-4.8c-.2-1-.92-6.2,1.36-5.56,1,.29,1.7,1.75,2.08,2.62a10.83,10.83,0,0,1,.84,3.72C315,360.18,313.82,363,313.18,366.06Z" style="fill:#263238"></path><path d="M313.91,359.63a12.59,12.59,0,0,0-.36-3.51c-.11-.39-.6-2.29-1.24-2.24-.42,0-.49.84-.53,1.11a11.25,11.25,0,0,0,.45,3.45,47.11,47.11,0,0,1,.84,6.9l-.06.44c0,.12,0,.24-.05.36s0,.08,0,.13a.31.31,0,0,0,0,.1.11.11,0,0,0,.13.05c0-.1,0-.19,0-.29a1.93,1.93,0,0,0,0,.24h0c0-.08,0-.16.05-.24v-.06c0-.13,0-.26,0-.38A51.5,51.5,0,0,0,313.91,359.63Zm-.77,5.22c-.06-1.36-.2-2.71-.39-4.05-.15-1.08-.35-2.16-.58-3.22a10.4,10.4,0,0,1-.29-1.83c0-.47,0-2.22.94-1.14a7.11,7.11,0,0,1,.89,3.42,17.22,17.22,0,0,1-.07,3.21C313.52,362.44,313.32,363.65,313.14,364.85Z" style="fill:#fff"></path><path d="M314.55,373h-.1c-2.32-.11-5.4.1-7.33-1.43-1.42-1.13-2.82-3.37-2.37-5.26.52-2.14,3.4.42,4.17,1a72.86,72.86,0,0,1,5.67,5.52l0,.05h0S314.6,373,314.55,373Z" style="fill:#263238"></path><path d="M314.62,372.94l-.4-.25c-1.52-.95-3-2-4.43-3.07-.36-.28-3-2.6-3.36-1.77-.23.5.63,1.52.9,1.87a7.32,7.32,0,0,0,1.76,1.57c1.54,1,3.42,1.17,5.16,1.63l.25.06s0,0,0,0h0C314.6,373,314.64,373,314.62,372.94ZM310,371.63a7.29,7.29,0,0,1-2-1.35c-.39-.37-1.76-1.76-1.4-2.33.19-.3.36-.14.72,0a4.91,4.91,0,0,1,.5.28c.38.26.74.56,1.1.84.64.51,1.28,1,1.94,1.48,1.08.79,2.18,1.53,3.31,2.23A37,37,0,0,1,310,371.63Z" style="fill:#fff"></path><path d="M318.77,368.24a13.72,13.72,0,0,1-4,6.93l-.05,0a.12.12,0,0,1-.12-.05.1.1,0,0,1,0-.13l.11-.12c.39-3.15.81-6.27,1.13-9.43.08-.74.66-5.48,2.12-4.71.89.48,1,2.42,1,3.29A13.41,13.41,0,0,1,318.77,368.24Z" style="fill:#263238"></path><path d="M317.93,364c-.07-.26-.21-.53-.51-.35-.56.36-.79,2.58-.88,3.2-.39,2.54-1,5-1.6,7.46l-.15.64-.15.18a.12.12,0,0,0,.12.05s0-.05,0-.06l.19-.26h0a16.18,16.18,0,0,0,2.29-4.47,15,15,0,0,0,.68-3.11A8.82,8.82,0,0,0,317.93,364Zm-3,10.69-.08.12.07-.25a44.31,44.31,0,0,0,1.42-5.78c.17-1,.28-2,.48-3,.09-.42.29-1.61.64-1.8s.33.27.37.54,0,.54,0,.72A16,16,0,0,1,315,374.71Z" style="fill:#fff"></path><path d="M315.19,382h-.46l0-1.22c-.06-1.64-.12-3.29-.22-4.93-.06-.94-.12-1.87-.22-2.79,0,0,0-.07,0-.1l0-.23a2,2,0,0,0,0-.24,19.91,19.91,0,0,0-1.59-6.05c-.29-.63-.61-1.26-1-1.88l-.1-.18s0,0,0,0a1.74,1.74,0,0,0-.1-.19l-.08-.13c-1.07-1.89-2.29-3.69-3.45-5.5-.34-.52-.67-1-1-1.57l-.06-.09-.07-.11c-1.46-2.31-2.9-4.63-4.41-6.89-.06-.09.07-.16.13-.08,1,1.5,2.08,3,3.14,4.46.14.2.27.4.42.59.27.4.55.78.82,1.18.55.78,1.1,1.57,1.63,2.36a67,67,0,0,1,4.26,6.9c.09.18.18.36.26.55a3.54,3.54,0,0,1,.16.34l.18.39a21.46,21.46,0,0,1,1.56,7.3l0,.52c0,.08,0,.17,0,.25s0,.08,0,.13,0,.11,0,.17h0V375c0,.14,0,.29,0,.45.07,1.64.11,3.29.15,4.93C315.15,380.91,315.17,381.44,315.19,382Z" style="fill:#263238"></path><path d="M301.37,352.17c-1.27-1.71-2.89-5.23-1-7.05a2,2,0,0,1,2.65-.2,5.74,5.74,0,0,1,1.75,3.18c.86,3,1.43,6,2.5,8.94,0,0,.09.25.11.32s-.07.08-.1,0l-.1-.28C305.13,355.63,302.87,354.19,301.37,352.17Z" style="fill:#263238"></path><path d="M307.25,357.05l0-.05a20.34,20.34,0,0,1-1.18-2.21,43.26,43.26,0,0,1-1.83-4.88c-.2-.64-1.11-3.77-2.23-2.52a2.82,2.82,0,0,0-.33,2.1,8,8,0,0,0,1,2.93,14.48,14.48,0,0,0,4.21,4.4l.23.17,0,.08,0,.05,0,0a.07.07,0,0,0,.1,0A.09.09,0,0,0,307.25,357.05Zm-.49-.34a17.06,17.06,0,0,1-3.57-3.58,9.06,9.06,0,0,1-1.16-2.38,6.37,6.37,0,0,1-.25-1.15,4.2,4.2,0,0,1,0-.87c0-.65.28-1.35.66-1.42s.63.19.94.73a3.77,3.77,0,0,1,.28.57,15.32,15.32,0,0,1,.53,1.48c.26.83.53,1.65.82,2.47.2.55.42,1.1.66,1.64a21.52,21.52,0,0,0,1.39,2.7Z" style="fill:#fff"></path><path d="M333.72,345.24c-.3,2.48-.78,4.93-1.28,7.38-.28,1.39-.58,2.77-.86,4.16a10.13,10.13,0,0,0-.35,4.63h0a.76.76,0,0,1,0,.21s0,0,0,0a.18.18,0,0,1-.32-.06l0-.1,0,0a6.41,6.41,0,0,1-.53-1.29,32.88,32.88,0,0,1-1.23-3.58,31,31,0,0,1-1.21-7.65,26.21,26.21,0,0,1,.72-6.89c.44-1.8,1.07-4.48,2.42-5.86s2.22.75,2.58,1.76C334.39,340.25,334,342.89,333.72,345.24Z" style="fill:#455a64"></path><path d="M331.5,340c-.9,0-1.56,2.92-1.88,4.18a25.45,25.45,0,0,0-.77,6.08,32.38,32.38,0,0,0,1.87,10.81c0,.13.09.28.14.42l0,0,0,.1a.19.19,0,0,0,.32.06c-.06-.31-.1-.61-.14-.91s-.06-.55-.08-.82a43.2,43.2,0,0,1,.55-8.94C332,347.53,332.7,340,331.5,340Zm-.65,20.53c0,.4.11.8.19,1.19-.09-.29-.19-.57-.27-.86a36,36,0,0,1-1.71-9.53,25.57,25.57,0,0,1,.4-5.45,24.69,24.69,0,0,1,.7-2.85c.13-.39.79-2.83,1.34-2.71.4.08.49,2.28.49,2.33,0,.44,0,.88,0,1.32,0,.91-.07,1.82-.15,2.73-.17,2-.45,3.92-.69,5.88A34.13,34.13,0,0,0,330.85,360.51Z" style="fill:#fff"></path><path d="M348,352.09c-1.66,3.23-4.46,5.71-7.34,7.84-1.55,1.14-3.15,2.2-4.72,3.3a25.67,25.67,0,0,0-4.08,3.14l-.15.16a6.69,6.69,0,0,0-.85,1.17.1.1,0,0,1-.08.05.58.58,0,0,1-.05.14,0,0,0,0,1-.07,0,.88.88,0,0,0,0-.16h0a.12.12,0,0,1,0-.13l0-.05,0-.16c.47-3.78,3.11-7.61,5.35-10.52A20.11,20.11,0,0,1,344.5,350c.87-.34,2.84-1.26,3.73-.55S348.31,351.4,348,352.09Z" style="fill:#455a64"></path><path d="M345.39,352.1c-.78-.79-3.11,1.16-3.69,1.61a38.59,38.59,0,0,0-4.8,4.68,34.48,34.48,0,0,0-6.13,8.87h0l-.08.11a1.1,1.1,0,0,0,0,.16l0,.05a.12.12,0,0,0,0,.13l.11-.13c.29-.36.59-.71.91-1.05l.15-.16A73.45,73.45,0,0,1,339,360a35.62,35.62,0,0,0,4.78-4.65C344.14,354.94,346.06,352.76,345.39,352.1Zm-.72,1.74c-2,3.24-5.35,5.62-8.23,8A40.12,40.12,0,0,0,331,367a36.85,36.85,0,0,1,5.68-8,47.61,47.61,0,0,1,3.9-4,19.62,19.62,0,0,1,2.36-1.9,8.19,8.19,0,0,1,1.6-.86C345.61,351.94,345,353.28,344.67,353.84Z" style="fill:#fff"></path><path d="M330.29,375.41a.17.17,0,0,1-.16.09.13.13,0,0,0,0,.06.06.06,0,0,1,0,.08,0,0,0,0,1-.08,0,32.53,32.53,0,0,1-7.55-11.05,16.9,16.9,0,0,1-1.1-5.44c0-1.27-.1-3.84,1-4.77,2.19-1.86,4.19,6.05,4.49,7.25.54,2.17.9,4.39,1.4,6.57.55,2.39,1.27,4.74,2,7.08A.14.14,0,0,1,330.29,375.41Z" style="fill:#455a64"></path><path d="M330.29,375.41c-.12-.2-.23-.41-.34-.61A36.85,36.85,0,0,1,326,364.17a34,34,0,0,0-1.46-5.54c-.18-.44-.72-2.12-1.45-1.27-.37.44-.06,3.64.09,4.46a23,23,0,0,0,1.78,5.44,38.59,38.59,0,0,0,5,8.17l.18.21a.06.06,0,0,0,0-.08l0-.05A.18.18,0,0,0,330.29,375.41Zm-4.45-6.8a27,27,0,0,1-2.1-5.28,18.23,18.23,0,0,1-.47-2.22,11.6,11.6,0,0,1-.14-1.76c0-1.45.12-1.82.36-1.87s.36.12.79,1a8.85,8.85,0,0,1,.61,1.75c.23.85.42,1.71.61,2.58.37,1.72.72,3.45,1.22,5.14a28.87,28.87,0,0,0,3,6.92A44.36,44.36,0,0,1,325.84,368.61Z" style="fill:#fff"></path><path d="M340.13,367.82a10.92,10.92,0,0,1-2,4.19c-1.82,2.51-4.15,4.6-6.14,7-.29.35-.58.71-.86,1.08,0,.05-.26.57-.26.53s0-.21.1-.55h0c.32-1.67,1.37-6.7,2.67-9.27a22.84,22.84,0,0,1,2.91-4.55c.56-.63,1.89-2,2.89-1.71S340.29,367,340.13,367.82Z" style="fill:#455a64"></path><path d="M338.51,366.8c-1.06-.66-3.81,4.25-4.18,4.88a31.27,31.27,0,0,0-3.13,7.48c-.09.3-.16.59-.24.89s-.1.53-.1.55.23-.48.26-.53.1-.12.14-.19L332,379c1.19-1.79,2.42-3.55,3.58-5.37a29.67,29.67,0,0,0,2.22-4.07C337.91,369.22,339,367.09,338.51,366.8Zm-.3,1.39c-1.52,4.26-4.61,7.63-7,11.42l-.12.18c0-.11.07-.22.1-.33a35.44,35.44,0,0,1,2.51-6.23,33,33,0,0,1,2.1-3.52,16.87,16.87,0,0,1,1.32-1.82c.22-.24.84-.88,1.06-.77S338.31,367.9,338.21,368.19Z" style="fill:#fff"></path><path d="M350.83,332.6c-3.17,7.27-11.47,10.66-15.07,17.67l0,0c-.11.21-.22.43-.32.65a.15.15,0,0,1-.24,0,.12.12,0,0,1,0-.12.8.8,0,0,1,.08-.16A37.8,37.8,0,0,1,339.69,338a19.23,19.23,0,0,1,7.76-8.26c.85-.43,2.51-1.35,3.46-.63S351.22,331.71,350.83,332.6Z" style="fill:#455a64"></path><path d="M348,332.91c-.4-.3-1,.07-1.36.25a11.86,11.86,0,0,0-2.4,1.64,20.13,20.13,0,0,0-3.83,4.55,40.78,40.78,0,0,0-4.51,9.15,21.55,21.55,0,0,0-.63,2.22c0,.09,0,.18-.07.28a.16.16,0,0,0,.25,0c.09-.22.19-.42.3-.63a.14.14,0,0,1,0-.06,25.33,25.33,0,0,1,2.26-4.15,57.73,57.73,0,0,1,4.74-5.62C343.4,339.79,349.37,333.93,348,332.91Zm-.51,1.69a27.17,27.17,0,0,1-3.75,4.55c-1.31,1.47-2.64,2.92-3.93,4.41a27.18,27.18,0,0,0-2.77,3.78,21.94,21.94,0,0,0-1.74,3.5,31.2,31.2,0,0,1,1.24-3.64s0,0,0,0a55.36,55.36,0,0,1,3.07-6.11.59.59,0,0,1,0-.08,25.63,25.63,0,0,1,3.5-4.89,14.47,14.47,0,0,1,2.5-2.12c1-.67,2-1.11,2.21-.78S347.76,334.09,347.47,334.6Z" style="fill:#fff"></path><path d="M339.77,341.13c-.95,2.05-1.86,4.13-2.75,6.21-.43,1-.85,2-1.27,2.93a.14.14,0,0,0,0,.06l-.46,1.06a64.4,64.4,0,0,0-3.71,9.83,29.18,29.18,0,0,0-.76,5.47l0,.57h0c0,.11,0,.21,0,.32v.17c-.06,1.59,0,3.19,0,4.75,0,2.17.22,4.32.43,6.47a1.11,1.11,0,0,0,0,.19c0,.1,0,.2,0,.3s0,.09,0,.15a2.45,2.45,0,0,1,0,.27c.07.69.13,1.38.19,2.08h-.66a42.57,42.57,0,0,1-.8-6.4.62.62,0,0,1,0-.13l0-.63c0-.26,0-.52,0-.77,0-.63,0-1.24-.05-1.85a45.92,45.92,0,0,1,.76-10.73,2.86,2.86,0,0,0,.07-.28l0-.12a1.6,1.6,0,0,1,0-.21l.08-.33c.06-.2.11-.39.17-.58l.05-.17a68.94,68.94,0,0,1,3.66-8.83c.24-.53.48-1,.73-1.56l.42-.87.64-1.3s0,0,0,0c1-2,2.07-4.06,3.07-6.11A.09.09,0,0,1,339.77,341.13Z" style="fill:#455a64"></path></g><g id="freepik--Bridge--inject-25"><path d="M168.54,295.1c-.16-5.69-.21-11.38-.25-17.07s0-11.39,0-17.08.13-11.38.25-17.07l.21-8.53c.11-2.85.18-5.69.32-8.54.09,2.85.11,5.69.17,8.54l.07,8.54c0,5.69,0,11.38,0,17.07s-.13,11.38-.26,17.07S168.79,289.41,168.54,295.1Z" style="fill:#263238"></path><path d="M179.53,290.2c-.15-6.95-.19-13.89-.21-20.83l.06-20.83.28-20.83.23-10.41c.11-3.47.19-6.94.33-10.41.08,3.47.1,6.94.16,10.41l.05,10.42-.06,20.83-.28,20.82C180,276.31,179.79,283.26,179.53,290.2Z" style="fill:#263238"></path><path d="M189.13,286.13C189,277.76,189,269.39,189,261l.09-25.12.32-25.11.25-12.56.35-12.56.14,12.56,0,12.56L190,235.9,189.72,261C189.57,269.39,189.4,277.76,189.13,286.13Z" style="fill:#263238"></path><path d="M198.72,282.09c-.12-10.39-.13-20.78-.12-31.18l.14-31.18.37-31.17.27-15.59.37-15.59.12,15.59v15.59l-.14,31.18-.38,31.18C199.2,261.31,199,271.7,198.72,282.09Z" style="fill:#263238"></path><polygon points="208.32 278.08 208.25 257.56 208.28 237.04 208.5 196 208.95 154.96 209.26 134.45 209.67 113.93 209.75 134.45 209.72 154.97 209.5 196.01 209.04 237.04 208.73 257.56 208.32 278.08" style="fill:#263238"></polygon><polygon points="217.91 274.09 217.81 246.35 217.82 218.61 217.99 163.13 218.4 107.66 218.69 79.92 219.08 52.19 219.18 79.92 219.17 107.66 218.99 163.14 218.58 218.61 218.29 246.35 217.91 274.09" style="fill:#263238"></polygon><polygon points="227.33 270.22 227.31 245.92 227.39 221.62 227.72 173.03 228.27 124.44 228.64 100.14 229.1 75.85 229.13 100.15 229.04 124.45 228.71 173.04 228.15 221.63 227.79 245.92 227.33 270.22" style="fill:#263238"></polygon><polygon points="236.93 266.24 236.88 244.99 236.93 223.75 237.2 181.27 237.71 138.79 238.04 117.55 238.48 96.31 238.53 117.55 238.47 138.79 238.2 181.28 237.7 223.76 237.36 245 236.93 266.24" style="fill:#263238"></polygon><path d="M246.52,262.31c-.1-11.57-.09-23.14-.06-34.7l.2-34.7.43-34.7.3-17.35.4-17.35.09,17.35,0,17.35-.2,34.71-.44,34.69C247,239.18,246.84,250.75,246.52,262.31Z" style="fill:#263238"></path><path d="M256.26,258.35c-.11-9.48-.1-19-.08-28.44l.19-28.44.42-28.44.29-14.22.4-14.21.09,14.22V173l-.19,28.44L257,229.92C256.76,239.4,256.56,248.87,256.26,258.35Z" style="fill:#263238"></path><path d="M265.92,254.44c-.08-6.78,0-13.57,0-20.36s.19-13.57.28-20.35l.52-20.35.34-10.17c.15-3.39.26-6.79.44-10.18.05,3.4,0,6.79.05,10.19l-.06,10.17-.29,20.36c-.17,6.78-.3,13.57-.51,20.35S266.26,247.66,265.92,254.44Z" style="fill:#263238"></path><path d="M275.56,250.57c-.1-5.5-.09-11-.06-16.49s.14-11,.2-16.49.25-11,.44-16.48l.3-8.23c.14-2.75.24-5.5.41-8.24.06,2.75,0,5.5.08,8.25l0,8.24c0,5.49-.14,11-.21,16.48s-.25,11-.44,16.48S275.87,245.08,275.56,250.57Z" style="fill:#263238"></path><path d="M285.19,246.71c-.12-4-.14-8-.14-12s.08-8,.11-12,.2-8,.35-12l.26-6c.12-2,.21-4,.36-6,.08,2,.09,4,.13,6l0,6c0,4-.08,8-.12,12s-.19,8-.35,12S285.48,242.72,285.19,246.71Z" style="fill:#263238"></path><path d="M294.83,242.88c-.15-2.69-.2-5.37-.22-8.06s0-5.37,0-8.06.13-5.37.27-8l.22-4c.11-1.34.18-2.68.32-4,.09,1.34.11,2.69.17,4l.06,4c0,2.69,0,5.37,0,8.06s-.13,5.37-.28,8.05S295.09,240.2,294.83,242.88Z" style="fill:#263238"></path><path d="M304.47,239.07a105,105,0,0,1,.4-20.47,105,105,0,0,1-.4,20.47Z" style="fill:#263238"></path><path d="M314.1,235.29a31.39,31.39,0,0,1,.22-11.16,31.39,31.39,0,0,1-.22,11.16Z" style="fill:#263238"></path><path d="M323.74,231.52a7.2,7.2,0,0,1,.1-5.27,7.19,7.19,0,0,1-.1,5.27Z" style="fill:#263238"></path><path d="M333.29,227.81a4,4,0,0,1-.5-2,3.84,3.84,0,0,1,.5-2,3.74,3.74,0,0,1,.5,2A3.85,3.85,0,0,1,333.29,227.81Z" style="fill:#263238"></path><path d="M342.89,224.11a12.26,12.26,0,0,1,.2-6.93,12.26,12.26,0,0,1-.2,6.93Z" style="fill:#263238"></path><path d="M351.83,220.68a47.33,47.33,0,0,1,.23-13.79,41,41,0,0,1,.38,6.9A42.11,42.11,0,0,1,351.83,220.68Z" style="fill:#263238"></path><path d="M361.43,217c-.17-2.24-.23-4.47-.27-6.71s0-4.47,0-6.7.1-4.47.23-6.7l.19-3.35c.11-1.12.17-2.23.31-3.35.09,1.12.12,2.24.18,3.36l.09,3.35c0,2.24,0,4.47,0,6.7s-.11,4.47-.23,6.7S361.67,214.79,361.43,217Z" style="fill:#263238"></path><path d="M371,213.34c-.14-3.72-.17-7.44-.19-11.16s0-7.44.08-11.16.15-7.43.31-11.15l.23-5.58c.12-1.86.2-3.71.34-5.57.09,1.86.1,3.72.15,5.58l.05,5.58c0,3.72,0,7.44-.08,11.16s-.16,7.44-.31,11.15S371.3,209.63,371,213.34Z" style="fill:#263238"></path><path d="M380.63,209.8c-.17-5.67-.22-11.34-.27-17s0-11.33,0-17,.11-11.34.23-17l.2-8.5c.1-2.84.17-5.67.3-8.5.09,2.83.12,5.66.19,8.5l.08,8.5c0,5.67,0,11.34,0,17s-.11,11.33-.23,17S380.88,204.13,380.63,209.8Z" style="fill:#263238"></path><path d="M388.86,206.69c-.14-7.92-.17-15.84-.19-23.76l.08-23.77.31-23.76.23-11.88.34-11.88.15,11.89.05,11.88-.08,23.76-.31,23.76C389.3,190.85,389.14,198.77,388.86,206.69Z" style="fill:#263238"></path><path d="M395.73,204.14c0-9.34.08-18.69.19-28l.45-28,.69-28,.42-14,.53-14,0,14-.14,14-.46,28-.69,28C396.41,185.47,396.13,194.8,395.73,204.14Z" style="fill:#263238"></path><path d="M402.61,201.6c-.06-7.12,0-14.25.05-21.37l.33-21.36.55-21.36.36-10.68c.16-3.56.28-7.12.47-10.68,0,3.57,0,7.13,0,10.69l-.08,10.68L404,158.89l-.56,21.36C403.2,187.37,403,194.48,402.61,201.6Z" style="fill:#263238"></path><path d="M408.1,199.58c-.09-5.28-.08-10.57-.05-15.85s.15-10.56.22-15.84.25-10.57.44-15.84l.31-7.92c.14-2.64.24-5.28.41-7.92.06,2.64.05,5.29.08,7.93l0,7.92c0,5.28-.14,10.57-.21,15.85s-.26,10.56-.45,15.84S408.42,194.3,408.1,199.58Z" style="fill:#263238"></path><path d="M413.86,197.48c-.16-3.86-.2-7.72-.23-11.57s0-7.72,0-11.57.13-7.72.27-11.57l.21-5.78c.11-1.93.19-3.86.33-5.78.08,1.93.11,3.85.16,5.78l.07,5.79c0,3.86,0,7.71,0,11.57s-.14,7.71-.28,11.57S414.11,193.63,413.86,197.48Z" style="fill:#263238"></path><path d="M419.31,195.5c-.17-2.66-.23-5.33-.28-8s0-5.32,0-8,.09-5.32.22-8l.19-4c.11-1.33.17-2.66.3-4,.1,1.33.13,2.66.19,4l.09,4c.05,2.67,0,5.33,0,8s-.1,5.32-.23,8S419.55,192.84,419.31,195.5Z" style="fill:#263238"></path><path d="M424.65,193.58a94.94,94.94,0,0,1-.28-10.39,92.47,92.47,0,0,1,.72-10.36,110.13,110.13,0,0,1-.44,20.75Z" style="fill:#263238"></path><path d="M430.3,191.56a38.39,38.39,0,0,1,.2-12.35,38.39,38.39,0,0,1-.2,12.35Z" style="fill:#263238"></path><path d="M156.34,300.27c-.17-4.5-.23-9-.27-13.5s0-9,0-13.5.11-9,.23-13.5l.19-6.74c.1-2.25.17-4.5.3-6.75.1,2.25.13,4.5.19,6.75l.09,6.75c0,4.5,0,9,0,13.5s-.11,9-.23,13.5S156.58,295.77,156.34,300.27Z" style="fill:#263238"></path><path d="M142.89,306.31c-.21-3.53-.3-7.06-.38-10.59s-.11-7.05-.12-10.58,0-7.06.12-10.59l.13-5.29c.09-1.76.14-3.53.25-5.29.11,1.76.16,3.53.24,5.29l.14,5.29c.1,3.53.11,7.06.12,10.59s0,7.06-.12,10.58S143.1,302.78,142.89,306.31Z" style="fill:#263238"></path><path d="M128.74,312.25c-.18-2.77-.25-5.54-.31-8.32s-.06-5.54-.05-8.31.07-5.54.19-8.31l.17-4.16c.09-1.38.15-2.77.28-4.15.1,1.38.14,2.77.21,4.15l.1,4.16c.07,2.77.06,5.55,0,8.32s-.07,5.54-.18,8.31S129,309.48,128.74,312.25Z" style="fill:#263238"></path><path d="M115,318.19c-.19-2.19-.27-4.38-.33-6.56s-.07-4.38-.06-6.56.06-4.38.17-6.56l.16-3.28c.09-1.09.15-2.18.27-3.28.11,1.1.15,2.19.22,3.29l.11,3.28c.08,2.18.07,4.37.07,6.56s-.07,4.37-.18,6.55S115.17,316,115,318.19Z" style="fill:#263238"></path><path d="M101.12,324.33a98,98,0,0,1-.4-10.55,95.51,95.51,0,0,1,.59-10.55,100.76,100.76,0,0,1,.41,10.56A98,98,0,0,1,101.12,324.33Z" style="fill:#263238"></path><path d="M87.35,330.51A76.64,76.64,0,0,1,87.49,313a65.68,65.68,0,0,1,.43,8.74A67.39,67.39,0,0,1,87.35,330.51Z" style="fill:#263238"></path><path d="M73.55,336.79a52.46,52.46,0,0,1-.43-7.71,51,51,0,0,1,.56-7.69,52.4,52.4,0,0,1,.43,7.7A51.06,51.06,0,0,1,73.55,336.79Z" style="fill:#263238"></path><path d="M59.75,343.07a46,46,0,0,1-.44-7.11,43.68,43.68,0,0,1,.56-7.11,43.53,43.53,0,0,1,.44,7.11A44.83,44.83,0,0,1,59.75,343.07Z" style="fill:#263238"></path><path d="M46,349.41a53.25,53.25,0,0,1,.06-14.56,48.2,48.2,0,0,1,.47,7.28A48.1,48.1,0,0,1,46,349.41Z" style="fill:#263238"></path><path d="M43.77,335.68c13.76-5.2,26.69-12.32,39-20.2a270,270,0,0,0,34.81-26.79,274.4,274.4,0,0,0,54.56-68.4c1-1.56,1.8-3.19,2.65-4.81l2.56-4.86,2.55-4.86,2.31-5,2.31-5,1.15-2.5.57-1.24.52-1.28,4.09-10.19,1-2.55c.34-.86.61-1.73.91-2.6l1.78-5.19,1.79-5.2.89-2.6.76-2.64c2-7.06,4.17-14.06,5.71-21.23l1.26-5.35.63-2.68.32-1.34.25-1.35,2-10.82,1-5.41c.29-1.82.5-3.64.75-5.45l1.45-10.92.37-2.72c.11-.91.17-1.83.25-2.74l.48-5.49,1-11c.25-3.66.32-7.34.49-11l.47-11c-.13,7.35-.18,14.7-.43,22l-.74,11-.36,5.51c-.07.92-.11,1.84-.2,2.75l-.32,2.74-1.31,11c-.23,1.82-.42,3.66-.67,5.48l-.93,5.44-1.86,10.88-.23,1.36-.3,1.35-.6,2.7-1.21,5.39a303.67,303.67,0,0,1-31.32,82.35l-5.63,9.52c-2,3.11-4.05,6.16-6.07,9.25l-1.52,2.31c-.52.76-1.08,1.49-1.62,2.24l-3.26,4.46c-1.1,1.48-2.16,3-3.29,4.45l-3.46,4.31a260.88,260.88,0,0,1-30.42,32A269.91,269.91,0,0,1,83.34,316.3c-6.29,3.83-12.7,7.46-19.28,10.75A162.36,162.36,0,0,1,43.77,335.68Z" style="fill:#263238"></path><path d="M222.84,51.75q6.81,22,14.73,43.55c5.24,14.39,10.84,28.66,17,42.69a440.74,440.74,0,0,0,20.27,41.14,216.58,216.58,0,0,0,12.32,19.29,104.41,104.41,0,0,0,15,17,49.09,49.09,0,0,0,9.17,6.51,27,27,0,0,0,10.53,3.23,21.89,21.89,0,0,0,10.74-1.91,35.34,35.34,0,0,0,9.29-6.18c5.6-5.05,10.11-11.27,14.11-17.72a188.53,188.53,0,0,0,10.61-20.27,365.28,365.28,0,0,0,15.88-43q6.79-21.95,11.73-44.43c-1.41,7.53-3.08,15-4.89,22.47s-3.77,14.87-5.9,22.24A363.67,363.67,0,0,1,368,179.75a172.13,172.13,0,0,1-10.53,20.54c-4,6.56-8.59,12.92-14.37,18.18a37.22,37.22,0,0,1-9.76,6.53,23.91,23.91,0,0,1-11.63,2.11,28.78,28.78,0,0,1-11.31-3.42,49.73,49.73,0,0,1-9.56-6.73,106.2,106.2,0,0,1-15.27-17.43A216.35,216.35,0,0,1,273.22,180a405.49,405.49,0,0,1-20.1-41.43A753.25,753.25,0,0,1,222.84,51.75Z" style="fill:#263238"></path><path d="M400,93.54c1.7,8.19,3.6,16.33,5.59,24.43s4.21,16.14,6.76,24.06q1.88,6,4.12,11.77c1.47,3.88,3.12,7.7,5,11.41a62.64,62.64,0,0,0,6.47,10.56,22.23,22.23,0,0,0,9.57,7.66,16.56,16.56,0,0,1-5.65-2.74,30.14,30.14,0,0,1-4.67-4.29,56.92,56.92,0,0,1-7.1-10.47,136.89,136.89,0,0,1-9.6-23.29c-2.54-8-4.64-16.13-6.37-24.32S401,101.86,400,93.54Z" style="fill:#263238"></path><polygon points="387.67 161.88 390.88 161.88 394.57 162.21 391.37 162.21 387.67 161.88" style="fill:#00D1FF"></polygon><polygon points="391.37 114.02 394.57 114.02 397.42 114.27 394.21 114.27 391.37 114.02" style="fill:#00D1FF"></polygon><rect x="394.42" y="176.8" width="3.21" height="77.16" style="fill:#00D1FF"></rect><rect x="394.42" y="176.8" width="3.21" height="77.16" style="opacity:0.2"></rect><rect x="394.42" y="244.43" width="3.21" height="4.6" style="fill:#00D1FF"></rect><rect x="394.42" y="224.97" width="3.21" height="4.6" style="fill:#00D1FF"></rect><rect x="396.98" y="145.64" width="3.21" height="14.08" style="fill:#00D1FF"></rect><rect x="396.98" y="145.64" width="3.21" height="14.08" style="opacity:0.2"></rect><rect x="396.98" y="119.89" width="3.21" height="14.07" style="fill:#00D1FF"></rect><rect x="396.98" y="119.89" width="3.21" height="14.07" style="opacity:0.2"></rect><rect x="398.78" y="99.04" width="3.21" height="10.8" style="fill:#00D1FF"></rect><rect x="398.78" y="99.04" width="3.21" height="10.8" style="opacity:0.2"></rect><rect x="398.78" y="92.06" width="3.21" height="2.6" style="fill:#00D1FF"></rect><rect x="398.78" y="92.06" width="3.21" height="2.6" style="opacity:0.2"></rect><polygon points="399.35 172.99 402.56 172.99 397.63 176.8 394.42 176.8 399.35 172.99" style="fill:#00D1FF"></polygon><polygon points="399.35 172.99 402.56 172.99 397.63 176.8 394.42 176.8 399.35 172.99" style="opacity:0.2"></polygon><polygon points="394.42 229.56 397.63 229.56 402.57 230 399.36 230 394.42 229.56" style="fill:#00D1FF"></polygon><polygon points="394.42 224.97 397.63 224.97 402.57 225.4 399.36 225.4 394.42 224.97" style="fill:#00D1FF"></polygon><polygon points="399.37 244.87 402.57 244.87 397.63 249.03 394.42 249.03 399.37 244.87" style="fill:#00D1FF"></polygon><polygon points="394.42 210.1 397.63 210.1 402.57 210.53 399.37 210.53 394.42 210.1" style="fill:#00D1FF"></polygon><polygon points="391.37 162.21 394.57 162.21 405.17 163.14 401.96 163.14 391.37 162.21" style="fill:#00D1FF"></polygon><polygon points="402.41 218.24 405.62 218.24 408.08 220.75 404.88 220.75 402.41 218.24" style="fill:#00D1FF"></polygon><polygon points="404.88 220.75 408.08 220.75 402.57 225.4 399.36 225.4 404.88 220.75" style="fill:#00D1FF"></polygon><polygon points="404.88 220.75 408.08 220.75 402.57 225.4 399.36 225.4 404.88 220.75" style="opacity:0.2"></polygon><polygon points="394.42 224.97 402.41 218.24 404.88 220.75 399.36 225.4 394.42 224.97" style="fill:#00D1FF"></polygon><polygon points="399.36 230 402.57 230 408.08 235.62 404.88 235.62 399.36 230" style="fill:#00D1FF"></polygon><polygon points="399.36 230 402.57 230 408.08 235.62 404.88 235.62 399.36 230" style="opacity:0.2"></polygon><polygon points="402.41 237.7 405.62 237.7 408.09 240.22 404.88 240.22 402.41 237.7" style="fill:#00D1FF"></polygon><polygon points="394.42 244.43 402.41 237.7 404.88 240.22 399.37 244.87 394.42 249.03 394.42 244.43" style="fill:#00D1FF"></polygon><polygon points="399.37 210.53 402.57 210.53 408.09 216.16 404.88 216.16 399.37 210.53" style="fill:#00D1FF"></polygon><polygon points="399.37 210.53 402.57 210.53 408.09 216.16 404.88 216.16 399.37 210.53" style="opacity:0.2"></polygon><polygon points="394.21 114.27 397.42 114.27 409.74 115.36 406.53 115.36 394.21 114.27" style="fill:#00D1FF"></polygon><polygon points="404.88 216.16 408.09 216.16 410.56 218.67 407.35 218.67 404.88 216.16" style="fill:#00D1FF"></polygon><polygon points="404.88 235.62 408.08 235.62 410.56 238.14 407.35 238.14 404.88 235.62" style="fill:#00D1FF"></polygon><polygon points="399.36 225.4 402.57 225.4 413.6 226.38 410.39 226.38 399.36 225.4" style="fill:#00D1FF"></polygon><polygon points="399.36 225.4 402.57 225.4 413.6 226.38 410.39 226.38 399.36 225.4" style="opacity:0.2"></polygon><polygon points="399.37 244.87 402.57 244.87 413.6 245.84 410.4 245.84 399.37 244.87" style="fill:#00D1FF"></polygon><polygon points="399.37 244.87 402.57 244.87 413.6 245.84 410.4 245.84 399.37 244.87" style="opacity:0.2"></polygon><polygon points="398.78 109.84 401.99 109.84 414.19 110.91 410.98 110.91 398.78 109.84" style="fill:#00D1FF"></polygon><polygon points="398.78 109.84 401.99 109.84 414.19 110.91 410.98 110.91 398.78 109.84" style="opacity:0.2"></polygon><polygon points="398.78 94.66 401.99 94.66 414.19 95.74 410.98 95.74 398.78 94.66" style="fill:#00D1FF"></polygon><polygon points="398.78 94.66 401.99 94.66 414.19 95.74 410.98 95.74 398.78 94.66" style="opacity:0.2"></polygon><polygon points="396.98 159.72 400.19 159.72 415.98 161.11 412.77 161.11 396.98 159.72" style="fill:#00D1FF"></polygon><polygon points="396.98 159.72 400.19 159.72 415.98 161.11 412.77 161.11 396.98 159.72" style="opacity:0.2"></polygon><polygon points="396.98 133.96 400.19 133.96 415.98 135.36 412.77 135.36 396.98 133.96" style="fill:#00D1FF"></polygon><polygon points="396.98 133.96 400.19 133.96 415.98 135.36 412.77 135.36 396.98 133.96" style="opacity:0.2"></polygon><polygon points="415.33 231.41 418.54 231.41 410.56 238.14 407.35 238.14 415.33 231.41" style="fill:#00D1FF"></polygon><polygon points="415.33 231.41 418.54 231.41 410.56 238.14 407.35 238.14 415.33 231.41" style="opacity:0.2"></polygon><polygon points="410.39 230.98 415.33 231.41 407.35 238.14 404.88 235.62 410.39 230.98" style="fill:#00D1FF"></polygon><polygon points="407.35 218.67 415.33 226.81 410.39 226.38 404.88 220.75 402.41 218.24 394.42 210.1 399.37 210.53 404.88 216.16 407.35 218.67" style="fill:#00D1FF"></polygon><polygon points="407.35 218.67 410.56 218.67 418.54 226.81 415.33 226.81 407.35 218.67" style="fill:#00D1FF"></polygon><polygon points="407.35 218.67 410.56 218.67 418.54 226.81 415.33 226.81 407.35 218.67" style="opacity:0.2"></polygon><polygon points="415.33 211.94 418.54 211.94 410.56 218.67 407.35 218.67 415.33 211.94" style="fill:#00D1FF"></polygon><polygon points="415.33 211.94 418.54 211.94 410.56 218.67 407.35 218.67 415.33 211.94" style="opacity:0.2"></polygon><polygon points="410.4 211.51 415.33 211.94 407.35 218.67 404.88 216.16 410.4 211.51" style="fill:#00D1FF"></polygon><polygon points="394.42 244.43 394.42 249.03 399.37 244.87 410.4 245.84 415.33 250.88 394.42 249.03 394.42 244.43" style="fill:#00D1FF"></polygon><polygon points="407.35 238.14 410.56 238.14 418.54 246.28 415.33 246.28 407.35 238.14" style="fill:#00D1FF"></polygon><polygon points="407.35 238.14 410.56 238.14 418.54 246.28 415.33 246.28 407.35 238.14" style="opacity:0.2"></polygon><polygon points="404.88 240.22 408.09 240.22 402.57 244.87 399.37 244.87 404.88 240.22" style="fill:#00D1FF"></polygon><polygon points="404.88 240.22 408.09 240.22 402.57 244.87 399.37 244.87 404.88 240.22" style="opacity:0.2"></polygon><polygon points="394.42 224.97 394.42 229.56 399.36 230 404.88 235.62 407.35 238.14 415.33 246.28 415.33 250.88 410.4 245.84 404.88 240.22 402.41 237.7 394.42 229.56 394.42 224.97" style="fill:#00D1FF"></polygon><polygon points="394.42 224.97 399.36 225.4 410.39 226.38 415.33 226.81 415.33 231.41 410.39 230.98 399.36 230 394.42 229.56 394.42 224.97" style="fill:#00D1FF"></polygon><polygon points="394.42 205.5 397.63 205.5 418.54 207.35 415.33 207.35 394.42 205.5" style="fill:#00D1FF"></polygon><polygon points="394.42 205.5 397.63 205.5 418.54 207.35 415.33 207.35 394.42 205.5" style="opacity:0.2"></polygon><polygon points="394.42 205.5 415.33 207.35 415.33 211.94 410.4 211.51 399.37 210.53 394.42 210.1 394.42 205.5" style="fill:#00D1FF"></polygon><polygon points="406.53 115.36 409.74 115.36 421.6 116.41 418.39 116.41 406.53 115.36" style="fill:#00D1FF"></polygon><polygon points="406.53 115.36 409.74 115.36 421.6 116.41 418.39 116.41 406.53 115.36" style="opacity:0.2"></polygon><path d="M411,93.14l4.56.4v22.61l-9-.79-12.32-1.09V91.66l4.57.4v2.6L411,95.74Zm0,17.77V100.12L398.78,99v10.8l12.2,1.07" style="fill:#00D1FF"></path><polygon points="401.96 163.14 405.17 163.14 425.29 164.92 422.08 164.92 401.96 163.14" style="fill:#00D1FF"></polygon><polygon points="401.96 163.14 405.17 163.14 425.29 164.92 422.08 164.92 401.96 163.14" style="opacity:0.2"></polygon><path d="M406.53,115.36l11.87,1v48.18L402,163.14l-10.59-.94V114l2.84.25Zm6.24,45.75V147L397,145.64v14.08l15.79,1.39m0-25.75V121.29L397,119.89V134l15.79,1.4" style="fill:#00D1FF"></path><polyline points="415.34 178.64 410.5 173.97 399.35 172.99 394.42 176.79 394.42 253.96 387.67 253.35 387.67 161.88 391.37 162.2 401.96 163.14 415.34 164.32" style="fill:#00D1FF"></polyline><polygon points="200.23 203.64 207.19 203.64 215.2 204.35 208.24 204.35 200.23 203.64" style="fill:#00D1FF"></polygon><polygon points="208.24 99.81 215.2 99.81 221.37 100.36 214.41 100.36 208.24 99.81" style="fill:#00D1FF"></polygon><rect x="214.87" y="236" width="6.96" height="167.38" style="fill:#00D1FF"></rect><rect x="214.87" y="236" width="6.96" height="167.38" style="opacity:0.2"></rect><rect x="214.87" y="382.73" width="6.96" height="9.98" style="fill:#00D1FF"></rect><rect x="214.87" y="340.5" width="6.96" height="9.97" style="fill:#00D1FF"></rect><rect x="220.42" y="168.42" width="6.96" height="30.54" style="fill:#00D1FF"></rect><rect x="220.42" y="168.42" width="6.96" height="30.54" style="opacity:0.2"></rect><rect x="220.42" y="112.56" width="6.96" height="30.53" style="fill:#00D1FF"></rect><rect x="220.42" y="112.56" width="6.96" height="30.53" style="opacity:0.2"></rect><rect x="224.32" y="67.31" width="6.96" height="23.43" style="fill:#00D1FF"></rect><rect x="224.32" y="67.31" width="6.96" height="23.43" style="opacity:0.2"></rect><polygon points="214.41 51.31 221.37 51.31 231.28 52.19 224.32 52.19 214.41 51.31" style="fill:#00D1FF"></polygon><polygon points="214.41 51.31 221.37 51.31 231.28 52.19 224.32 52.19 214.41 51.31" style="opacity:0.2"></polygon><rect x="224.32" y="52.19" width="6.96" height="5.63" style="fill:#00D1FF"></rect><rect x="224.32" y="52.19" width="6.96" height="5.63" style="opacity:0.2"></rect><polygon points="225.56 227.74 232.52 227.74 221.83 236 214.87 236 225.56 227.74" style="fill:#00D1FF"></polygon><polygon points="225.56 227.74 232.52 227.74 221.83 236 214.87 236 225.56 227.74" style="opacity:0.2"></polygon><polygon points="214.87 350.47 221.83 350.47 232.54 351.42 225.58 351.42 214.87 350.47" style="fill:#00D1FF"></polygon><polygon points="214.87 340.5 221.83 340.5 232.54 341.45 225.58 341.45 214.87 340.5" style="fill:#00D1FF"></polygon><polygon points="225.59 383.68 232.55 383.68 221.83 392.71 214.87 392.71 225.59 383.68" style="fill:#00D1FF"></polygon><polygon points="214.87 308.25 221.83 308.25 232.55 309.19 225.59 309.19 214.87 308.25" style="fill:#00D1FF"></polygon><polygon points="208.24 204.35 215.2 204.35 238.18 206.38 231.22 206.38 208.24 204.35" style="fill:#00D1FF"></polygon><polygon points="232.19 325.9 239.15 325.9 244.51 331.36 237.55 331.36 232.19 325.9" style="fill:#00D1FF"></polygon><polygon points="237.55 331.36 244.51 331.36 232.54 341.45 225.58 341.45 237.55 331.36" style="fill:#00D1FF"></polygon><polygon points="237.55 331.36 244.51 331.36 232.54 341.45 225.58 341.45 237.55 331.36" style="opacity:0.2"></polygon><polygon points="214.87 340.5 232.19 325.9 237.55 331.36 225.58 341.45 214.87 340.5" style="fill:#00D1FF"></polygon><polygon points="225.58 351.42 232.54 351.42 244.51 363.62 237.55 363.62 225.58 351.42" style="fill:#00D1FF"></polygon><polygon points="225.58 351.42 232.54 351.42 244.51 363.62 237.55 363.62 225.58 351.42" style="opacity:0.2"></polygon><polygon points="232.19 368.13 239.15 368.13 244.51 373.6 237.55 373.6 232.19 368.13" style="fill:#00D1FF"></polygon><polygon points="214.87 382.73 232.19 368.13 237.55 373.6 225.59 383.68 214.87 392.71 214.87 382.73" style="fill:#00D1FF"></polygon><polygon points="225.59 309.19 232.55 309.19 244.51 321.39 237.55 321.39 225.59 309.19" style="fill:#00D1FF"></polygon><polygon points="225.59 309.19 232.55 309.19 244.51 321.39 237.55 321.39 225.59 309.19" style="opacity:0.2"></polygon><polygon points="214.41 100.36 221.37 100.36 248.09 102.72 241.13 102.72 214.41 100.36" style="fill:#00D1FF"></polygon><polygon points="237.55 321.39 244.51 321.39 249.87 326.85 242.91 326.85 237.55 321.39" style="fill:#00D1FF"></polygon><polygon points="237.55 363.62 244.51 363.62 249.87 369.08 242.91 369.08 237.55 363.62" style="fill:#00D1FF"></polygon><polygon points="225.58 341.45 232.54 341.45 256.47 343.56 249.51 343.56 225.58 341.45" style="fill:#00D1FF"></polygon><polygon points="225.58 341.45 232.54 341.45 256.47 343.56 249.51 343.56 225.58 341.45" style="opacity:0.2"></polygon><polygon points="225.59 383.68 232.55 383.68 256.48 385.8 249.52 385.8 225.59 383.68" style="fill:#00D1FF"></polygon><polygon points="225.59 383.68 232.55 383.68 256.48 385.8 249.52 385.8 225.59 383.68" style="opacity:0.2"></polygon><polygon points="224.32 90.74 231.28 90.74 257.75 93.07 250.79 93.07 224.32 90.74" style="fill:#00D1FF"></polygon><polygon points="224.32 90.74 231.28 90.74 257.75 93.07 250.79 93.07 224.32 90.74" style="opacity:0.2"></polygon><polygon points="224.32 57.82 231.28 57.82 257.75 60.16 250.79 60.16 224.32 57.82" style="fill:#00D1FF"></polygon><polygon points="224.32 57.82 231.28 57.82 257.75 60.16 250.79 60.16 224.32 57.82" style="opacity:0.2"></polygon><polygon points="220.42 198.96 227.38 198.96 261.63 201.98 254.67 201.98 220.42 198.96" style="fill:#00D1FF"></polygon><polygon points="220.42 198.96 227.38 198.96 261.63 201.98 254.67 201.98 220.42 198.96" style="opacity:0.2"></polygon><polygon points="220.42 143.09 227.38 143.09 261.63 146.11 254.67 146.11 220.42 143.09" style="fill:#00D1FF"></polygon><polygon points="220.42 143.09 227.38 143.09 261.63 146.11 254.67 146.11 220.42 143.09" style="opacity:0.2"></polygon><polygon points="260.23 354.49 267.19 354.49 249.87 369.08 242.91 369.08 260.23 354.49" style="fill:#00D1FF"></polygon><polygon points="260.23 354.49 267.19 354.49 249.87 369.08 242.91 369.08 260.23 354.49" style="opacity:0.2"></polygon><polygon points="249.51 353.54 256.47 353.54 267.19 354.49 260.23 354.49 249.51 353.54" style="fill:#00D1FF"></polygon><polygon points="249.51 353.54 260.23 354.49 242.91 369.08 237.55 363.62 249.51 353.54" style="fill:#00D1FF"></polygon><polygon points="249.51 343.56 256.47 343.56 267.19 344.51 260.23 344.51 249.51 343.56" style="fill:#00D1FF"></polygon><polygon points="242.91 326.85 260.23 344.51 249.51 343.56 237.55 331.36 232.19 325.9 214.87 308.25 225.59 309.19 237.55 321.39 242.91 326.85" style="fill:#00D1FF"></polygon><polygon points="242.91 326.85 249.87 326.85 267.19 344.51 260.23 344.51 242.91 326.85" style="fill:#00D1FF"></polygon><polygon points="242.91 326.85 249.87 326.85 267.19 344.51 260.23 344.51 242.91 326.85" style="opacity:0.2"></polygon><polygon points="249.52 311.3 256.48 311.3 267.19 312.25 260.23 312.25 249.52 311.3" style="fill:#00D1FF"></polygon><polygon points="260.23 312.25 267.19 312.25 249.87 326.85 242.91 326.85 260.23 312.25" style="fill:#00D1FF"></polygon><polygon points="260.23 312.25 267.19 312.25 249.87 326.85 242.91 326.85 260.23 312.25" style="opacity:0.2"></polygon><polygon points="249.52 311.3 260.23 312.25 242.91 326.85 237.55 321.39 249.52 311.3" style="fill:#00D1FF"></polygon><polygon points="249.52 385.8 256.48 385.8 267.19 396.71 260.23 396.71 249.52 385.8" style="fill:#00D1FF"></polygon><polygon points="214.87 382.73 214.87 392.71 225.59 383.68 249.52 385.8 260.23 396.71 214.87 392.71 214.87 382.73" style="fill:#00D1FF"></polygon><rect x="260.23" y="386.74" width="6.96" height="9.97" style="fill:#00D1FF"></rect><polygon points="242.91 369.08 249.87 369.08 267.19 386.74 260.23 386.74 242.91 369.08" style="fill:#00D1FF"></polygon><polygon points="242.91 369.08 249.87 369.08 267.19 386.74 260.23 386.74 242.91 369.08" style="opacity:0.2"></polygon><polygon points="237.55 373.6 244.51 373.6 232.55 383.68 225.59 383.68 237.55 373.6" style="fill:#00D1FF"></polygon><polygon points="237.55 373.6 244.51 373.6 232.55 383.68 225.59 383.68 237.55 373.6" style="opacity:0.2"></polygon><polygon points="214.87 340.5 214.87 350.47 225.58 351.42 237.55 363.62 242.91 369.08 260.23 386.74 260.23 396.71 249.52 385.8 237.55 373.6 232.19 368.13 214.87 350.47 214.87 340.5" style="fill:#00D1FF"></polygon><polygon points="214.87 340.5 225.58 341.45 249.51 343.56 260.23 344.51 260.23 354.49 249.51 353.54 225.58 351.42 214.87 350.47 214.87 340.5" style="fill:#00D1FF"></polygon><rect x="260.23" y="344.51" width="6.96" height="9.98" style="fill:#00D1FF"></rect><polygon points="214.87 298.26 221.83 298.26 267.19 302.28 260.23 302.28 214.87 298.26" style="fill:#00D1FF"></polygon><polygon points="214.87 298.26 221.83 298.26 267.19 302.28 260.23 302.28 214.87 298.26" style="opacity:0.2"></polygon><polygon points="214.87 298.26 260.23 302.28 260.23 312.25 249.52 311.3 225.59 309.19 214.87 308.25 214.87 298.26" style="fill:#00D1FF"></polygon><rect x="260.23" y="302.28" width="6.96" height="9.97" style="fill:#00D1FF"></rect><polygon points="241.13 102.72 248.09 102.72 273.83 105 266.87 105 241.13 102.72" style="fill:#00D1FF"></polygon><polygon points="241.13 102.72 248.09 102.72 273.83 105 266.87 105 241.13 102.72" style="opacity:0.2"></polygon><path d="M250.79,54.53l9.9.87v49.05l-19.56-1.73-26.72-2.36v-49l9.91.88v5.63l26.47,2.34Zm0,38.54V69.65l-26.47-2.34V90.74l26.47,2.33" style="fill:#00D1FF"></path><rect x="260.69" y="55.4" width="6.96" height="49.05" style="fill:#00D1FF"></rect><rect x="260.69" y="55.4" width="6.96" height="49.05" style="opacity:0.2"></rect><polygon points="250.79 54.53 257.75 54.53 267.65 55.4 260.69 55.4 250.79 54.53" style="fill:#00D1FF"></polygon><polygon points="250.79 54.53 257.75 54.53 267.65 55.4 260.69 55.4 250.79 54.53" style="opacity:0.2"></polygon><polygon points="231.22 206.38 238.18 206.38 281.83 210.24 274.87 210.24 231.22 206.38" style="fill:#00D1FF"></polygon><polygon points="231.22 206.38 238.18 206.38 281.83 210.24 274.87 210.24 231.22 206.38" style="opacity:0.2"></polygon><path d="M241.13,102.72,266.87,105V209.52l-35.65-3.14-23-2V99.81l6.17.55ZM254.67,202V171.45l-34.25-3V199l34.25,3m0-55.87V115.58l-34.25-3v30.53l34.25,3" style="fill:#00D1FF"></path><rect x="266.87" y="105" width="6.96" height="104.53" style="fill:#00D1FF"></rect><g style="opacity:0.2"><rect x="266.87" y="105" width="6.96" height="104.53"></rect></g><polyline points="260.24 240.01 249.75 229.88 225.57 227.74 214.87 236 214.87 403.39 200.23 402.09 200.23 203.64 208.24 204.35 231.22 206.38 260.24 208.95" style="fill:#00D1FF"></polyline><path d="M43.77,350.45V343.5C187.39,274.11,431,189.31,431,189.31v2.13Z" style="fill:#00D1FF"></path><path d="M164.44,377.91c65.79-62.62,291.79-186.47,291.79-186.47H430.62s-184.42,65-386.85,159Z" style="fill:#455a64"></path><path d="M164.44,377.91s102.75-79.65,291.79-186.47v-2.13s-218.67,118.94-291.79,177Z" style="fill:#00D1FF"></path><path d="M164.44,377.91s102.75-79.65,291.79-186.47v-2.13s-218.67,118.94-291.79,177Z" style="opacity:0.1"></path><polygon points="394.21 91.66 397.42 91.66 401.99 92.06 398.78 92.06 394.21 91.66" style="fill:#00D1FF"></polygon><polygon points="394.21 91.66 397.42 91.66 401.99 92.06 398.78 92.06 394.21 91.66" style="opacity:0.2"></polygon><polygon points="410.39 230.98 413.6 230.98 418.54 231.41 415.33 231.41 410.39 230.98" style="fill:#00D1FF"></polygon><polygon points="410.39 226.38 413.6 226.38 418.54 226.81 415.33 226.81 410.39 226.38" style="fill:#00D1FF"></polygon><polygon points="410.4 245.84 413.6 245.84 418.54 250.88 415.33 250.88 410.4 245.84" style="fill:#00D1FF"></polygon><rect x="415.33" y="246.28" width="3.21" height="4.6" style="fill:#00D1FF"></rect><rect x="415.33" y="226.81" width="3.21" height="4.6" style="fill:#00D1FF"></rect><rect x="415.33" y="207.35" width="3.21" height="4.6" style="fill:#00D1FF"></rect><rect x="415.54" y="93.54" width="3.21" height="22.61" style="fill:#00D1FF"></rect><rect x="415.54" y="93.54" width="3.21" height="22.61" style="opacity:0.2"></rect><polygon points="410.98 93.14 414.19 93.14 418.75 93.54 415.54 93.54 410.98 93.14" style="fill:#00D1FF"></polygon><polygon points="410.98 93.14 414.19 93.14 418.75 93.54 415.54 93.54 410.98 93.14" style="opacity:0.2"></polygon><rect x="418.4" y="116.41" width="3.21" height="48.18" style="fill:#00D1FF"></rect><g style="opacity:0.2"><rect x="418.4" y="116.41" width="3.21" height="48.18"></rect></g><path d="M260.69,55.4l-.13,20.16-.67,20.16c-.39,6.71-.87,13.42-1.3,20.14-.65,6.69-1.2,13.4-1.93,20.08-1.54,13.37-3.41,26.71-5.93,39.93-2.35,13.26-5.44,26.38-8.84,39.4L239.12,225c-.92,3.24-2,6.43-3,9.64l-1.54,4.81-1.68,4.76c-1.14,3.17-2.17,6.38-3.44,9.5A325.15,325.15,0,0,1,213,290.61,271.62,271.62,0,0,1,191.81,325c-4,5.41-8.22,10.67-12.74,15.66a115.56,115.56,0,0,1-14.63,13.87,87,87,0,0,0,7.4-6.83c2.37-2.38,4.62-4.87,6.83-7.39,4.4-5.07,8.47-10.41,12.34-15.88a271.49,271.49,0,0,0,20.65-34.48c12.16-23.92,21.28-49.29,28.3-75.16a569,569,0,0,0,15.18-79c.82-6.66,1.46-13.34,2.2-20l1.58-20.08L260,75.55Z" style="fill:#263238"></path><path d="M267.65,55.4q6.42,22.41,13.94,44.49c5,14.72,10.29,29.32,16.14,43.7a464,464,0,0,0,19.4,42.29,226,226,0,0,0,11.84,20,110.22,110.22,0,0,0,14.54,17.91,52.36,52.36,0,0,0,8.93,7.1,28.41,28.41,0,0,0,10.44,4,20.91,20.91,0,0,0,10.92-1.36,26.11,26.11,0,0,0,4.87-2.77,32.78,32.78,0,0,0,4.24-3.75,49.64,49.64,0,0,0,6.82-9.17,88.75,88.75,0,0,0,5.21-10.3,170.69,170.69,0,0,0,7.5-21.93A349.33,349.33,0,0,0,411.26,140q3.12-23.08,4.28-46.41c-.15,7.78-.57,15.54-1.13,23.3s-1.28,15.5-2.18,23.23a349.87,349.87,0,0,1-8.3,46,159.49,159.49,0,0,1-7.4,22.22,91.42,91.42,0,0,1-5.27,10.52,51.66,51.66,0,0,1-7,9.51,33.88,33.88,0,0,1-4.46,4,28.23,28.23,0,0,1-5.23,3,22.86,22.86,0,0,1-11.93,1.53,30.29,30.29,0,0,1-11.18-4.26,53.39,53.39,0,0,1-9.3-7.34,112.3,112.3,0,0,1-14.74-18.28,228,228,0,0,1-11.85-20.18c-3.63-6.9-7-13.92-10.2-21s-6.19-14.29-9-21.54A789.1,789.1,0,0,1,267.65,55.4Z" style="fill:#263238"></path><path d="M418.75,93.54c1.71,8.19,3.6,16.33,5.6,24.43s4.2,16.14,6.76,24.06q1.88,6,4.11,11.77c1.48,3.88,3.13,7.7,5,11.41a62.64,62.64,0,0,0,6.47,10.56,22.18,22.18,0,0,0,9.57,7.66,16.61,16.61,0,0,1-5.66-2.74,29.62,29.62,0,0,1-4.66-4.29,57.47,57.47,0,0,1-7.11-10.47,137.71,137.71,0,0,1-9.6-23.29c-2.53-8-4.63-16.13-6.37-24.32S419.69,101.86,418.75,93.54Z" style="fill:#263238"></path><polygon points="259.06 311.78 259 280.83 259.03 249.89 259.26 188 259.72 126.11 260.04 95.17 260.45 64.23 260.52 95.17 260.49 126.12 260.26 188.01 259.8 249.89 259.48 280.83 259.06 311.78" style="fill:#263238"></polygon><polygon points="274.2 301.15 274.12 273.78 274.13 246.41 274.32 191.68 274.74 136.95 275.03 109.58 275.43 82.22 275.52 109.58 275.51 136.95 275.32 191.69 274.89 246.42 274.6 273.79 274.2 301.15" style="fill:#263238"></polygon><polygon points="281.26 297.11 281.15 272.95 281.14 248.8 281.3 200.48 281.68 152.17 281.96 128.01 282.34 103.86 282.45 128.02 282.45 152.18 282.3 200.49 281.91 248.8 281.63 272.96 281.26 297.11" style="fill:#263238"></polygon><polygon points="288.31 292.56 288.19 271.43 288.16 250.29 288.28 208.03 288.64 165.77 288.89 144.64 289.26 123.51 289.38 144.64 289.4 165.78 289.28 208.04 288.93 250.3 288.67 271.43 288.31 292.56" style="fill:#263238"></polygon><path d="M295.36,288c-.13-12.19-.16-24.37-.17-36.56l.08-36.56.32-36.57.25-18.27.34-18.28.15,18.28,0,18.28-.09,36.56L296,251.47C295.8,263.66,295.64,275.84,295.36,288Z" style="fill:#263238"></path><path d="M302.28,283.61c-.14-10.43-.17-20.87-.19-31.3l.08-31.3.31-31.29.24-15.65.34-15.65.15,15.65,0,15.65-.08,31.3-.31,31.3C302.71,262.75,302.55,273.18,302.28,283.61Z" style="fill:#263238"></path><path d="M309.34,279.15c-.16-8.75-.2-17.49-.22-26.24l0-26.22.28-26.23.22-13.11.33-13.12.16,13.12.06,13.11,0,26.23-.28,26.23C309.75,261.66,309.6,270.4,309.34,279.15Z" style="fill:#263238"></path><path d="M316.39,274.7c-.16-7.23-.21-14.45-.25-21.68l0-21.67.25-21.68.21-10.83c.1-3.61.17-7.23.31-10.84.09,3.62.12,7.23.18,10.84l.07,10.84,0,21.67L316.91,253C316.78,260.25,316.64,267.48,316.39,274.7Z" style="fill:#263238"></path><path d="M323.54,270.22c-.13-5.8-.15-11.61-.15-17.41s.08-11.6.12-17.4.19-11.6.34-17.4l.26-8.69c.12-2.9.21-5.8.36-8.7.07,2.9.08,5.8.13,8.7l0,8.7c0,5.81-.08,11.61-.11,17.41s-.19,11.59-.35,17.39S323.83,264.42,323.54,270.22Z" style="fill:#263238"></path><path d="M330.63,265.8c-.15-4.57-.18-9.14-.2-13.71s.05-9.13.07-13.7.15-9.14.29-13.7l.23-6.85c.12-2.29.2-4.57.34-6.85.08,2.28.1,4.57.15,6.85l.05,6.86c0,4.57,0,9.13-.07,13.7s-.15,9.14-.29,13.7S330.9,261.24,330.63,265.8Z" style="fill:#263238"></path><path d="M337.72,261.41c-.16-3.47-.21-7-.25-10.43s0-6.95,0-10.42.12-6.95.26-10.42l.21-5.21c.1-1.74.18-3.48.31-5.21.09,1.74.12,3.47.18,5.21l.07,5.22c0,3.47,0,6.95,0,10.42s-.11,7-.25,10.43S338,257.94,337.72,261.41Z" style="fill:#263238"></path><path d="M344.8,257.05c-.17-2.52-.23-5-.28-7.56s0-5,0-7.56.1-5,.22-7.56l.19-3.78c.1-1.26.17-2.52.3-3.78.09,1.26.12,2.52.19,3.79l.09,3.78c.06,2.52,0,5,0,7.56s-.09,5-.21,7.56S345,254.53,344.8,257.05Z" style="fill:#263238"></path><path d="M351.89,252.71a95.67,95.67,0,0,1-.36-10.43,93.22,93.22,0,0,1,.64-10.41,95.67,95.67,0,0,1,.36,10.43A98.25,98.25,0,0,1,351.89,252.71Z" style="fill:#263238"></path><path d="M359,248.4a44.87,44.87,0,0,1,.18-13.36A44.87,44.87,0,0,1,359,248.4Z" style="fill:#263238"></path><path d="M366.07,243.37a12.06,12.06,0,0,1-.45-3.65,11.74,11.74,0,0,1,.55-3.64,12.06,12.06,0,0,1,.45,3.65A12.37,12.37,0,0,1,366.07,243.37Z" style="fill:#263238"></path><path d="M373.14,240.22a6.89,6.89,0,0,1-.46-2.73,6.71,6.71,0,0,1,.53-2.71,7.58,7.58,0,0,1-.07,5.44Z" style="fill:#263238"></path><path d="M380.18,235.62a6.12,6.12,0,0,1-.38-2.54,6,6,0,0,1,.63-2.5,6.67,6.67,0,0,1-.25,5Z" style="fill:#263238"></path><path d="M387.22,231.41a19.06,19.06,0,0,1,.32-8.67,19,19,0,0,1-.32,8.67Z" style="fill:#263238"></path><path d="M393.8,227.53a52.29,52.29,0,0,1-.41-7.8,53.75,53.75,0,0,1,.58-7.79,53.75,53.75,0,0,1,.42,7.8A55.1,55.1,0,0,1,393.8,227.53Z" style="fill:#263238"></path><path d="M400.86,223.19c-.18-2.45-.25-4.89-.3-7.33s-.05-4.88,0-7.32.08-4.87.2-7.31l.18-3.66c.1-1.22.16-2.44.29-3.66.1,1.23.13,2.45.2,3.67l.1,3.66c.06,2.44,0,4.88,0,7.32s-.09,4.87-.21,7.31S401.09,220.75,400.86,223.19Z" style="fill:#263238"></path><path d="M407.91,219.25c-.15-4.77-.19-9.54-.21-14.31s0-9.53.05-14.3.15-9.54.29-14.3l.22-7.15c.11-2.38.19-4.77.33-7.15.08,2.39.1,4.77.16,7.15l.05,7.16c0,4.77,0,9.53-.05,14.3s-.15,9.53-.28,14.3S408.18,214.48,407.91,219.25Z" style="fill:#263238"></path><path d="M415,215.09c-.16-10.13-.2-20.26-.24-30.39l0-30.39.26-30.38.21-15.19.31-15.2.18,15.2.07,15.19,0,30.39-.26,30.39C415.37,194.83,415.23,205,415,215.09Z" style="fill:#263238"></path><path d="M426.08,208.67c-.12-6.38-.13-12.76-.12-19.13s.1-12.75.15-19.13.21-12.74.38-19.12l.27-9.56c.12-3.18.22-6.37.38-9.56.06,3.19.07,6.38.11,9.57v9.56c0,6.38-.11,12.75-.15,19.13s-.22,12.75-.39,19.12S426.37,202.29,426.08,208.67Z" style="fill:#263238"></path><path d="M431.12,206.42c-.14-4.9-.16-9.79-.18-14.69s.07-9.79.09-14.68.18-9.79.32-14.68l.25-7.34c.11-2.45.2-4.9.35-7.34.07,2.45.09,4.9.14,7.34l0,7.35c0,4.89-.06,9.79-.09,14.68s-.17,9.79-.32,14.68S431.4,201.53,431.12,206.42Z" style="fill:#263238"></path><path d="M435.17,203.43c-.15-3.81-.19-7.61-.22-11.42s0-7.61.05-11.42.14-7.61.28-11.41l.22-5.71c.11-1.9.18-3.8.32-5.7.09,1.9.11,3.81.17,5.71l.06,5.71c0,3.81,0,7.61-.05,11.42s-.15,7.61-.28,11.41S435.43,199.63,435.17,203.43Z" style="fill:#263238"></path><path d="M439,201.27c-.15-3-.2-5.93-.22-8.89s0-5.91,0-8.87.13-5.92.28-8.88l.22-4.43c.11-1.48.18-3,.32-4.44.09,1.49.11,3,.17,4.45l.06,4.44c0,3,0,5.92-.05,8.87s-.13,5.92-.28,8.88S439.21,198.31,439,201.27Z" style="fill:#263238"></path><path d="M443.1,198.9c-.17-2.21-.22-4.41-.26-6.61s0-4.41,0-6.61.11-4.4.24-6.6l.2-3.3c.1-1.1.17-2.2.3-3.29.1,1.1.13,2.2.19,3.3l.08,3.31c0,2.2,0,4.4,0,6.6s-.11,4.4-.24,6.6S443.34,196.7,443.1,198.9Z" style="fill:#263238"></path><path d="M447.24,196.54a90.13,90.13,0,0,1,.36-19,90.13,90.13,0,0,1-.36,19Z" style="fill:#263238"></path><path d="M451.39,194.18a37.6,37.6,0,0,1-.37-6.52,36.79,36.79,0,0,1,.62-6.51,42.28,42.28,0,0,1-.25,13Z" style="fill:#263238"></path><path d="M455.54,191.83a16.69,16.69,0,0,1-.5-4.31,16.22,16.22,0,0,1,.5-4.31,16.64,16.64,0,0,1,.5,4.31A17.14,17.14,0,0,1,455.54,191.83Z" style="fill:#263238"></path><path d="M250.1,317.59c-.14-12-.17-24.1-.18-36.15l.09-36.15.31-36.15.24-18.08.35-18.07.14,18.07,0,18.08L251,245.29l-.32,36.15C250.54,293.49,250.37,305.54,250.1,317.59Z" style="fill:#263238"></path><path d="M240,324.39c-.16-8.85-.21-17.69-.24-26.54l0-26.54.26-26.54.21-13.26.32-13.27.17,13.27.07,13.27,0,26.54-.26,26.54C240.36,306.7,240.21,315.55,240,324.39Z" style="fill:#263238"></path><path d="M229.81,331.27c-.16-6.87-.22-13.73-.26-20.6V290.08l.23-20.59L230,259.2c.11-3.43.17-6.87.31-10.3.09,3.44.12,6.87.18,10.3l.09,10.3v20.59l-.23,20.59C230.19,317.54,230.06,324.4,229.81,331.27Z" style="fill:#263238"></path><path d="M219.67,337.84c-.17-5.38-.24-10.77-.29-16.16s0-10.77,0-16.16.09-10.77.2-16.16l.19-8.08c.09-2.69.16-5.38.29-8.08.09,2.7.13,5.39.2,8.08l.09,8.09c0,5.38,0,10.77,0,16.16s-.09,10.77-.2,16.16S219.91,332.46,219.67,337.84Z" style="fill:#263238"></path><path d="M209.5,345.26c-.18-4.18-.25-8.36-.3-12.54s0-8.36,0-12.54.08-8.36.19-12.54l.18-6.27c.09-2.09.15-4.18.28-6.27.1,2.09.14,4.18.21,6.27l.1,6.27c0,4.18,0,8.36,0,12.54s-.09,8.36-.2,12.54S209.74,341.08,209.5,345.26Z" style="fill:#263238"></path><path d="M199.38,352.39c-.18-3.25-.26-6.5-.32-9.75s-.07-6.49-.07-9.74.06-6.49.17-9.74l.17-4.86c.09-1.63.15-3.25.27-4.87.11,1.62.15,3.24.22,4.87l.11,4.87c.07,3.25.07,6.49.06,9.74s-.06,6.49-.17,9.74S199.61,349.14,199.38,352.39Z" style="fill:#263238"></path><path d="M189.24,359.62c-.19-2.68-.27-5.37-.34-8.05s-.07-5.37-.07-8.05,0-5.37.16-8l.16-4c.09-1.34.15-2.68.27-4,.11,1.34.15,2.68.22,4l.12,4c.07,2.68.07,5.36.07,8s-.06,5.36-.16,8S189.46,356.94,189.24,359.62Z" style="fill:#263238"></path><path d="M179.09,367c-.19-2.25-.27-4.5-.34-6.74s-.08-4.49-.08-6.74.05-4.49.15-6.74l.16-3.36c.09-1.13.15-2.25.27-3.37.1,1.12.14,2.25.22,3.37l.12,3.37c.08,2.24.08,4.49.08,6.74s0,4.49-.16,6.73S179.31,364.73,179.09,367Z" style="fill:#263238"></path><path d="M169,373.6a108.35,108.35,0,0,1-.46-11.09,105.55,105.55,0,0,1,.53-11.09c.38,3.7.46,7.39.47,11.09A108.34,108.34,0,0,1,169,373.6Z" style="fill:#263238"></path><polygon points="274.87 210.24 274.87 408.69 260.24 407.39 260.24 208.95 274.87 210.24" style="fill:#00D1FF"></polygon><rect x="274.87" y="210.23" width="6.96" height="198.45" style="fill:#00D1FF"></rect><rect x="274.87" y="210.23" width="6.96" height="198.45" style="opacity:0.2"></rect><polygon points="422.08 164.92 422.08 256.4 415.34 255.8 415.34 164.32 422.08 164.92" style="fill:#00D1FF"></polygon><rect x="422.08" y="164.92" width="3.21" height="91.48" style="fill:#00D1FF"></rect><rect x="422.08" y="164.92" width="3.21" height="91.48" style="opacity:0.2"></rect></g><g id="freepik--Rocks--inject-25"><path d="M259.89,382.05H27.77s-.87-28.29,7.34-38.49,16.12-12.74,18.78-15,11.57-11.85,17.55-19.83,14.63-19.95,19.07-21.06,24.83-5.56,29-3.78,27,22.43,29.43,23.32,46.39,23.09,50.38,23.94,26.79,7.57,36.8,13.71C249.91,353.33,259.89,382.05,259.89,382.05Z" style="fill:#00D1FF"></path><path d="M259.89,382.05H27.77s-.87-28.29,7.34-38.49,16.12-12.74,18.78-15,11.57-11.85,17.55-19.83,14.63-19.95,19.07-21.06,24.83-5.56,29-3.78,27,22.43,29.43,23.32,46.39,23.09,50.38,23.94,26.79,7.57,36.8,13.71C249.91,353.33,259.89,382.05,259.89,382.05Z" style="opacity:0.2"></path><path d="M191.52,327.85c-10.19.58-25.28,11.86-28.27,13.6-4.39,2.56-30.82-6.66-41.24-7.77s-13.74-17.29-13.11-19.9S97.51,306.51,99,300.27c.88-3.65,28-10.93,28-10.93,8.31,6.72,20.24,17.28,22,17.91C150.88,307.94,177.69,321.43,191.52,327.85Z" style="fill:#00D1FF"></path><path d="M81.55,328.63c.2-4.3,11.64-11.72,14.63-11s8.82,6.86,9.65,9.26,4.65,14,1,14.12-10.65-6.57-14.47-6.82S81.39,332.18,81.55,328.63Z" style="fill:#00D1FF"></path><path d="M167.56,345.26c-.72-2.69,9.9-7.91,12.66-7.42s5.42,6.15,3,7.65-6-.61-7.89,0S168.11,347.3,167.56,345.26Z" style="fill:#00D1FF"></path><path d="M143.64,411.29H374.49s-10.83-15.16-22.74-18.41-39-13-43.87-18.41-46-25.45-61.73-24.91S204.45,368,200.66,372.3s-17.06,20.58-21.4,21.94S154.31,398.84,143.64,411.29Z" style="fill:#00D1FF"></path><path d="M143.64,411.29H374.49s-10.83-15.16-22.74-18.41-39-13-43.87-18.41-46-25.45-61.73-24.91S204.45,368,200.66,372.3s-17.06,20.58-21.4,21.94S154.31,398.84,143.64,411.29Z" style="opacity:0.1"></path><path d="M329.11,385.9c-4.08.78-9.82,1.54-13.33,1.17-1.86-.2-20-9.09-26.62-10s-42.72-2.44-45.36-6.42c-2-3,11.79-12.38,20.84-17.28,18,6,39.77,17.22,43.24,21.08,2.51,2.78,10.89,6.71,20.06,10.31C328.34,385.17,328.73,385.55,329.11,385.9Z" style="fill:#00D1FF"></path><path d="M268.67,384.84c0-2,12-3.5,14.74-3.06s14.63,5.57,12.3,6.55a31.53,31.53,0,0,1-11.64,1.5C280.19,389.53,268.69,387.09,268.67,384.84Z" style="fill:#00D1FF"></path><path d="M128.7,417h-61c-6.57,0,7.5-20.3,13.24-23.27s20.78-1.28,24.49,2,19.35,13.66,21.27,15.39A6.53,6.53,0,0,1,128.7,417Z" style="fill:#00D1FF"></path><path d="M418.34,396.46c4,0,.84-4.6-.83-5.88s-9.64-4.76-12.63-4.51-5.82,4.14-9.31,5.19-9.15,4-8.32,5.2Z" style="fill:#00D1FF"></path></g><g id="freepik--character-2--inject-25"><path d="M159.44,251.69c-2.14-.76-8,.1-10.27,2.8s-2.71,7.48-1.79,8.06,5.16.76,8.24-.46S160.5,252.07,159.44,251.69Z" style="fill:#263238"></path><path d="M159.44,251.71c.08,0,.1-.13,0-.14a20.68,20.68,0,0,0-6,.39,11.18,11.18,0,0,0-4.45,1.42,5.23,5.23,0,0,0-2.38,3.66,10.7,10.7,0,0,0,.36,5.39c0,.05.1.05.09,0-.48-3.33-.76-7.35,2.71-9.13C152.76,251.77,156.26,252,159.44,251.71Z" style="fill:#263238"></path><path d="M147.8,261.76c-2,0-7.42,3-8.73,6.59s1,9.35,1.89,9.86,5.59-2.46,7.3-4.86c1.15-1.61.67-3.71.5-5.76C148.51,264.56,148.11,261.76,147.8,261.76Z" style="fill:#263238"></path><path d="M149.48,273c1-3.66-.61-7.62-1.45-11.15a0,0,0,0,0-.07,0c.3,3.32,1.88,6.47,1.5,9.86a6.26,6.26,0,0,1-3,4.92,18.38,18.38,0,0,1-5.16,1.52c-.12,0-.07.2.05.18C144.82,277.7,148.4,276.81,149.48,273Z" style="fill:#263238"></path><path d="M147.34,262.05c.11,0,.06-.2,0-.16-2.91.95-6.44,2.42-8.26,5-2,2.81-.77,6.16.3,9.05,0,0,.07,0,.06,0-1.05-2.93-2.09-6.53.08-9.23C141.35,264.38,144.6,263,147.34,262.05Z" style="fill:#263238"></path><path d="M141.79,277.59c-2.51,1.94-5.63,4.87-5,7.71s4,7,4.31,7,5.38-3.19,6.4-6.6S142.11,277.34,141.79,277.59Z" style="fill:#263238"></path><path d="M141.31,292.56c-2.16-1.83-4.7-4.33-4.86-7.35s2.87-5.67,5-7.29c0,0,0-.07,0-.05-2.28,1.49-5.2,4.2-5.17,7.16s2.67,6.13,5,7.61C141.3,292.67,141.35,292.59,141.31,292.56Z" style="fill:#263238"></path><path d="M141,292.05a8.28,8.28,0,0,0-2.32,6.15c.26,4.51-1.57,4-6.05,6.26a4.83,4.83,0,0,0-1,8.3,3.2,3.2,0,0,1,.52-4.45c2.87-2.36,11-.64,13.67-6C149.3,295.29,141,292.05,141,292.05Z" style="fill:#263238"></path><path d="M139.78,294.44c0-.07-.09-.14-.13-.07a6.63,6.63,0,0,0-.88,2.19c-.19,1,0,2-.11,3-.33,2.58-3.22,3.15-5.28,3.77-2.75.84-4.61,3-4.11,6,0,0,.07,0,.06,0a5.13,5.13,0,0,1,2-4.9c1.48-1.06,3.41-1.11,5-1.91a4,4,0,0,0,2.42-2.55,9.3,9.3,0,0,0,.07-2.11A7.16,7.16,0,0,1,139.78,294.44Z" style="fill:#263238"></path><path d="M141.88,292.41s-.06,0,0,0c1.94,1.2,4,2.39,5,4.58a6.82,6.82,0,0,1-1.26,7c-1.79,2.16-4.29,1.89-6.82,2a10.15,10.15,0,0,0-5.24,1.24s0,.11.05.08c2.62-1.26,5.34-1,8.16-1.19a5.6,5.6,0,0,0,4.91-3.36C148.89,298.28,146,294.38,141.88,292.41Z" style="fill:#263238"></path><path d="M157.54,247.76c-.65-.76-1.81.27-1.16,1S158.19,248.51,157.54,247.76Z" style="fill:#00D1FF"></path><path d="M158.2,249c-.65-.76-1.81.27-1.16,1S158.85,249.8,158.2,249Z" style="fill:#00D1FF"></path><path d="M159.07,250.2c-.65-.76-1.81.27-1.16,1A.78.78,0,0,0,159.07,250.2Z" style="fill:#00D1FF"></path><path d="M160.07,251.21c-.65-.76-1.81.27-1.16,1S160.72,252,160.07,251.21Z" style="fill:#00D1FF"></path><path d="M161.25,252c-.65-.75-1.81.27-1.16,1S161.9,252.8,161.25,252Z" style="fill:#00D1FF"></path><path d="M162.51,252.64c-.65-.76-1.81.27-1.16,1S163.16,253.39,162.51,252.64Z" style="fill:#00D1FF"></path><path d="M209.52,456.11c-1.42.42-41.61-.93-43.1-1.95-.58-.38-.72-6.25-.69-13.34v-.22c0-1.46,0-3,0-4.5,0-.21,0-.42,0-.62.16-10.24.54-20.85.54-20.85l26.53.66-.89,20.8-.05.82-.25,4.27,0,.44s15.15,7.4,16.68,8.7S210.93,455.69,209.52,456.11Z" style="fill:#f7a9a0"></path><path d="M198.28,444.46c-.09,0-.14-.06-.15-.09Z" style="fill:#00D1FF"></path><path d="M210.3,456.39c-.94.28-18.33-.21-31-.87-2.93-.15-5.61-.32-7.77-.48a25.25,25.25,0,0,1-5.28-.67c-.55-.38-.89-16.8-.68-18.73l26.49.88,0,5.06s15.47,7.56,17,8.89S211.74,456,210.3,456.39Z" style="fill:#a6a6a6"></path><path d="M209.38,454.72c-6.87-.41-34.64-1.39-41.46-1.27-.06,0-.06,0,0,0,6.8.55,34.57,1.31,41.46,1.34C209.52,454.83,209.53,454.72,209.38,454.72Z" style="fill:#263238"></path><path d="M192.68,440.07c-2.69-.6-6-.3-8.15,1.56-.08.07,0,.19.11.17a38.16,38.16,0,0,1,8-1.39A.17.17,0,0,0,192.68,440.07Z" style="fill:#263238"></path><path d="M194.6,441.31c-2.69-.59-6-.29-8.15,1.57-.09.07,0,.18.11.16a37.42,37.42,0,0,1,8-1.38A.18.18,0,0,0,194.6,441.31Z" style="fill:#263238"></path><path d="M196.51,442.56c-2.69-.6-6-.3-8.15,1.56-.08.07,0,.19.11.16a38.14,38.14,0,0,1,8-1.38A.17.17,0,0,0,196.51,442.56Z" style="fill:#263238"></path><path d="M198.42,443.8c-2.69-.59-6-.29-8.15,1.57-.08.07,0,.18.11.16a37.62,37.62,0,0,1,8-1.38A.18.18,0,0,0,198.42,443.8Z" style="fill:#263238"></path><path d="M197.9,434c-1-1.5-3-.91-4.18,0a14.47,14.47,0,0,0-4.39,6.06s0,.09.07.1c0,.2.17.43.41.35,2.26-.75,4.78-1.27,6.74-2.7C197.7,437,198.86,435.4,197.9,434ZM193,438.65c-1.11.4-2.22.74-3.31,1.17a42.31,42.31,0,0,1,2.63-3.48,16.23,16.23,0,0,1,1.49-1.5c.83-.7,4.07-2.16,3.5.8C197,437.27,194.32,438.18,193,438.65Z" style="fill:#263238"></path><path d="M182.48,439.1c2.2,1,4.76,1.06,7.13,1.38.24,0,.38-.23.34-.43a.07.07,0,0,0,0-.11,14.42,14.42,0,0,0-5.45-5.12c-1.31-.68-3.39-.88-4.1.78S181.19,438.5,182.48,439.1Zm-1.16-2c-1.12-2.79,2.33-2,3.28-1.44a15.94,15.94,0,0,1,1.75,1.2,40.66,40.66,0,0,1,3.24,2.92c-1.15-.23-2.31-.35-3.47-.53C184.74,439.05,181.94,438.66,181.32,437.12Z" style="fill:#263238"></path><path d="M151.61,297.65s14,70.23,15,75.41c.16.84-3.52,29-3.71,44.67a19.18,19.18,0,0,0,2.95,10.72l27.72,1.24s3-4.11,3.11-8.33c.2-13.56-2.46-41.63-3.41-49.52-1.26-10.37-17.09-74.19-17.09-74.19Z" style="fill:#37474f"></path><path d="M167.3,423.3c4.42.06,3.15,0,7.57.09,2.17.05,16.39.41,18.39.81.05,0,.05.09,0,.09-2,.27-16.24-.34-18.4-.43-4.42-.19-3.15-.19-7.57-.43C167.21,423.43,167.22,423.3,167.3,423.3Z" style="fill:#263238"></path><path d="M170.2,373.28a107.09,107.09,0,0,0-1.92-11.51l-2.22-11.7c-1.47-7.73-2.9-15.46-4.39-23.18-1.67-8.73-4.06-17.26-5.82-26,0-.2-.34-.11-.31.09,2.74,15.49,6.38,30.75,9.3,46.21l2.22,11.7c.72,3.81,1.53,7.61,2.15,11.43a31.77,31.77,0,0,1,.43,6c0,1.89-.25,3.78-.42,5.66-.36,4-.73,7.92-1.07,11.88q-.57,6.53-1.13,13.06c-.37,4.43-.79,8.86-1,13.3,0,.05.09.06.1,0,1-7.81,1.66-15.69,2.4-23.54q.57-5.93,1.11-11.87C170,381,170.51,377.13,170.2,373.28Z" style="fill:#263238"></path><path d="M173.22,297.65l-8.73,64.76c-4.16-21-12.88-64.76-12.88-64.76Z" style="fill:#263238"></path><path d="M162.82,457.85c-1.43.35-41.5-3-42.94-4.11-.56-.41-.4-6.28,0-13.36,0-.07,0-.15,0-.22.08-1.46.17-3,.27-4.49,0-.2,0-.41,0-.62l4.13-20.87L152,416.42,146.3,437l-.09.82-.46,4.25-.05.44s14.76,8.15,16.22,9.52S164.26,457.5,162.82,457.85Z" style="fill:#f7a9a0"></path><path d="M152.19,445.65a.38.38,0,0,1-.15-.09Z" style="fill:#00D1FF"></path><path d="M163.59,458.17c-1,.23-18.29-1.13-30.9-2.42-2.91-.3-5.58-.6-7.72-.87a25.69,25.69,0,0,1-5.25-.94c-.53-.4,0-16.82.26-18.74l26.42,2.21-.3,5s15.07,8.33,16.56,9.73S165.06,457.8,163.59,458.17Z" style="fill:#a6a6a6"></path><path d="M162.76,456.45c-6.84-.75-34.52-3.12-41.35-3.34,0,0,0,0,0,0,6.77.89,34.47,3,41.34,3.41C162.9,456.57,162.91,456.47,162.76,456.45Z" style="fill:#263238"></path><path d="M146.82,441c-2.66-.73-6-.59-8.22,1.16-.09.06,0,.19.1.17a37.2,37.2,0,0,1,8.08-1A.18.18,0,0,0,146.82,441Z" style="fill:#263238"></path><path d="M148.67,442.32c-2.66-.73-6-.59-8.22,1.16-.09.06,0,.18.1.16a38.48,38.48,0,0,1,8.08-1A.17.17,0,0,0,148.67,442.32Z" style="fill:#263238"></path><path d="M150.52,443.66c-2.66-.73-6-.59-8.22,1.15-.09.07,0,.19.1.17a38.48,38.48,0,0,1,8.08-1A.17.17,0,0,0,150.52,443.66Z" style="fill:#263238"></path><path d="M152.37,445c-2.66-.73-6-.6-8.22,1.15-.09.07,0,.19.1.17a38.4,38.4,0,0,1,8.08-1A.17.17,0,0,0,152.37,445Z" style="fill:#263238"></path><path d="M152.33,435.16c-.93-1.55-3-1.06-4.17-.2a14.25,14.25,0,0,0-4.68,5.83.07.07,0,0,0,.05.1.33.33,0,0,0,.4.37c2.3-.63,4.83-1,6.87-2.35C152,438.13,153.22,436.63,152.33,435.16Zm-5.12,4.42c-1.12.34-2.25.63-3.36,1,.91-1.13,1.78-2.3,2.81-3.35a16.23,16.23,0,0,1,1.56-1.42c.86-.66,4.17-1.95,3.45,1C151.27,438.4,148.55,439.18,147.21,439.58Z" style="fill:#263238"></path><path d="M136.68,439.5c2.14,1.14,4.7,1.31,7,1.74a.34.34,0,0,0,.36-.41.07.07,0,0,0,0-.11,14.4,14.4,0,0,0-5.18-5.39c-1.28-.74-3.34-1.05-4.14.58S135.42,438.84,136.68,439.5Zm-1.06-2c-1-2.84,2.43-1.86,3.35-1.27a14.89,14.89,0,0,1,1.68,1.28,42.89,42.89,0,0,1,3.1,3.08c-1.14-.28-2.3-.46-3.45-.7C138.93,439.57,136.16,439,135.62,437.47Z" style="fill:#263238"></path><path d="M148.3,432.12l-26.93-3s-2.63-7.07-1-13.79c3.42-14.18,13.11-36,13.8-38.46,1.06-3.81,3.41-34.5,5.7-53.47,0,0-4.34-10.27,3.78-25.78h32.53s-2.18,14.76-5.91,24.12c0,0,.69-.53-3.7,1.89,0,0-2.69,48.2-4.66,57.32-1.63,7.53-4.46,31.68-7.82,43.87C152.89,429.15,148.3,432.12,148.3,432.12Z" style="fill:#37474f"></path><path d="M123.18,423.2c4.41.41,3.15.23,7.55.69,2.15.22,16.3,1.71,18.27,2.27,0,0,0,.09,0,.09-2.05.1-16.17-1.63-18.31-1.89-4.39-.54-3.13-.44-7.51-1A.07.07,0,0,1,123.18,423.2Z" style="fill:#263238"></path><path d="M171.49,321.11a54.26,54.26,0,0,0-8.47,3.94c-.1.06,0,.23.08.18,2.86-1.23,5.77-2.4,8.55-3.78A.19.19,0,0,0,171.49,321.11Z" style="fill:#263238"></path><path d="M172.4,301.53c0-.09-.18-.12-.18,0a94.53,94.53,0,0,1-.48,9.53c-.13,1.47-1.31,9.59-3.86,9-.43-.1-.65-.52-.71-1.16a10.16,10.16,0,0,1,.34-2.49c.28-1.7.51-3.41.65-5.12a46.76,46.76,0,0,0-.1-9.61.09.09,0,0,0-.17,0,87.74,87.74,0,0,1-.77,13.26c-.32,2.11-1.38,5.29.82,5.62s3.71-5,4-6.46A48.53,48.53,0,0,0,172.4,301.53Z" style="fill:#263238"></path><path d="M168,320.27a13.88,13.88,0,0,0-.58,1.68,3.69,3.69,0,0,0-.23,1.39c0,.09.12.09.17,0a4.6,4.6,0,0,0,.59-1.34c.2-.52.4-1,.58-1.57A.28.28,0,0,0,168,320.27Z" style="fill:#263238"></path><path d="M145.75,299.21a27.14,27.14,0,0,0-3.57,9.86,30.22,30.22,0,0,0,.34,10.56,23.37,23.37,0,0,1,.47,6.19c-.15,2.11-.43,4.22-.67,6.33l-1.38,12.41c-.91,8.24-1.75,16.5-2.83,24.71a101,101,0,0,1-2.27,12c-1,3.89-2.19,7.73-3.38,11.57-2.45,7.91-4.92,15.82-7.28,23.76-.29,1-.59,2-.86,3,0,.08.1.11.12,0,2.68-7.8,5-15.72,7.51-23.59,2.41-7.69,4.87-15.36,6.12-23.34.64-4.07,1.08-8.16,1.54-12.24L141,348c.46-4.09.93-8.18,1.38-12.28l.69-6.2a42.56,42.56,0,0,0,.43-6,46.5,46.5,0,0,0-.86-5.86,27.18,27.18,0,0,1-.32-5.41,28.24,28.24,0,0,1,2.53-10.53c.37-.81.58-1.65,1-2.43C146,299.12,145.88,299,145.75,299.21Z" style="fill:#263238"></path><path d="M155.35,300.59c-.52,1.38-1.12,2.73-1.75,4.05a10,10,0,0,1-2.17,3.29,8.18,8.18,0,0,1-3.29,1.68,19.72,19.72,0,0,1-2.13.46,13.17,13.17,0,0,0-2.17.4.14.14,0,0,0,0,.27,9.56,9.56,0,0,0,2.33.07,14.08,14.08,0,0,0,2.23-.31,8,8,0,0,0,3.6-1.84,9.66,9.66,0,0,0,2.21-3.59,24.51,24.51,0,0,0,1.32-4.43A.1.1,0,0,0,155.35,300.59Z" style="fill:#263238"></path><path d="M166.56,323.64a.09.09,0,0,0-.18,0c-.26,1.12-.69,5.75-.8,6.92-.22,2.35-.38,4.71-.56,7.06-.35,4.66-1,21.59-1,22.91,0,.08.12.08.13,0,.14-1.16.91-12.62,1.09-14.95.36-4.68.71-9.36,1-14C166.31,330.23,166.65,325,166.56,323.64Z" style="fill:#263238"></path><path d="M166.75,266.9c14.4,3.08,41-2.35,41.56-8.85.54-6.31-2.94-14-12.35-23.38-1.16-1.16-12.81,11.58-11.11,13.13a16.34,16.34,0,0,1,3.87,5.34c.32.84-14.05,5.14-19.69,6.92C158.59,263.36,162.89,266.07,166.75,266.9Z" style="fill:#f7a9a0"></path><path d="M182.6,254.73l.8,14.12s-11,.19-17.53-.89-8.36-3.92.62-7.64A139.07,139.07,0,0,1,182.6,254.73Z" style="fill:#00D1FF"></path><path d="M182.6,254.73l.8,14.12s-11,.19-17.53-.89-8.36-3.92.62-7.64A139.07,139.07,0,0,1,182.6,254.73Z" style="fill:#dbdbdb"></path><path d="M180.94,268.18c-.29-2-.54-3.94-.74-5.92-.1-1-.21-2-.29-2.93s-.09-2-.17-3c0-.07.1-.09.11,0,.11,1,.3,1.94.42,2.91s.21,2,.31,3c.2,2,.35,4,.45,6C181,268.23,181,268.24,180.94,268.18Z" style="fill:#263238"></path><path d="M165.86,268c5.76,1,14.93.92,17.08.89-6.32-2-14.78-4.56-20.73-6.31C158.47,265.15,160.68,267.11,165.86,268Z" style="fill:#a6a6a6"></path><path d="M174.75,289.26,177,298l-33.56-.07s1-24.77,10.35-34.37c4.7-4.8,10-4.27,13.33-.72.83.9,9.7,12,10.63,17.26C178.53,284.68,174.75,289.26,174.75,289.26Z" style="fill:#dbdbdb"></path><path d="M169.11,286.8a36.72,36.72,0,0,0-5.3.92c-.86.23-1.71.5-2.55.78-.42.15-.85.27-1.27.4a5.83,5.83,0,0,1-1.37.27s0,.06,0,.07a11.64,11.64,0,0,0,1.32,0,8.92,8.92,0,0,0,1.25-.25c.88-.22,1.75-.49,2.62-.72,1.77-.47,3.53-.94,5.33-1.28A.08.08,0,0,0,169.11,286.8Z" style="fill:#263238"></path><path d="M173.55,288.35a38.78,38.78,0,0,0-4.44-.18c-.74,0-1.48.08-2.21.15l-1.06.13c-.38.05-.76.16-1.15.21a0,0,0,1,0,0,.06c.37,0,.74,0,1.11,0l1.1,0,2.22-.07c1.48-.06,2.95-.11,4.43-.12C173.63,288.47,173.62,288.35,173.55,288.35Z" style="fill:#263238"></path><path d="M159,266.52c-2.83,3.65-16.46,18.07-17,19.49s1.62,5.16,1.55,5.75c-.29,2.41-4.69,18.1-6.73,16.4-2.68-2.23-15-17.69-13.13-24.29s29.5-21.78,33.85-23S161.8,262.92,159,266.52Z" style="fill:#f7a9a0"></path><path d="M138.29,270l9.64,10.35s7.74-7.78,11.5-13.26,2.95-8.74-5.94-4.84A139.87,139.87,0,0,0,138.29,270Z" style="fill:#dbdbdb"></path><path d="M149.33,278.05c-1.23-1.56-2.5-3.1-3.81-4.6-.65-.74-1.28-1.49-1.94-2.21s-1.42-1.46-2.1-2.21c0-.06-.13,0-.09.07.63.75,1.21,1.54,1.84,2.29s1.32,1.54,2,2.3c1.31,1.5,2.66,3,4,4.42A0,0,0,0,0,149.33,278.05Z" style="fill:#263238"></path><path d="M147.52,279.91c.15.14.31.26.45.4h-.08c.59-.75,1.23-1.47,1.85-2.19s1.28-1.41,1.94-2.11,1.33-1.37,2-2,1.38-1.32,2.12-2c-.59.77-1.21,1.49-1.84,2.22s-1.27,1.42-1.92,2.12-1.32,1.38-2,2.05-1.37,1.34-2.09,2l-.05,0,0,0Z" style="fill:#263238"></path><path d="M155.54,273.74a6,6,0,0,1-1.21.82,5.77,5.77,0,0,1-1.37.51,6.13,6.13,0,0,1,2.58-1.33Z" style="fill:#263238"></path><path d="M146,314.13c1.71-1.46-1-2.64-1-2.64s4.3.77,5.49-1.42-2.18-3.43-2.41-3.52c.23,0,4.19.64,5.16-1.68s-2.55-3.16-2.78-3.21c.23,0,3.22-.49,3.55-2.42.57-3.32-8.09-2.74-10.17-4.5,0,0,.37-4.33.42-4.46a4.93,4.93,0,0,1-2.22,2.35c-1.81.73-3.46,1.22-4.12,2.2a2.46,2.46,0,0,0,.05,2.94s-2.39,0-3.21,1.79c-.42.93.69,2.42.69,2.42a3,3,0,0,0-2.54,1.72,2.86,2.86,0,0,0,.69,2.61s-1.81.91-1.89,2.42C131.54,311.78,142.31,317.25,146,314.13Z" style="fill:#f7a9a0"></path><path d="M133.76,306.54s-.07,0,0,0a21,21,0,0,0,11.42,5c.13,0,.21-.21.07-.25A42.48,42.48,0,0,1,133.76,306.54Z" style="fill:#263238"></path><path d="M135.39,302s-.08,0,0,.07a19.65,19.65,0,0,0,12.8,4.66c.17,0,.31-.18.12-.19C145.08,306.39,138.7,304,135.39,302Z" style="fill:#263238"></path><path d="M150.79,301.53a27,27,0,0,1-12.7-3.63c-.05,0-.08.05-.05.08a17.59,17.59,0,0,0,6.54,3.34,12,12,0,0,0,6.21.37C150.87,301.67,150.89,301.53,150.79,301.53Z" style="fill:#263238"></path><path d="M133.48,306.31a2.93,2.93,0,0,1-1-2.88,2.22,2.22,0,0,1,.94-1.19,3.8,3.8,0,0,1,1.75-.36,2.83,2.83,0,0,1-.4-3.19,2.21,2.21,0,0,1,1.29-.89,7,7,0,0,1,1.85-.12,2.53,2.53,0,0,1-.78-2.13,2.76,2.76,0,0,1,1.47-2,13.58,13.58,0,0,1,2.85-1,6.35,6.35,0,0,0,1.44-.57,2.85,2.85,0,0,0,1.12-1.25c.05-.09.05,0,0,.08a3.42,3.42,0,0,1-.63.95,4.65,4.65,0,0,1-.94.77,19.68,19.68,0,0,1-2.68,1.12,3.88,3.88,0,0,0-1.94,1.61,2.32,2.32,0,0,0,.19,2.44s0,.1-.06.1a6.55,6.55,0,0,0-1.62.37,2.24,2.24,0,0,0-1.07.84,3,3,0,0,0,.18,3,4.94,4.94,0,0,0-1.67.64,2.09,2.09,0,0,0-.72,1,2.6,2.6,0,0,0,.56,2.66l0,0h0v0l0,0h0s-.57.32-.6.32,0,0,0,0A4.13,4.13,0,0,1,133.48,306.31Z" style="fill:#263238"></path><path d="M159.29,262.83c.19.65,3.6,4.75,6.61,4.43,1-.11.63-5.48.63-5.48l.07-.4.91-5.64L160.73,252l-1-.5s-.15,1.56-.31,3.5a2.45,2.45,0,0,0,0,.27,1.82,1.82,0,0,0,0,.32c0,.29-.06.59-.08.88s0,.44-.05.68,0,.47,0,.71A36.44,36.44,0,0,0,159.29,262.83Z" style="fill:#f7a9a0"></path><path d="M167.51,255.74l-.88,5.41a12.21,12.21,0,0,1-7.24-5.66l.05-.54c.17-1.94.31-3.5.31-3.5l1,.5Z" style="fill:#263238"></path><path d="M173.67,244.42c3.71,9.3-1.44,12.57-3.45,13.37-1.82.73-8.11,3-12.76-5.91s-1.5-13.53,2.58-15.4S170,235.12,173.67,244.42Z" style="fill:#f7a9a0"></path><path d="M171.37,242.86a5.2,5.2,0,0,1-.69.08,1.08,1.08,0,0,1-.71-.05.34.34,0,0,1-.14-.41.87.87,0,0,1,.76-.47,1.29,1.29,0,0,1,.92.17A.38.38,0,0,1,171.37,242.86Z" style="fill:#263238"></path><path d="M165.2,245.27a5.88,5.88,0,0,0,.6-.35c.23-.14.42-.22.54-.47a.35.35,0,0,0-.14-.41.85.85,0,0,0-.89.08,1.29,1.29,0,0,0-.63.69A.38.38,0,0,0,165.2,245.27Z" style="fill:#263238"></path><path d="M167.16,246.7s0,.05,0,.08c.26.63.44,1.4-.06,1.82,0,0,0,0,0,0C167.76,248.28,167.5,247.26,167.16,246.7Z" style="fill:#263238"></path><path d="M166.35,246.24c-1.06.29-.39,2.39.59,2.12S167.23,246,166.35,246.24Z" style="fill:#263238"></path><path d="M166,246.48c-.14.18-.26.44-.47.54a.84.84,0,0,1-.75-.21s0,0,0,0c.12.41.4.77.85.69s.58-.51.55-.95C166.13,246.5,166,246.41,166,246.48Z" style="fill:#263238"></path><path d="M170.87,245.35s.06,0,.07,0c.19.65.53,1.37,1.18,1.39a0,0,0,0,1,0,0C171.38,247,171,246,170.87,245.35Z" style="fill:#263238"></path><path d="M171.22,244.48c1-.42,1.79,1.64.85,2S170.37,244.84,171.22,244.48Z" style="fill:#263238"></path><path d="M171.71,244.45c.2.05.43.19.63.13s.32-.36.38-.62c0,0,0,0,0,0,.16.39.18.85-.17,1.06s-.69,0-.94-.4C171.61,244.57,171.62,244.44,171.71,244.45Z" style="fill:#263238"></path><path d="M168.39,251.84a1,1,0,0,0,.66.24,1.91,1.91,0,0,0,.66-.35s0,0,0,0a.91.91,0,0,1-.74.58.74.74,0,0,1-.68-.44S168.36,251.83,168.39,251.84Z" style="fill:#263238"></path><path d="M168.44,250.35a2.26,2.26,0,0,0,1.78.35,2.64,2.64,0,0,0,.77-.28l.14-.08.13-.07a.17.17,0,0,0,.06-.19h0l0-.06h0l0-.06c-.18-.47-.53-1.18-.53-1.18.21,0,1.26,0,1.14-.19a34.29,34.29,0,0,0-3.46-6c0-.06-.14,0-.1.07.86,2,2.06,3.75,3,5.7a3.84,3.84,0,0,0-1.11.11c-.06.05.69,1.34.76,1.57v0a3.17,3.17,0,0,1-2.45.23C168.41,250.26,168.38,250.32,168.44,250.35Z" style="fill:#263238"></path><path d="M158.33,251.63c2.26-.84.59-8.09.38-9,.16.55,1,3.47,1.3,3.52a2.19,2.19,0,0,0,.67-.38h0a6.84,6.84,0,0,1-.26-1.06c0-.17.18.33.47.92.12-.08.24-.17.38-.25a9.05,9.05,0,0,1-.51-2.28c0-.29.46.91,1.08,1.9a29.15,29.15,0,0,1,5.63-3c.57-.21,1.06-.36,1.5-.49a16,16,0,0,1-.55-1.55,7.51,7.51,0,0,1,.88,1.47l.67-.17c-.34-1.23-1.55-3-1.26-2.73a9,9,0,0,1,2.15,2.58c.87-.11,1.15,0,1.11-.24a10.64,10.64,0,0,0-5.13-5.23c-3.75-1.74-9.67-.53-11.52,4.68a7.84,7.84,0,0,0-1.57,5.52C154.27,248.74,157,252.11,158.33,251.63Z" style="fill:#263238"></path><path d="M159.22,251.35s-3-2.36-4.12-1.2,1.75,5,3.52,5.13a1.7,1.7,0,0,0,1.91-1.53Z" style="fill:#f7a9a0"></path><path d="M156,251.24s0,0,0,0a4.28,4.28,0,0,1,2.89,1.93.94.94,0,0,0-1.42.15,0,0,0,0,0,0,0,1.05,1.05,0,0,1,1.2,0,5.55,5.55,0,0,1,.8.73.11.11,0,0,0,.17-.13l0,0C159.23,252.58,157.52,250.92,156,251.24Z" style="fill:#263238"></path><path d="M159.59,254.51a.5.5,0,1,1-1,.29.5.5,0,0,1,1-.29Z" style="fill:#fff"></path><path d="M196,234.67s-9-8.3-15.53-10.19c-2.76-.79-14.9-1.5-15.17,1.43C165,228.56,175.5,228,175.5,228s-10.63-.36-10.34,2.89,12.05,1,12.05,1-10.94-.12-10.11,3.18c.63,2.49,11.39,1.08,11.39,1.08s-9.4,0-8.86,2.55c.59,2.87,10.61,2.19,10.61,2.19,1,4.82,3,7,5.81,8.13C186.74,249.3,196,234.67,196,234.67Z" style="fill:#f7a9a0"></path><path d="M179.19,227.87c-1.25-.08-2.51-.18-3.77-.16s-2.5.1-3.74.24a21.4,21.4,0,0,0-4.79,1,46.18,46.18,0,0,1,8.55-.89c1.25,0,2.5-.11,3.75-.14C179.22,227.92,179.21,227.88,179.19,227.87Z" style="fill:#263238"></path><path d="M179.35,232.39c-1.59,0-3.18-.14-4.78-.11s-3.1.19-4.68.33c-.13,0-.08.07,0,.06,1.59-.07,3.07,0,4.66-.07s3.18-.17,4.77-.17C179.38,232.43,179.38,232.39,179.35,232.39Z" style="fill:#263238"></path><path d="M180.2,236.24a36,36,0,0,0-7.33.38c-.12,0-.05.09.07.08,2.44-.17,4.34-.32,7.25-.38C180.24,236.32,180.25,236.24,180.2,236.24Z" style="fill:#263238"></path></g><g id="freepik--character-1--inject-25"><path d="M127.22,454c-1.42.46-41.71-.06-43.23-1.06-.59-.36-.85-6.24-1-13.35v-.22c0-1.47,0-3,0-4.51,0-.21,0-.42,0-.63l2-20.9,27,.27-2.66,20.71,0,.82-.16,4.28,0,.44s15.34,7.1,16.89,8.37S128.63,453.52,127.22,454Z" style="fill:#ad6359"></path><path d="M127.22,454c-1.42.46-41.71-.06-43.23-1.06-.59-.36-.85-6.24-1-13.35v-.22c0-1.47,0-3,0-4.51,0-.21,0-.42,0-.63l26.25.08,0,.82-.16,4.28,0,.44s15.34,7.1,16.89,8.37S128.63,453.52,127.22,454Z" style="fill:#ebebeb"></path><path d="M127.22,454c-.73.24-11.67.21-22.38,0l-6.33-.15c-7.63-.21-13.94-.53-14.52-.91s-.85-6.08-1-13.05c0-.1,0-.2,0-.3v-.23h0l26,.05,0,.44s15.34,7.1,16.9,8.37S128.63,453.52,127.22,454Z" style="fill:#00D1FF"></path><path d="M126.78,452.41c-6.79-.26-34.2-.65-40.94-.38,0,0,0,0,0,0,6.73.4,34.15.57,40.94.45C126.92,452.52,126.92,452.41,126.78,452.41Z" style="fill:#263238"></path><path d="M111.91,439.5c-2.67-.54-5.94-.17-8,1.71-.08.07,0,.18.11.16a37.73,37.73,0,0,1,7.89-1.54A.17.17,0,0,0,111.91,439.5Z" style="fill:#263238"></path><path d="M113.82,440.68c-2.66-.53-5.94-.16-8,1.72-.08.07,0,.18.11.15a38.4,38.4,0,0,1,7.88-1.53A.17.17,0,0,0,113.82,440.68Z" style="fill:#263238"></path><path d="M115.74,441.87c-2.67-.53-5.94-.16-8,1.71-.08.08,0,.19.11.16a37.74,37.74,0,0,1,7.88-1.53A.17.17,0,0,0,115.74,441.87Z" style="fill:#263238"></path><path d="M104.84,454l-6.33-.15c-7.63-.21-13.94-.53-14.52-.91s-.85-6.08-1-13.05c0-.1,0-.2,0-.3v-.23h0C86.6,441.83,99.14,450.17,104.84,454Z" style="fill:#263238"></path><path d="M112,438.36H81.2s6.2-71.91,6-73.17c-.31-1.61-2.13-8.89-4.55-18.4-.76-3-1.57-6.16-2.42-9.47-2.3-8.95-4.83-18.73-7-27.23-3.3-12.75-5.89-22.65-5.89-22.65h26.1s3,9.64,6.87,22.18c6.25,20.39,14.59,48.44,15.41,55.26C117,375.9,112,438.36,112,438.36Z" style="fill:#455a64"></path><path d="M110.62,433.1c-4.7-.09-3.35-.13-8.05-.18-2.3,0-17.42-.15-19.58.21,0,0,0,.08,0,.09,2.16.36,17.28.23,19.58.2,4.7,0,3.35-.08,8.05-.18A.07.07,0,0,0,110.62,433.1Z" style="fill:#263238"></path><path d="M93,360.8c-1-4.46-2.52-8.82-3.83-13.19q-4-13.31-8.06-26.61-2-6.66-4.06-13.3c-.69-2.24-1.37-4.47-2.07-6.71s-1.47-4.35-2.09-6.55c-.25-.9-.39-.41-.06.73.65,2.3,1.29,4.6,2,6.89q2,6.79,4,13.6,4,13.53,8.08,27c1.35,4.52,2.72,9,4.07,13.55a54.81,54.81,0,0,1,1.67,6.56,29.89,29.89,0,0,1,.27,7c-.3,4.71-.84,9.41-1.28,14.11s-.87,9.42-1.3,14.13q-1.31,14.06-2.58,28.12c-.11,1.19-.21,2.38-.31,3.57,0,.39.58.36.62,0,1-9.27,1.79-18.57,2.66-27.85s1.73-18.47,2.59-27.71c.22-2.32.47-4.64.47-7A28.7,28.7,0,0,0,93,360.8Z" style="fill:#263238"></path><path d="M90.39,287.44c-1.81,14-5.26,40.29-7.78,59.35-5.88-23.09-15.35-59.35-15.35-59.35Z" style="fill:#263238"></path><path d="M94.73,454.16c-1.43.47-42.3.09-43.85-.91-.59-.37-.88-6.33-1-13.54v-.23c0-1.48-.06-3-.07-4.56,0-.22,0-.43,0-.64-.09-10.41.66-21.2.66-21.2l26.71.17-.74,21,0,.84-.15,4.34,0,.45s15.58,7.14,17.17,8.43S96.16,453.7,94.73,454.16Z" style="fill:#ad6359"></path><path d="M94.73,454.16c-1.43.47-42.3.09-43.85-.91-.59-.37-.88-6.33-1-13.54v-.23c0-1.48-.06-3-.07-4.56,0-.22,0-.43,0-.64l26.63,0,0,.84-.15,4.34,0,.45s15.58,7.14,17.17,8.43S96.16,453.7,94.73,454.16Z" style="fill:#ebebeb"></path><path d="M94.73,454.16c-1.43.47-42.3.09-43.85-.91-.59-.37-.88-6.33-1-13.54v-.23l26.37-.05,0,.45s15.58,7.14,17.17,8.43S96.16,453.7,94.73,454.16Z" style="fill:#00D1FF"></path><path d="M94.28,452.57c-6.89-.23-34.69-.52-41.51-.23-.06,0-.06,0,0,.05,6.82.38,34.62.44,41.51.3C94.43,452.68,94.43,452.58,94.28,452.57Z" style="fill:#263238"></path><path d="M79.15,439.54c-2.7-.53-6-.15-8.11,1.76-.08.08,0,.19.11.16a38.72,38.72,0,0,1,8-1.58A.17.17,0,0,0,79.15,439.54Z" style="fill:#263238"></path><path d="M81.1,440.73c-2.71-.53-6-.14-8.12,1.77-.08.07,0,.19.12.16a38,38,0,0,1,8-1.58A.18.18,0,0,0,81.1,440.73Z" style="fill:#263238"></path><path d="M83,441.93c-2.7-.53-6-.14-8.11,1.77-.08.07,0,.19.11.16a38.22,38.22,0,0,1,8-1.59A.17.17,0,0,0,83,441.93Z" style="fill:#263238"></path><path d="M92.51,287.44s-.6,12.48-3.46,22.37c-.23.82-.47,1.62-.74,2.4a45.42,45.42,0,0,0-7.52,3.86s-.3,10.05-.6,21.25c-.34,12.52-.68,26.49-.61,29.45.26,11.09-1.39,72-1.39,72l-30.78.12s5.56-68.06,5.52-72.12c-.06-6.53,1.49-35.38,2.69-56.42.73-13,1.34-22.95,1.34-22.95Z" style="fill:#455a64"></path><path d="M77.14,433.33c-4.71-.07-3.36-.12-8.06-.14-2.3,0-17.43-.08-19.57.28a.05.05,0,0,0,0,.1c2.15.34,17.27.15,19.57.12,4.71-.07,3.35-.1,8.06-.22C77.22,433.47,77.22,433.34,77.14,433.33Z" style="fill:#263238"></path><path d="M59.54,291.9c-.56,17.17-1.16,34.35-1.93,51.52S55.8,377.86,54.36,395c-.81,9.6-1.57,23.11-2.6,32.69,0,.06.09.08.1,0,2.24-17,3.49-38.1,4.59-55.25S58.3,338.19,58.88,321c.33-9.71.59-19.42.88-29.13C59.76,291.75,59.55,291.76,59.54,291.9Z" style="fill:#263238"></path><path d="M89.59,311.46a57.12,57.12,0,0,0-8.8,4.61.1.1,0,0,0,.09.18c3-1.44,6-2.83,8.89-4.43A.2.2,0,0,0,89.59,311.46Z" style="fill:#263238"></path><path d="M89.76,300.87c-.2,1.09-.47,2.18-.71,3.26s-.38,2.07-.65,3.07A5.25,5.25,0,0,1,87,309.78c-.4.37-.84.7-1.27,1l-.72.55c0-.15.06-.3.09-.44l.21-1.25c.15-.92.3-1.84.44-2.77.28-1.81.54-3.65.91-5.45a.06.06,0,1,0-.11,0c-.45,1.78-1,3.54-1.34,5.34-.2.88-.89,5.23-.92,5.53s-.06.64-.07,1a4,4,0,0,0,0,1c0,.08.12.06.15,0h0a4.23,4.23,0,0,0,.27-.94c.08-.31.15-.63.21-.94,0-.12,0-.23,0-.35.43-.26.83-.61,1.23-.9s.87-.61,1.28-1A4.84,4.84,0,0,0,89,307.73a18.29,18.29,0,0,0,.51-3.12c.14-1.24.24-2.48.41-3.71C89.88,300.82,89.77,300.79,89.76,300.87Z" style="fill:#263238"></path><path d="M72.4,262.76c14.53,13.8,25.16,20.69,30,18.91,5.3-1.95,16.76-21.22,21.05-31,.6-1.36-17-8.12-17.85-6.65-3.18,5.8-9.54,18.66-11.13,19.89-1,.79-6.56-2.37-17.25-6.63C67.65,253.48,65.92,256.62,72.4,262.76Z" style="fill:#ad6359"></path><path d="M122.94,251.65c1.28-2,5.4-9.79,6.55-15.87.56-2.95,1.27-11.6-1-12.2s-2.67,1.91-2.67,1.91-.24-3.7-2.55-4.1-2.84,3.52-2.84,3.52-.53-3.78-2.86-4-2.21,3.81-2.21,3.81-.32-3.48-2.32-2.87c-2.4.74-1.08,7.08-1.86,10.31-.18.73-4.66,14.62-4.66,14.62Z" style="fill:#ad6359"></path><path d="M115.36,224.75c1,4.67.58,6.88-1.07,11.27a.07.07,0,1,0,.13.06c2-4.15,2.89-6.85,1.17-11.39C115.5,224.47,115.32,224.53,115.36,224.75Z" style="fill:#263238"></path><path d="M120.49,224.71c.58,4.94.18,7.33-1.21,12.06,0,.07.09.11.11,0,1.76-4.52,2.58-7.23,1.36-12.09C120.69,224.5,120.47,224.49,120.49,224.71Z" style="fill:#263238"></path><path d="M125.89,225.89c.21,4.82-.11,7.47-2,11.88a.09.09,0,0,0,.16.09,16.06,16.06,0,0,0,2-12C126,225.61,125.88,225.59,125.89,225.89Z" style="fill:#263238"></path><path d="M106.85,246.71a58.11,58.11,0,0,1-3.31-8c-.65-2.6.5-13.21,2.8-13.09,3,.15,3.52,6.4,3.39,9.5,0,0,6.88.35,8.24,4.75S106.85,246.71,106.85,246.71Z" style="fill:#ad6359"></path><path d="M107.14,226c2.62,2.1,2.18,6.15,2.27,9.17a.28.28,0,0,0,.37.26c2.88.34,6.84,1.65,8.28,4.34a.07.07,0,0,0,.13-.05c-1.16-3.1-4.94-4.71-8.11-4.88,0-3.09.21-7.17-2.92-8.86C107.15,226,107.13,226,107.14,226Z" style="fill:#263238"></path><path d="M83.65,274.94l6.92-12.52s-9.92-5-16.36-6.89-9.34-.08-2.79,7.24A141.16,141.16,0,0,0,83.65,274.94Z" style="fill:#00D1FF"></path><path d="M88.05,262q-1.71,2.49-3.28,5.07c-.52.85-1,1.69-1.55,2.55s-1,1.81-1.49,2.69c0,.06,0,.13.09.07.53-.84,1.12-1.64,1.66-2.47s1.07-1.74,1.61-2.62q1.57-2.58,3-5.24C88.15,262,88.08,261.9,88.05,262Z" style="fill:#263238"></path><path d="M83.68,275c-1.46-1.54-3.12-2.86-4.66-4.3s-3.09-2.91-4.58-4.42c0,0-.1,0-.06.06.7.79,1.39,1.59,2.11,2.36.37.38.74.75,1.12,1.11-.18-.11-.35-.23-.53-.33a17.72,17.72,0,0,0-1.67-.88,0,0,0,0,0,0,0c.51.37,1,.73,1.58,1.05l1.2.65.66.63a34.5,34.5,0,0,0,4.78,4.1C83.65,275.11,83.72,275,83.68,275Z" style="fill:#263238"></path><path d="M54.15,307.35c.12.11,45.22-3,45.6-3.46.53-.7-13.75-46.53-17.32-53.27-1.53-2.87-8.82-3.28-11.71-.57-7.22,6.79-12.24,28.74-13.29,35.32C55.67,296.22,53.75,307,54.15,307.35Z" style="fill:#00D1FF"></path><path d="M76.46,264.43a5.37,5.37,0,0,1,.45,1.44,5.07,5.07,0,0,1-.8-1.28,5.26,5.26,0,0,1-.45-1.44A5.07,5.07,0,0,1,76.46,264.43Zm4.37,17.37a5.35,5.35,0,0,0,.44,1.44,5.71,5.71,0,0,0,.8,1.28,5.25,5.25,0,0,0-.44-1.44A5.71,5.71,0,0,0,80.83,281.8Zm5.11,20.29a5.37,5.37,0,0,0,.45,1.44,5.07,5.07,0,0,0,.8,1.28,4.94,4.94,0,0,0-.45-1.44A5.07,5.07,0,0,0,85.94,302.09ZM65.09,277.34a4.94,4.94,0,0,0,.45,1.44,5.07,5.07,0,0,0,.8,1.28,5.37,5.37,0,0,0-.45-1.44A5.71,5.71,0,0,0,65.09,277.34Zm-6.57,13.24a5.92,5.92,0,0,0,1.25,2.72,5.26,5.26,0,0,0-.45-1.44A5.71,5.71,0,0,0,58.52,290.58Zm16.7,9.19a5.28,5.28,0,0,0,.44,1.43,5.71,5.71,0,0,0,.8,1.28A5,5,0,0,0,76,301,5.43,5.43,0,0,0,75.22,299.77Zm14.44-25.85a5.25,5.25,0,0,0,.44,1.44,5.41,5.41,0,0,0,.81,1.28,5.37,5.37,0,0,0-.45-1.44A5.71,5.71,0,0,0,89.66,273.92Zm-19.39-2.38a5.35,5.35,0,0,0,1.44-.44,5.71,5.71,0,0,0,1.28-.8,5.25,5.25,0,0,0-1.44.44A5.71,5.71,0,0,0,70.27,271.54ZM66.18,288a5.14,5.14,0,0,0,1.44-.45,5,5,0,0,0,1.27-.8,5.48,5.48,0,0,0-1.44.45A5.65,5.65,0,0,0,66.18,288Zm2.17,18.41.8-.05.31-.14a5.48,5.48,0,0,0,1.27-.79,5.12,5.12,0,0,0-1.44.44A5.56,5.56,0,0,0,68.35,306.44Zm16.86-15.56a5.77,5.77,0,0,0,2.72-1.24,5.25,5.25,0,0,0-1.44.44A5.71,5.71,0,0,0,85.21,290.88ZM70.27,257.29a5.35,5.35,0,0,0,1.44-.44,5.71,5.71,0,0,0,1.28-.8,5.25,5.25,0,0,0-1.44.44A5.71,5.71,0,0,0,70.27,257.29Zm-4,2.4a5.47,5.47,0,0,0-.7,1.33,5.17,5.17,0,0,0-.34,1.47,4.85,4.85,0,0,0,.7-1.33A5.17,5.17,0,0,0,66.23,259.69Zm-6.05,21.06a5.53,5.53,0,0,0-.7,1.34,5.1,5.1,0,0,0-.34,1.46,5,5,0,0,0,.7-1.33A5.17,5.17,0,0,0,60.18,280.75Zm.52,19a5.53,5.53,0,0,0-.7,1.34,5,5,0,0,0-.34,1.46,5,5,0,0,0,.7-1.33A5.17,5.17,0,0,0,60.7,299.72Zm21.46-27.87a5.87,5.87,0,0,0-1,2.8,5.87,5.87,0,0,0,1-2.8Zm-6.58,17a5.72,5.72,0,0,0-1,2.8,5.72,5.72,0,0,0,1-2.8Zm17.86,6.95a5.87,5.87,0,0,0-1,2.8,5.87,5.87,0,0,0,1-2.8ZM81.33,257.27a5.57,5.57,0,0,0-.71,1.34,5.36,5.36,0,0,0-.33,1.46,5.29,5.29,0,0,0,.7-1.33A5.17,5.17,0,0,0,81.33,257.27Zm5.93,9.9a5.66,5.66,0,0,0-1.33-.7,5.17,5.17,0,0,0-1.47-.34,4.85,4.85,0,0,0,1.33.7A5.17,5.17,0,0,0,87.26,267.17ZM69.07,296.88a5.61,5.61,0,0,0-2.8-1,5.47,5.47,0,0,0,1.33.7A5.17,5.17,0,0,0,69.07,296.88Zm24-12.74a5.66,5.66,0,0,0-1.33-.7,5.17,5.17,0,0,0-1.47-.34,5.87,5.87,0,0,0,2.8,1ZM61.45,268.79a5.82,5.82,0,0,0,1.12.55,5.53,5.53,0,0,0,1.47.34,5.18,5.18,0,0,0-1.33-.71,5.58,5.58,0,0,0-1.22-.3A.42.42,0,0,0,61.45,268.79Zm21.63,28.09a5.7,5.7,0,0,0-1.33-.71,5.52,5.52,0,0,0-1.47-.33,5.47,5.47,0,0,0,1.33.7A5.17,5.17,0,0,0,83.08,296.88Zm-6.8-18.5a5.29,5.29,0,0,0-1.33-.7,5.17,5.17,0,0,0-1.47-.34,5.24,5.24,0,0,0,1.34.71A5.44,5.44,0,0,0,76.28,278.38Zm1.59-26.13a5.53,5.53,0,0,0-1.34-.7,5.17,5.17,0,0,0-1.47-.34,5.24,5.24,0,0,0,1.34.71A5.52,5.52,0,0,0,77.87,252.25Z" style="fill:#fff"></path><path d="M82.7,251.36a0,0,0,0,0,0,0c.27,2,.75,6.77-2.48,6.71a6.89,6.89,0,0,1-3.57-1.48A17.87,17.87,0,0,1,73.7,254a26.4,26.4,0,0,1-2.77-3.37s-.12,0-.08.06c.85,1.2,1.57,2.46,2.53,3.58a16.1,16.1,0,0,0,3.15,2.85,6.8,6.8,0,0,0,3.79,1.42,2.59,2.59,0,0,0,2.5-2.13A11.38,11.38,0,0,0,82.7,251.36Z" style="fill:#263238"></path><path d="M80.21,255.88c-2.29.38-6.42-3.64-7.77-6.54-.09-.2.34-2.2.74-4.66.24-1.49.47-3.16.58-4.7l9.48,3a24.56,24.56,0,0,0-1.32,5.84,4.33,4.33,0,0,0,0,.63.37.37,0,0,1,0,.11C82.07,250.75,82.43,255.5,80.21,255.88Z" style="fill:#ad6359"></path><path d="M81.94,249.43s0,.06,0,.1a6.53,6.53,0,0,1-1,0c-5.57-.5-6.44-7.41-6.56-9.35l2.36.75,6.48,2a24.56,24.56,0,0,0-1.32,5.84A4.33,4.33,0,0,0,81.94,249.43Z" style="fill:#263238"></path><path d="M71.21,231.12c-.29,3.65,3.69,13.11,6.61,14.77,4.22,2.41,10.06,1.44,11.83-3.39,1.72-4.68-3.7-16.92-6.85-18.32C78.15,222.12,71.63,225.74,71.21,231.12Z" style="fill:#ad6359"></path><path d="M72.59,237.46c1.36,3.66,3.49,7.45,5.23,8.43,4.22,2.41,10.05,1.44,11.83-3.39.63-1.73.3-4.47-.54-7.33,0,.14.11,2.35-1,2.86a1.73,1.73,0,0,1-2-.43l-.85,0a6,6,0,0,1-3.73,2,7,7,0,0,1-5.73-1.48c-1.07-1-1.15-1.44-1.15-1.44Z" style="fill:#263238;opacity:0.2"></path><path d="M81.77,235.16s0,.05,0,.08c.28.63.5,1.4,0,1.85,0,0,0,0,0,0C82.45,236.73,82.15,235.71,81.77,235.16Z" style="fill:#263238"></path><path d="M80.93,234.73c-1.06.35-.29,2.44.69,2.12S81.81,234.44,80.93,234.73Z" style="fill:#263238"></path><path d="M85.5,233.78s.06,0,.07,0c.22.65.58,1.37,1.25,1.37,0,0,0,0,0,0C86.07,235.39,85.6,234.44,85.5,233.78Z" style="fill:#263238"></path><path d="M85.83,232.89c1-.47,1.87,1.59.93,2S85,233.28,85.83,232.89Z" style="fill:#263238"></path><path d="M79.75,234.08c.25-.18.46-.38.7-.59a1.45,1.45,0,0,0,.61-.73.48.48,0,0,0-.27-.51,1.18,1.18,0,0,0-1.15.3,1.7,1.7,0,0,0-.67,1A.5.5,0,0,0,79.75,234.08Z" style="fill:#263238"></path><path d="M86.25,231.53c-.31.06-.61.07-.92.1a1.44,1.44,0,0,1-.94-.09.47.47,0,0,1-.18-.55,1.19,1.19,0,0,1,1-.61,1.72,1.72,0,0,1,1.21.25A.5.5,0,0,1,86.25,231.53Z" style="fill:#263238"></path><path d="M83.67,241.33c.21.09.44.25.69.18a1.93,1.93,0,0,0,.63-.42s.05,0,0,0a.93.93,0,0,1-.69.66.76.76,0,0,1-.72-.39S83.64,241.32,83.67,241.33Z" style="fill:#263238"></path><path d="M83.63,239.14a2.39,2.39,0,0,0,1.84.43,2.64,2.64,0,0,0,.81-.26l.14-.07.14-.07a.17.17,0,0,0,.07-.2h0a.36.36,0,0,0,0-.07h0l0-.06c-.17-.5-.5-1.24-.5-1.24.21,0,1.3.09,1.19-.16a35.78,35.78,0,0,0-3.33-6.37c0-.06-.15,0-.12.06.82,2.07,2,4,2.83,6a4.34,4.34,0,0,0-1.16.07c-.06,0,.67,1.42.73,1.65v0a3.22,3.22,0,0,1-2.55.13C83.61,239,83.57,239.1,83.63,239.14Z" style="fill:#263238"></path><path d="M86,239.32a2.81,2.81,0,0,1-.81,1.13,1.21,1.21,0,0,1-.7.25c-.56,0-.72-.45-.74-.89a3,3,0,0,1,.05-.69A3.48,3.48,0,0,0,86,239.32Z" style="fill:#263238"></path><path d="M85.15,240.45a1.21,1.21,0,0,1-.7.25c-.56,0-.72-.45-.74-.89A1.28,1.28,0,0,1,85.15,240.45Z" style="fill:#ff98b9"></path><path d="M74,238.76c1.84-.58.5-5.09.5-5.09s2.72-1.23,3.12-5.49c0,0,4.24,1.37,7.16,0,4.59-2.1,2.88-8.31.76-9.13-3-1.15-6.89,2.63-6.89,2.63s-7.36-.18-8.23,5A3.63,3.63,0,0,0,68,231.06C68.65,234.5,72.6,239.2,74,238.76Z" style="fill:#263238"></path><path d="M73.93,234.37A6.5,6.5,0,0,0,77,231.5a4.91,4.91,0,0,0,0-4.49c0-.07.08-.13.12,0a5.59,5.59,0,0,1,.39,4.75,4.56,4.56,0,0,1-3.58,2.8C73.9,234.52,73.85,234.41,73.93,234.37Z" style="fill:#263238"></path><path d="M67.25,229.14a4.45,4.45,0,0,1,3.48-2.3c.09,0,.11.11,0,.12a4.12,4.12,0,0,0-3.07,2.83,5.12,5.12,0,0,0,.7,3.87,10.26,10.26,0,0,0,5.5,4.93s0,.08,0,.07a10.31,10.31,0,0,1-6.12-5.38C67.16,232,66.66,230.47,67.25,229.14Z" style="fill:#263238"></path><path d="M78.48,222a4.85,4.85,0,0,1,2.13-2.69,5.77,5.77,0,0,1,4.09-.61A3.28,3.28,0,0,1,87.05,221a5.75,5.75,0,0,1-.36,3.87s-.06,0,0,0a5.72,5.72,0,0,0,.16-3.47,3,3,0,0,0-2.37-2.15c-2.2-.38-5.05.5-5.83,2.83A.06.06,0,1,1,78.48,222Z" style="fill:#263238"></path><path d="M75.09,238.7s-3-2.64-4.24-1.5,1.54,5.34,3.38,5.56a1.77,1.77,0,0,0,2.08-1.49Z" style="fill:#ad6359"></path><path d="M71.68,238.38s0,.05,0,.05a4.43,4.43,0,0,1,2.91,2.18,1,1,0,0,0-1.48.08s0,.07,0,.06a1.08,1.08,0,0,1,1.26.08,5,5,0,0,1,.78.81c.09.09.26,0,.19-.12v0C75,240,73.34,238.14,71.68,238.38Z" style="fill:#263238"></path><rect x="105.79" y="219.8" width="15.64" height="10.87" transform="translate(273.93 420) rotate(167.31)" style="fill:#c7c7c7"></rect><polygon points="122.82 230.54 128.45 229.27 125.61 215.02 119.54 216.01 122.82 230.54" style="fill:#a6a6a6"></polygon><polygon points="97.57 239.13 109.78 236.37 104.25 216.56 93.54 218.97 97.57 239.13" style="fill:#a6a6a6"></polygon><polygon points="99.58 217.61 98.46 215.82 95.56 216.47 94.95 218.65 99.58 217.61" style="fill:#a6a6a6"></polygon><path d="M76.62,264.38C92.29,277.87,99.6,283.3,104,282c6.8-2,10.39-20.7,12.07-29.2.25-1.27-16.5-9-16.83-7.57-1.7,7.39-2.4,19.21-3.42,19.51s-9-5.29-18.75-9.52C68.87,251.67,70.24,258.88,76.62,264.38Z" style="fill:#ad6359"></path><path d="M119,225.29c1.5,1.47-2.44,4.88-2.44,4.88a3.91,3.91,0,0,1,2.62.35c1.38.81.71,3.33.71,3.33a4.74,4.74,0,0,1,2.7.82c1.25.9.94,3.54.94,3.54a4.2,4.2,0,0,1,1.92,2.21c.84,2.56-1.8,5.73-3.46,7.75s-8.25,6.24-9.43,7.17l-13.46-12.6s5.19-9.1,7.48-11.21C108.47,229.75,116.65,223.05,119,225.29Z" style="fill:#ad6359"></path><path d="M116.45,230.16a35.37,35.37,0,0,0-6.73,5.34s0,.11.07.07c2-2,4.64-3.43,6.74-5.3A.07.07,0,0,0,116.45,230.16Z" style="fill:#263238"></path><path d="M119.65,233.76a7.2,7.2,0,0,0-1.45,1.31c-.48.5-1,1-1.41,1.52-.93,1-1.83,2.08-2.7,3.16,0,.05,0,.12.07.07.92-1,1.86-2,2.83-3,.48-.5,1-1,1.46-1.47a8.64,8.64,0,0,0,1.33-1.44C119.83,233.81,119.73,233.7,119.65,233.76Z" style="fill:#263238"></path><path d="M123.45,238.25a5.08,5.08,0,0,0-1.24,1.25c-.41.48-.83,1-1.25,1.43-.83.95-1.67,1.9-2.53,2.81-.05,0,0,.12.06.07.89-.92,1.79-1.84,2.67-2.78l1.28-1.38a5.15,5.15,0,0,0,1.06-1.36S123.47,238.24,123.45,238.25Z" style="fill:#263238"></path><path d="M103.76,235.77c-1,.48-3.14-1.71-4.14-3.31s-3.78-3.27-5.13-2.58.14,4,1.2,6,3.8,8.66,3.61,9.92,4.75,1.58,4.75,1.58Z" style="fill:#ad6359"></path><path d="M97.34,258.12A41.91,41.91,0,0,0,96,264.58l-.32-.06a3.49,3.49,0,0,1-.54-.12,8,8,0,0,1-1-.4c-.06,0-.11.08,0,.12a9.63,9.63,0,0,0,1,.5,1.81,1.81,0,0,0,.89.16c-.36,2.69-.53,5.39-.68,8.08,0,.08.13.09.13,0,.18-2.47.55-4.95.89-7.4s.79-4.89,1.09-7.34C97.4,258.1,97.35,258.09,97.34,258.12Z" style="fill:#263238"></path><path d="M125.57,241.26c-1.39,6.8-9.58,11.39-9.6,11.47-.39,1.47-.6,3-.93,4.49s-.67,3-1,4.47-.71,2.92-1.1,4.37-.71,3.06-1.23,4.53a.07.07,0,0,0,.13,0c.41-1.51,1-3,1.42-4.47s.83-3,1.2-4.43.72-3,1-4.48a40.58,40.58,0,0,0,.81-4.35s9.13-4.91,9.37-11.62C125.63,241.25,125.57,241.22,125.57,241.26Z" style="fill:#263238"></path><path d="M125.15,239.39a4.89,4.89,0,0,0-1.52-1.34h0a4.14,4.14,0,0,0,.12-.86,4.6,4.6,0,0,0-.08-.84,3.27,3.27,0,0,0-.75-1.51,4,4,0,0,0-3-1.2,4.43,4.43,0,0,0,.15-1.58,2.23,2.23,0,0,0-.51-1.43,2.29,2.29,0,0,0-1.22-.66,3.45,3.45,0,0,0-.85-.07,1.83,1.83,0,0,0-.77.12s0,.07,0,.07a3.09,3.09,0,0,0,.68,0,4.22,4.22,0,0,1,.79.07,2.17,2.17,0,0,1,1.16.65,2.33,2.33,0,0,1,.48,1.34,6.53,6.53,0,0,1-.08,1.59.06.06,0,0,0,.08.06.15.15,0,0,0,.07,0,3.9,3.9,0,0,1,2.75,1.22,3.46,3.46,0,0,1,.63,1.41,4.61,4.61,0,0,1,.12.83,7.11,7.11,0,0,1,.06.92,4.85,4.85,0,0,1,1.35,1.28,3.92,3.92,0,0,1,.73,1.94c0,.07,0,0,.05,0A2.69,2.69,0,0,0,125.15,239.39Z" style="fill:#263238"></path><path d="M85.54,274.16l7-12.46s-9.87-5.08-16.3-7-9.34-.17-2.85,7.22A142.1,142.1,0,0,0,85.54,274.16Z" style="fill:#00D1FF"></path><path d="M90.05,261.2q-1.72,2.49-3.32,5.05c-.53.84-1.07,1.68-1.58,2.53s-1,1.8-1.51,2.68c0,.06,0,.13.09.07.54-.84,1.13-1.63,1.68-2.46s1.09-1.73,1.63-2.6q1.6-2.57,3.08-5.21C90.15,261.21,90.08,261.15,90.05,261.2Z" style="fill:#263238"></path><path d="M86.41,272.61c0,.06-.88,1.53-.9,1.55-1.43-1.52-3.05-2.85-4.57-4.28s-3.07-2.94-4.54-4.46c0,0-.09,0-.06.05.69.79,1.37,1.61,2.09,2.38.36.38.73.76,1.11,1.13l-.53-.35c-.53-.32-1.09-.61-1.66-.89,0,0,0,0,0,.05a18,18,0,0,0,1.57,1.06l1.2.66.65.64a37.69,37.69,0,0,0,4.85,4.35s.87-1.76.89-1.84S86.44,272.58,86.41,272.61Z" style="fill:#263238"></path><path d="M91.23,261c-1.94-.76-3.89-1.81-5.78-2.68s-3.87-1.73-5.82-2.52c0,0,0-.09,0-.07,1,.34,2,.66,3,1,.48.19,1,.39,1.45.6l-.52-.36a18.31,18.31,0,0,1-1.44-1.2s0-.06,0-.05c.53.33,1.06.68,1.56,1.06s.71.56,1.06.85l.84.37a35.53,35.53,0,0,1,5.69,2.84S91.21,261.05,91.23,261Z" style="fill:#263238"></path></g></svg>