<svg xmlns="http://www.w3.org/2000/svg" viewBox="0 0 750 500"><g id="freepik--background-complete--inject-17"><path d="M400.54,95h99.87s-9.9-27-25.14-27-20,18.66-20,18.66S445,76.46,436.53,76.46s-15.8,13.41-15.8,13.41S408.8,82.66,400.54,95Z" style="fill:#ebebeb"></path><path d="M367.71,138h46.67S404,122.85,395.74,122.85s-10.65,10.07-10.65,10.07-5.8-4.7-11.17-3.86S367.71,138,367.71,138Z" style="fill:#ebebeb;opacity:0.5"></path><path d="M49.65,119.38H96.32s-10.43-15.11-18.64-15.11S67,114.34,67,114.34s-5.8-4.7-11.17-3.86S49.65,119.38,49.65,119.38Z" style="fill:#ebebeb;opacity:0.5"></path><path d="M609.44,141.45h90.91s-12.45-27.79-25.77-29.53-19.68,20.65-19.68,20.65-8.59-7.91-15.35-7.91-12,10.42-12,10.42S614.07,127.94,609.44,141.45Z" style="fill:#ebebeb"></path><path d="M118.28,176.84h90.91s-12.45-27.8-25.77-29.53S163.73,168,163.73,168s-8.59-7.91-15.34-7.91-12,10.42-12,10.42S122.91,163.33,118.28,176.84Z" style="fill:#ebebeb"></path><path d="M99.17,86h61.41s-10.55-20.13-22-20.43-17.46,15.24-17.46,15.24S103.33,66.51,99.17,86Z" style="fill:#ebebeb;opacity:0.5"></path><path d="M536.65,186.91h61.41s-10.55-20.13-22-20.43-17.46,15.24-17.46,15.24S540.8,167.44,536.65,186.91Z" style="fill:#ebebeb;opacity:0.5"></path><path d="M271.84,233.93s9-14.54,9.36-24.76c.42-11.13-6.39-23-6.39-23l.53-.42s9.6,12.24,8.69,25.12c-.89,12.47-8.15,23.09-8.15,23.09Z" style="fill:#a6a6a6"></path><path d="M274.91,185.72s5.71-5.13,8.37-5,8,6.19,8,6.4-4.61-3.2-4.61-3.2l2.7,3.49-3.87-3.58,1.25,3-2.25-3.33.63,3.16-2.12-3L284.1,186l-1.69-1.89.62,1.69-1.45-1.5,1.16,2.16-1.95-2,.79,1.74s-1-1-1.17-1.2.33,1.16.33,1.16l-1.62-1.66.38,1.49-.83-.87.16.87-.83-.87.18.79-1.26-.83.17.42Z" style="fill:#a6a6a6"></path><path d="M275,185.68s9.15,1,11.35,2.64,5.4,7.31,5.4,7.31l-4.61-4.71,2.29,4.71-3.29-5,.67,4.16-2.41-4.7.91,4.12-1.74-4.7.57,4.49-2.11-4.9.58,3.53-1.78-3.95.66,3.49L279,187.57l.92,3.91-1.78-4.2.24,2-1.35-2.5.48,1.67L276,186.31l.21,1.35Z" style="fill:#a6a6a6"></path><path d="M275,185.72s.5-6.31,2.16-7.76,7.1-3.12,7.1-3.12L281,176.42l3.24-.29-4.4.91,3.53.21-3.8.46,3.6.95-4-.29,2.12.75-2.66.25,3.07.41-3.61.5h2.53l-3.53.91a15.64,15.64,0,0,1,2.47,0,16.53,16.53,0,0,1-2.76.84l1.51.2-1.72.29,1.29.5-1.66,0,1.29.34-1.42.37.58.25-1.08.52Z" style="fill:#a6a6a6"></path><path d="M275.07,185.64s-2.88,4.8-2.22,8.13,4.41,9.26,4.41,9.26l-1.87-3.78,2.61,2.41-2.93-3.78,2.93,1.7-2.62-2.66,2.37.88-2.16-2,2.41.91-2.41-1.87,2.16.54-2.82-1.82,2.66.82-2-1.24,1.91.29L275.07,192l2,.08-2.41-1.53,2.24.58-2.2-1.29,1.83.12s-1.5-1.12-1.58-1.12,1.41.25,1.41.25l-1.27-1.37.69-.12Z" style="fill:#a6a6a6"></path><path d="M275,185.72s-2.71-6.2-5.31-7.53-7.26-1.22-7.26-1.22l3.3.72-3,.25,4.9.47-4.68.42,5.79.63-5.18.39,4.35.75-2.3.58L269,181l-2.86.58,3.71.42-2.6.64h4.49l-2.61.74,2.77,0-1.71.44s2.43.53,2.63.53-1.44.11-1.44.11l2.68.55-.91.09Z" style="fill:#a6a6a6"></path><path d="M275,185.64s.09-7.68-1-9.64a6.86,6.86,0,0,0-3.66-2.69l2,1.53-2-.26,2.05,1.25-2.21-.17,2.65,1.17-2.16-.25,2,.91-1.33.06,1.85,1.08-1.57-.36,1.77,1.24-1.64-.44,2,1.38L272.2,180l1.91,1.37-1.41-.42,1.44.94-.86-.17,1.14.94-1-.44,1.13,1.16-.69-.25Z" style="fill:#a6a6a6"></path><path d="M275.07,185.86s-8.69-2.73-12.6-1.39-5.76,6-5.76,6l2.77-2.85-.88,3.08,2.49-3.69-.69,3.44,1.66-3.47-.58,3.58,1.91-3.77-.42,3.91,1.88-4.13-.49,3,1.88-3.43-1,4,2.16-4-.6,3.51c0-.16,1.55-3.32,1.55-3.32l-.28,2.3,1.19-2.16-.23,1.66,1.39-2-.47,1.88,1.39-1.88-.22,1.13a17.28,17.28,0,0,1,1.48-1.21C272.72,186,275.07,185.86,275.07,185.86Z" style="fill:#a6a6a6"></path><path d="M275.07,185.72s-5,1.3-6.55,3.49-.14,10.44-.14,10.44l0-4.77,1,2.27-.86-3.49,1.72,2.44-1.55-3.88,1.83,2.86-1.33-3.85L270.9,194l-1-3.71,1.41,2.88-.53-3.52,1,2.13-.47-2.74.88,1.62-.27-2.37.54,1.3.25-1.69.06.92.56-1.81v.92l.63-1.22Z" style="fill:#a6a6a6"></path><path d="M271,233.93h10.14s-.65-3.6,4-5.31a6.22,6.22,0,0,0-4.76,3s2.27-6.09,7.2-7.2a12.61,12.61,0,0,0-8.56,6.7s-1-5.33,6.31-8.28c0,0-6.6.5-9.11,8.73,0,0,1.33-7.15-4.15-10.14,0,0,3.43,3.38,2.93,7.64,0,0-1.49-5.2-7.86-5,0,0,6.2,2,6.7,6.2,0,0-2.16-3.32-5.71-3.43,0,0,3.16,1.49,3.66,3,0,0-2-1.83-3.71-.89C268,229,271.67,229.5,271,233.93Z" style="fill:#a6a6a6"></path><path d="M131.93,233.93s6.49-10.5,6.76-17.89c.3-8-4.62-16.64-4.62-16.64l.38-.3s6.94,8.84,6.28,18.14c-.64,9-5.88,16.69-5.88,16.69Z" style="fill:#a6a6a6"></path><path d="M134.14,199.1s4.13-3.71,6.05-3.59,5.8,4.47,5.8,4.62-3.34-2.31-3.34-2.31l1.95,2.52-2.79-2.58.9,2.16-1.62-2.4.45,2.28L140,197.61l.78,1.68-1.23-1.36.45,1.21-1-1.08.84,1.56-1.41-1.44.57,1.26-.84-.87c-.12-.12.24.84.24.84l-1.17-1.2.27,1.08-.6-.63.12.63-.6-.63.13.57-.91-.6.12.3Z" style="fill:#a6a6a6"></path><path d="M134.18,199.07s6.61.7,8.2,1.9,3.91,5.29,3.91,5.29L143,202.85l1.65,3.41-2.37-3.63.48,3L141,202.24l.66,3-1.26-3.39.42,3.24-1.53-3.54.42,2.55-1.29-2.85.48,2.52-1.74-3.31.66,2.83-1.28-3,.17,1.48-1-1.81.35,1.21-1.11-1.58.15,1Z" style="fill:#a6a6a6"></path><path d="M134.2,199.1s.36-4.56,1.57-5.61,5.12-2.26,5.12-2.26l-2.33,1.15,2.33-.21-3.17.66,2.55.15-2.75.33,2.6.69-2.88-.21,1.53.54-1.92.18,2.22.3-2.61.36h1.83l-2.56.65a11.86,11.86,0,0,1,1.79,0,11.42,11.42,0,0,1-2,.61l1.1.15-1.25.21.94.36-1.21,0,.94.24-1,.27.42.18-.78.37Z" style="fill:#a6a6a6"></path><path d="M134.26,199s-2.08,3.47-1.6,5.87,3.18,6.69,3.18,6.69l-1.35-2.73,1.89,1.74-2.12-2.73,2.12,1.23-1.9-1.92,1.72.63-1.56-1.47,1.74.66-1.74-1.35,1.56.39-2-1.32,1.92.59-1.47-.89,1.38.21-1.73-1,1.43.06L134,202.57l1.62.42-1.59-.93,1.32.09s-1.08-.81-1.14-.81,1,.18,1,.18l-.92-1,.5-.09Z" style="fill:#a6a6a6"></path><path d="M134.2,199.1s-1.95-4.48-3.83-5.44a13.8,13.8,0,0,0-5.25-.88l2.39.52-2.19.18,3.55.34-3.39.3,4.18.46-3.74.28,3.15.54-1.66.42,2.48-.11-2.06.43,2.68.3-1.88.46h3.24l-1.88.54,2,0-1.24.32s1.76.38,1.9.38-1,.08-1,.08l1.94.4-.66.06Z" style="fill:#a6a6a6"></path><path d="M134.18,199s.07-5.55-.75-7a5,5,0,0,0-2.64-1.94l1.42,1.1-1.42-.18,1.48.9-1.6-.12,1.92.84-1.56-.18,1.44.66-1,0,1.34.78-1.14-.26,1.28.9-1.18-.32,1.44,1-1.06-.34,1.38,1-1-.31,1,.68-.62-.12.82.68-.7-.32.82.84-.5-.18Z" style="fill:#a6a6a6"></path><path d="M134.26,199.2s-6.28-2-9.1-1S121,202.5,121,202.5l2-2.06-.64,2.22,1.8-2.66-.5,2.48,1.2-2.5-.42,2.58,1.38-2.72-.3,2.82,1.36-3-.36,2.16,1.36-2.47-.74,2.91,1.56-2.91-.44,2.53c0-.12,1.12-2.4,1.12-2.4l-.2,1.66.86-1.56-.16,1.2,1-1.43-.34,1.35,1-1.35-.16.81a13.71,13.71,0,0,1,1.07-.87C132.56,199.28,134.26,199.2,134.26,199.2Z" style="fill:#a6a6a6"></path><path d="M134.26,199.1s-3.61.93-4.73,2.52-.1,7.54-.1,7.54l0-3.44.76,1.64-.62-2.52,1.24,1.76-1.12-2.8,1.32,2.06-1-2.78,1.22,2-.76-2.68,1,2.08-.38-2.54.74,1.54-.34-2,.64,1.16L132,201l.39,1,.18-1.23.05.67L133,200v.66l.46-.88Z" style="fill:#a6a6a6"></path><path d="M131.29,233.93h7.32s-.47-2.6,2.89-3.84a4.51,4.51,0,0,0-3.45,2.2s1.64-4.4,5.2-5.2a9.11,9.11,0,0,0-6.18,4.84s-.72-3.85,4.56-6c0,0-4.77.36-6.58,6.3,0,0,1-5.16-3-7.32,0,0,2.48,2.44,2.12,5.52a5.44,5.44,0,0,0-5.68-3.6s4.48,1.44,4.84,4.48a5.71,5.71,0,0,0-4.12-2.48s2.28,1.08,2.64,2.16c0,0-1.44-1.32-2.68-.64C129.17,230.37,131.81,230.73,131.29,233.93Z" style="fill:#a6a6a6"></path><path d="M175,234h6.91s-11.76-10-13.61-19.81,1.49-14.1,1.49-14.1l-.71-.43a22.4,22.4,0,0,0-2,14.75C168.87,222.64,175,234,175,234Z" style="fill:#a6a6a6"></path><path d="M169.1,200.46s-6.27,2.33-8.26,4.18-2.47,9.36-2.47,9.36l1.33-5.23-.57,4.47,1.61-5.75-.14,5.65,1.09-7.12.1,5.79.71-6.13.52,4.68.24-5,.48,3.8.57-4.61-.15,4.13,1.29-4.75-.24,3,1.4-3.28-.5,2.47,1-3.09-.24,1.71Z" style="fill:#a6a6a6"></path><path d="M169.1,200.46s3.66,2.14,4.19,5.13-.76,9.12-.76,9.12l-.05-4.85-1.22,3.23.7-4.7-1.19,3.47.49-4.63-1.11,2.44.76-3.94-1.19,1.85.86-3.23-1.24,1.9.72-3.42-1,1.62.48-2.61-.76,1,.52-1.66Z" style="fill:#a6a6a6"></path><path d="M168.82,201s-2.47-4.46-6.41-5.83-8.22.66-8.22.66l4.61-.28-3.09,1.18,4.46-.42-3.42,1.8,4.75-1.19s-3,2.95-2.85,2.76,3.66-2.42,3.66-2.42l-2,3.18,3.18-2.59L161.5,201l2.95-2.37-2.38,2.76,3.52-1.71-1.85,1.85,2.61-1.09-1.14,1.09,2.23-1.09Z" style="fill:#a6a6a6"></path><path d="M169.1,200.46s.38-7.32-1.28-10.74-7.31-5.13-7.31-5.13l3.8,3-3.8-1.48,4.31,2.33s-3.51-.62-3.65-.66l4.18,1.61-4.27-.09,4.37.95-3.95.14,4.14,1-4.14.14,5.11,1.05-4.25-.34,4.25,1.29-3.59-.15,4,1.38-3.32-.28,3.51,1.09-2.14-.14,2.62,1.09-1.95.09,2.18.62-1.35.24,1.73.71H166.4l1.94,1Z" style="fill:#a6a6a6"></path><path d="M169.1,201s3.71-2,6.7-1.62,6.84,3.71,6.84,3.71l-2.47-1.24,1.19,2.05-2-2.29.66,3-1.33-2.85-.09,2.56-1.38-2.8v2.66L176,201.55l.1,3.09-1.48-3.09-.19,2.19-.71-2.57-.35,1.81-.65-1.62-.52,1.43-.38-1.81-.34,1.44-.66-1.3Z" style="fill:#a6a6a6"></path><path d="M169.14,200.22s-.46-6.65,1-9.5,6-5.89,6-5.89l-2.73,3,3-.81-3.68,1.9h3.44l-3.84.81a18.1,18.1,0,0,0,2.61,1c.28,0-3.09-.43-3.09-.43l2.4,1.71-2.92-.76,2.61,1.4-2.76-.43,2.12,1-2.5-.1s1.74.83,1.81.83l-2.18-.12,1.9,1.19-2-.12,1.71.81-1.74-.05,1.17.43-1.4.33,1.35.15-1.4.35,1.26.26-1.31.19.93.31-1.21.22.71.42-.93.31.5.22Z" style="fill:#a6a6a6"></path><path d="M169.1,201s2.72-6.11,5.75-8,9.84-1.17,9.84-1.17l-5.53,1,4.1,1.6-5.17-.68,3.53,1.68-4.72-1.14,3.19,1.92-4.67-1.39,3.71,2.32-4.56-1.71,2.92,2.67L173.93,196l2.74,2.57-3.26-2,1.8,2.5-2.47-1.78,1.52,2.11-2.08-1.51,1.23,1.82-1.76-1,1.09,1.55-1.84-1.06,1.21,1.3s-1.6-.76-1.71-.76.71.76.71.76l-1.1-.24Z" style="fill:#a6a6a6"></path><path d="M170.81,234s.43-2.7-3.35-5.63c0,0,2.92,1.14,3.74,3.46a6.37,6.37,0,0,0-4.7-5.63,6.69,6.69,0,0,1,5.77,4.56s-.29-5-4.24-7.23c0,0,3.82,1.45,5.7,7,0,0,2.8-4,7.29-4.56,0,0-4.4,1.77-4.46,5.18,0,0,3.23-4.33,7.22-4,0,0-4.56,1.22-4.56,4.45a5.16,5.16,0,0,1,4.84-2.6s-5,2-2.88,5Z" style="fill:#a6a6a6"></path><path d="M309.08,234H315s-10-8.5-11.6-16.88,1.28-12,1.28-12l-.61-.37a19.13,19.13,0,0,0-1.7,12.57C303.86,224.33,309.08,234,309.08,234Z" style="fill:#a6a6a6"></path><path d="M304.06,205.42s-5.34,2-7,3.56-2.11,8-2.11,8l1.14-4.46-.49,3.81,1.38-4.9-.13,4.82.94-6.07.08,4.94.6-5.23.45,4,.2-4.23.41,3.24.48-3.93-.12,3.52,1.09-4-.2,2.55,1.19-2.8-.42,2.11.89-2.63-.2,1.45Z" style="fill:#a6a6a6"></path><path d="M304.06,205.42s3.12,1.82,3.56,4.37-.64,7.78-.64,7.78l0-4.13-1,2.75.59-4-1,3,.42-3.95-.95,2.08.65-3.36-1,1.58.73-2.75-1.06,1.62.61-2.92-.81,1.38.41-2.23-.65.89.44-1.41Z" style="fill:#a6a6a6"></path><path d="M303.82,205.9s-2.11-3.8-5.47-5-7,.56-7,.56l3.93-.24-2.64,1,3.81-.36-2.92,1.54,4.05-1s-2.55,2.51-2.43,2.35,3.12-2.06,3.12-2.06l-1.74,2.71,2.71-2.21-1.66,2.69,2.51-2-2,2.35,3-1.46-1.58,1.58,2.22-.93-1,.93,1.9-.93Z" style="fill:#a6a6a6"></path><path d="M304.06,205.42s.33-6.24-1.09-9.15-6.24-4.37-6.24-4.37l3.24,2.55-3.24-1.26,3.68,2s-3-.53-3.11-.57l3.56,1.38-3.64-.09,3.72.81-3.36.13,3.53.81-3.53.12,4.35.89-3.62-.29,3.62,1.1-3.05-.12,3.44,1.17-2.83-.24,3,.93-1.82-.12,2.23.93-1.66.08,1.86.53-1.16.2,1.48.6h-1.66l1.66.86Z" style="fill:#a6a6a6"></path><path d="M304.06,205.91s3.16-1.75,5.71-1.38,5.83,3.16,5.83,3.16l-2.11-1.06,1,1.74-1.74-1.94.56,2.55-1.13-2.43-.08,2.19-1.18-2.39v2.27l-1-2.27.08,2.63-1.25-2.63-.16,1.86L308,206l-.3,1.54-.55-1.38-.45,1.21-.32-1.54-.29,1.23-.56-1.1Z" style="fill:#a6a6a6"></path><path d="M304.09,205.22s-.39-5.67.82-8.1,5.14-5,5.14-5l-2.32,2.59,2.57-.69-3.14,1.62h2.93l-3.28.69a15.2,15.2,0,0,0,2.23.89c.24,0-2.63-.36-2.63-.36l2,1.45-2.49-.64,2.23,1.19-2.35-.36,1.8.83-2.12-.09s1.48.71,1.54.71l-1.87-.1,1.62,1-1.66-.1,1.46.69-1.48,0,1,.37-1.2.28,1.16.12-1.2.3,1.07.23-1.11.16.79.26-1,.18.61.37-.79.26.42.18Z" style="fill:#a6a6a6"></path><path d="M304.06,205.91s2.32-5.21,4.9-6.79,8.38-1,8.38-1l-4.71.82,3.5,1.37-4.41-.58,3,1.43-4-1,2.72,1.64-4-1.19,3.15,2-3.88-1.46,2.49,2.27-3-1.82,2.34,2.19-2.78-1.7,1.53,2.12-2.1-1.51,1.29,1.8-1.77-1.29,1.05,1.55-1.5-.88.93,1.33-1.57-.9,1,1.1s-1.36-.65-1.46-.65.61.65.61.65l-.94-.2Z" style="fill:#a6a6a6"></path><path d="M305.51,234s.37-2.3-2.85-4.79c0,0,2.49,1,3.19,2.94a5.43,5.43,0,0,0-4-4.8,5.72,5.72,0,0,1,4.92,3.89s-.24-4.28-3.61-6.16c0,0,3.25,1.24,4.86,5.93,0,0,2.38-3.43,6.21-3.89,0,0-3.76,1.51-3.81,4.41,0,0,2.76-3.68,6.16-3.39,0,0-3.89,1-3.89,3.8a4.41,4.41,0,0,1,4.13-2.22s-4.28,1.7-2.46,4.28Z" style="fill:#a6a6a6"></path><path d="M72,234H78.4s-10.82-9.18-12.52-18.22,1.38-13,1.38-13l-.66-.39A20.7,20.7,0,0,0,64.76,216C66.4,223.55,72,234,72,234Z" style="fill:#a6a6a6"></path><path d="M66.62,203.14S60.85,205.28,59,207s-2.28,8.61-2.28,8.61L58,210.79l-.53,4.11,1.49-5.29-.13,5.2,1-6.56.09,5.34.66-5.64.48,4.3.22-4.57.43,3.5.53-4.24-.13,3.8,1.18-4.37L63,209.13l1.29-3-.46,2.27,1-2.84-.22,1.58Z" style="fill:#a6a6a6"></path><path d="M66.62,203.14s3.37,2,3.85,4.72-.7,8.39-.7,8.39l0-4.46-1.13,3,.65-4.33-1.1,3.19.45-4.26-1,2.25.7-3.63-1.09,1.71.79-3-1.14,1.75.66-3.15-.88,1.49.44-2.4-.7,1,.48-1.53Z" style="fill:#a6a6a6"></path><path d="M66.36,203.66s-2.27-4.11-5.9-5.37-7.56.61-7.56.61l4.24-.26-2.84,1.09,4.1-.39L55.26,201l4.37-1.1s-2.76,2.71-2.62,2.54,3.36-2.23,3.36-2.23l-1.88,2.93,2.93-2.39-1.79,2.91,2.71-2.18L60.15,204l3.24-1.57-1.71,1.7,2.41-1-1.05,1,2.05-1Z" style="fill:#a6a6a6"></path><path d="M66.62,203.14s.35-6.73-1.18-9.88-6.73-4.72-6.73-4.72l3.5,2.75-3.5-1.35,4,2.14s-3.23-.57-3.36-.61L63.17,193l-3.94-.08,4,.87-3.63.13,3.8.88-3.8.13,4.7,1-3.91-.31,3.91,1.18-3.3-.13,3.71,1.27-3.06-.26,3.24,1-2-.13,2.4,1-1.79.08,2,.57-1.24.22,1.59.66H64.13l1.79.91Z" style="fill:#a6a6a6"></path><path d="M66.62,203.66s3.41-1.88,6.17-1.48,6.29,3.41,6.29,3.41l-2.27-1.14,1.09,1.88L76,204.23l.61,2.76-1.22-2.63-.09,2.36-1.27-2.58v2.45l-1-2.45.09,2.85-1.35-2.85-.18,2-.65-2.36-.33,1.67L70,204l-.48,1.31-.35-1.66-.31,1.32-.61-1.19Z" style="fill:#a6a6a6"></path><path d="M66.66,202.92s-.43-6.12.88-8.74,5.55-5.42,5.55-5.42l-2.51,2.79,2.77-.74L70,192.56h3.17l-3.55.74a15.69,15.69,0,0,0,2.41,1c.26,0-2.84-.39-2.84-.39l2.2,1.57-2.68-.69,2.4,1.29-2.53-.4,1.94.9-2.29-.09s1.59.77,1.66.77l-2-.11,1.74,1.09-1.79-.11,1.58.74-1.6,0,1.07.39-1.29.31,1.25.13-1.29.33,1.16.24-1.21.17.86.29-1.12.19.66.4-.85.28.45.2Z" style="fill:#a6a6a6"></path><path d="M66.62,203.66s2.5-5.61,5.29-7.32,9-1.08,9-1.08l-5.08.88,3.77,1.48L74.9,197l3.24,1.54-4.35-1,2.94,1.77L72.44,198l3.41,2.13-4.2-1.57L74.34,201l-3.28-2,2.52,2.36-3-1.84,1.66,2.3L70,200.21l1.39,1.94-1.91-1.38,1.13,1.67L69,201.49l1,1.43-1.7-1,1.12,1.19s-1.48-.7-1.58-.7.66.7.66.7l-1-.22Z" style="fill:#a6a6a6"></path><path d="M68.19,234s.39-2.49-3.08-5.18c0,0,2.69,1,3.44,3.18a5.86,5.86,0,0,0-4.33-5.18,6.16,6.16,0,0,1,5.31,4.2s-.26-4.62-3.9-6.66c0,0,3.52,1.34,5.25,6.41,0,0,2.58-3.71,6.71-4.2,0,0-4.06,1.63-4.11,4.77,0,0,3-4,6.64-3.66,0,0-4.19,1.12-4.19,4.09a4.76,4.76,0,0,1,4.46-2.39s-4.63,1.84-2.66,4.62Z" style="fill:#a6a6a6"></path><path d="M41.26,234.11s41.65-6,61.76-7.13,101.43,3.69,104.09,4.17,80.33-2.05,99.6-2.83,336,5.87,336,5.87Z" style="fill:#a6a6a6"></path><polygon points="37.37 234.04 121.78 233.8 206.19 233.71 375 233.54 543.81 233.71 628.22 233.8 712.63 234.04 628.22 234.29 543.81 234.38 375 234.54 206.19 234.38 121.78 234.29 37.37 234.04" style="fill:#a6a6a6"></polygon></g><g id="freepik--Sun--inject-17"><circle cx="286.09" cy="112.51" r="33.97" transform="translate(4.24 235.25) rotate(-45)" style="fill:#00D1FF;opacity:0.5"></circle><circle cx="286.09" cy="112.51" r="24.47" style="fill:#00D1FF"></circle></g><g id="freepik--Character--inject-17"><path d="M515.33,231.94a5.09,5.09,0,0,1,.14-3.36,5.79,5.79,0,0,1,2.12-2.35,6,6,0,0,0-1.32,1.47c-1.33,2.24.3,4.67-.11,7a3.48,3.48,0,0,1-1,1.84,11.71,11.71,0,0,0-1.51,1.56,4.26,4.26,0,0,0-.55,3.44,4.81,4.81,0,0,0,2.57,2.9,9,9,0,0,0,4.31,1.18,5.88,5.88,0,0,0,3.61-1.21,5.16,5.16,0,0,0,1.26-1.49c.35-.61.62-1.27,1-1.86a3.22,3.22,0,0,1,1.76-1.34c.67-.19,1.36-.23,2-.37h.56a3.91,3.91,0,0,0,2.14-.5,4.92,4.92,0,0,0,1.61-1.69,4.51,4.51,0,0,0,.7-2.47,13.16,13.16,0,0,0-.27-1.87,7.53,7.53,0,0,1-.19-2.16c.15-.81,1.6-1.78,1.69-3.48a6.11,6.11,0,0,0-1.09-3.52,5.08,5.08,0,0,0-.31-1.53c-1-2.79-4-4.22-6.84-4.4a6.33,6.33,0,0,0-3.65.74c-1.3.79-1.78,2.17-2.35,3.5a6.51,6.51,0,0,1-1.17,1.92A12.39,12.39,0,0,1,519,225.2l-.26.18a16.8,16.8,0,0,0-1.7,1.08,5.38,5.38,0,0,0-1.82,2.42c-.77,2.21.93,4.34.31,6.55,0,0,0,.07.07,0A6.61,6.61,0,0,0,515.33,231.94Zm14.74,7.31a5.71,5.71,0,0,0,2.59-1.58,6.32,6.32,0,0,0,1.62-3,5.5,5.5,0,0,0,.14-1.07v0a6,6,0,0,1,.08,1.63,5.26,5.26,0,0,1-1.6,3,3.9,3.9,0,0,1-2.78,1Z" style="fill:#263238"></path><path d="M624.21,293.42c-1,.27-29.83-2.52-30.88-3.3-.12-.08.06-1.35,0-4.68a8,8,0,0,0-1.51-1.82C581.55,272.93,580.52,272,580.52,272l15.38-10.63,12.32,15.26,3.21,4s11,7.7,12.07,8.67S625.25,293.16,624.21,293.42Z" style="fill:#d3766a"></path><path d="M604.79,272.34,591.2,283s-16.34-17.74-19.6-18.25C570,264.46,542,276.12,529.35,276c-8.93-.11-12.05-15.09-12.05-15.09l19.4-2.16c14.4-5.15,31.14-15.43,40.29-13.24C586.93,247.87,604.79,272.34,604.79,272.34Z" style="fill:#d3766a"></path><path d="M517.3,260.88s3.12,15,12.05,15.09c8.61.1,24.43-5.31,34.1-8.67l-31-8.12Z" style="fill:#263238"></path><path d="M517.3,260.88s-3.53,12,2,17.53,50.54,10.12,57.61,8.71,8.55-12.39,1.4-15.79c-6.81-3.24-36.81-7.9-37.52-8.28a12.32,12.32,0,0,1-.44-4.66l-3.3.19Z" style="fill:#d3766a"></path><path d="M540.82,257.15l-23.52,3.73S513.08,274.49,520,279c0,0,1-11.58,20.79-15.92C540.83,263.05,539.72,258.7,540.82,257.15Z" style="fill:#00D1FF"></path><path d="M538.75,257.68a.43.43,0,0,1,.38.48.44.44,0,0,1-.48.38.43.43,0,0,1,.1-.86Zm-6.16,6.78a.43.43,0,0,0,.38.48.43.43,0,0,0,.1-.85A.43.43,0,0,0,532.59,264.46Zm-4.88-.56a.43.43,0,1,0,.47-.38A.43.43,0,0,0,527.71,263.9Zm-4.89-.56a.43.43,0,1,0,.48-.38A.43.43,0,0,0,522.82,263.34Zm-4.88-.57a.43.43,0,0,0,.38.48.43.43,0,0,0,.1-.85A.43.43,0,0,0,517.94,262.77Zm22.37-.89a.42.42,0,0,0,.36.47l-.14-.79A.39.39,0,0,0,540.31,261.88Zm-4.88-.57a.43.43,0,1,0,.85.1.43.43,0,1,0-.85-.1Zm-4.89-.56a.43.43,0,0,0,.86.1.43.43,0,1,0-.86-.1Zm-4.88-.56a.43.43,0,1,0,.48-.38A.43.43,0,0,0,525.66,260.19ZM522,270.31a.43.43,0,1,0,.85.09.43.43,0,0,0-.37-.47A.43.43,0,0,0,522,270.31Zm-4.88-.57a.43.43,0,1,0,.85.1.43.43,0,1,0-.85-.1Zm7.72-2.59a.43.43,0,1,0,.85.1.43.43,0,0,0-.85-.1Zm-4.89-.56a.44.44,0,0,0,.38.48.44.44,0,0,0,.48-.38.44.44,0,0,0-.38-.48A.43.43,0,0,0,520,266.59Zm-.8,7a.43.43,0,0,0,.85.1.43.43,0,1,0-.85-.1Z" style="fill:#fff"></path><path d="M539.36,257.38a31.45,31.45,0,0,1-3.18,1.83c-5.16,2-18.88,1.67-18.88,1.67A59.09,59.09,0,0,1,520.75,243c3.67-10.12,9.09-7.61,11-6.07,2.3,1.82,7,8.8,7.33,10.17.61,2.26-1.22,4.92-1.22,4.92Z" style="fill:#d3766a"></path><path d="M536.81,243.14a3.78,3.78,0,0,0-3,1.66,7.85,7.85,0,0,0-4.35-1.09c-2.27.23-4,2.59-4,2.59l-6.28,1s-1.22,4.19-1.08,4.77c0,0,10.24,3.74,19.76,0a7.07,7.07,0,0,0,1.51-4.61C539.28,245.59,536.81,243.14,536.81,243.14Z" style="fill:#00D1FF"></path><path d="M535.68,256.79a1.28,1.28,0,0,0-.35.73,1.91,1.91,0,0,0,0,.79c.06.26.29.28.34,0a1.1,1.1,0,0,0-.15-.78,1,1,0,0,1,.33.81.38.38,0,0,1-.35.39.46.46,0,0,1-.4-.36,1.76,1.76,0,0,1,0-.91A1,1,0,0,1,535.68,256.79Z" style="fill:#263238"></path><path d="M535.76,243.34a.44.44,0,0,1,.1.32.43.43,0,0,1-.48.38.42.42,0,0,1-.36-.31h0A3.13,3.13,0,0,1,535.76,243.34Zm-1.56,7.19a.43.43,0,0,0,.37.48.44.44,0,0,0,.48-.38.43.43,0,0,0-.38-.48A.42.42,0,0,0,534.2,250.53Zm-4.89-.56a.43.43,0,0,0,.38.47.43.43,0,0,0,.48-.37.44.44,0,0,0-.38-.48A.43.43,0,0,0,529.31,250Zm-4.88-.57a.43.43,0,0,0,.38.48.43.43,0,0,0,.1-.85A.43.43,0,0,0,524.43,249.4Zm-4.88-.56a.43.43,0,0,0,.37.48.44.44,0,0,0,.48-.38.43.43,0,0,0-.38-.48A.42.42,0,0,0,519.55,248.84ZM537,247.38a.43.43,0,0,0,.38.47.43.43,0,1,0-.38-.47Zm-4.88-.57a.43.43,0,0,0,.38.48.43.43,0,1,0,.1-.85A.43.43,0,0,0,532.15,246.81Zm-4.88-.56a.43.43,0,1,0,.47-.38A.43.43,0,0,0,527.27,246.25Zm4.17,7.32.61-.07a.44.44,0,0,0-.23-.1A.41.41,0,0,0,531.44,253.57Zm-5-.35a.43.43,0,0,0,.38.47.43.43,0,1,0-.38-.47Zm-4.88-.56a.43.43,0,0,0,.38.47.43.43,0,1,0,.1-.85A.43.43,0,0,0,521.58,252.66Z" style="fill:#fff"></path><path d="M526.38,236.59c.1.45,2.16,3.39,4.2,3.34.66,0,.73-3.65.73-3.65l.06-.26.92-3.74L528,229.36l-.63-.39-.4,2.33,0,.19a1.55,1.55,0,0,0,0,.21c0,.19-.07.39-.1.58s0,.3-.07.46,0,.31-.07.47A25.53,25.53,0,0,0,526.38,236.59Z" style="fill:#d3766a"></path><path d="M526.92,231.3a7.76,7.76,0,0,0,4.45,4.72l.92-3.74L528,229.36l-.63-.39Z" style="fill:#263238"></path><path d="M536.88,225.12c1.75,6.52-2,8.31-3.36,8.68s-5.66,1.35-8.08-5,0-9.18,2.93-10.12S535.12,218.6,536.88,225.12Z" style="fill:#d3766a"></path><path d="M535.41,224.45a3.69,3.69,0,0,1-.47,0,.76.76,0,0,1-.47-.1.23.23,0,0,1-.06-.29.6.6,0,0,1,.55-.25.94.94,0,0,1,.6.2A.25.25,0,0,1,535.41,224.45Z" style="fill:#263238"></path><path d="M531.07,225.44c.15-.05.29-.12.43-.18a.7.7,0,0,0,.4-.27.24.24,0,0,0,0-.29.6.6,0,0,0-.61,0,.87.87,0,0,0-.48.41C530.65,225.28,530.87,225.5,531.07,225.44Z" style="fill:#263238"></path><path d="M532.86,230.53c.13.09.26.23.42.22a1.4,1.4,0,0,0,.48-.18s0,0,0,0a.62.62,0,0,1-.55.32c-.21,0-.33-.17-.41-.35C532.81,230.53,532.85,230.52,532.86,230.53Z" style="fill:#263238"></path><path d="M534.48,228.43s.22.65.28,1c0,0-.07.06-.17.09h0a1.53,1.53,0,0,1-1.57-.28s0-.07,0-.06a2.26,2.26,0,0,0,1.45.13c0-.09-.42-1.11-.37-1.12a2.47,2.47,0,0,1,.76,0c-.43-1.39-1.07-2.69-1.47-4.07,0-.05.06-.08.08,0a23.59,23.59,0,0,1,1.77,4.3C535.32,228.57,534.62,228.46,534.48,228.43Z" style="fill:#263238"></path><path d="M531.46,227.08a.58.58,0,0,1-.1.12.34.34,0,0,1-.24.07c-.26,0-.37-.3-.39-.57,0,0,0,0,0,0s.23.28.38.26a.61.61,0,0,0,.27-.18A1.19,1.19,0,0,0,531.46,227.08Z" style="fill:#263238"></path><path d="M531.35,227a.64.64,0,0,1,.1-.35.58.58,0,0,1,.34-.21.48.48,0,0,1,.38.14.9.9,0,0,1,.17.32,1.55,1.55,0,0,1,0,.21.93.93,0,0,1,0,.44,1.65,1.65,0,0,0-.06-.32,1.69,1.69,0,0,0-.1-.27c-.08-.19-.21-.33-.36-.3s-.26.16-.3.36a2.49,2.49,0,0,0,0,.62A1.39,1.39,0,0,1,531.35,227Z" style="fill:#263238"></path><path d="M535.67,226.17a.37.37,0,0,0,.14.07.26.26,0,0,0,.24,0c.24-.12.24-.42.15-.67,0,0,0,0,0,0,0,.17-.12.35-.27.38a.51.51,0,0,1-.31-.07A1.65,1.65,0,0,1,535.67,226.17Z" style="fill:#263238"></path><path d="M535.75,226.06a.75.75,0,0,0-.23-.28.49.49,0,0,0-.39-.07.47.47,0,0,0-.3.27.86.86,0,0,0,0,.35,1.55,1.55,0,0,0,0,.21.94.94,0,0,0,.2.4,1.8,1.8,0,0,1-.06-.32,1.41,1.41,0,0,1,0-.29c0-.2.08-.38.23-.41a.39.39,0,0,1,.41.22,3,3,0,0,1,.27.57A1.47,1.47,0,0,0,535.75,226.06Z" style="fill:#263238"></path><path d="M534.48,229.43a1.62,1.62,0,0,1-.49.64.75.75,0,0,1-.42.13c-.32,0-.4-.28-.4-.53a1.49,1.49,0,0,1,0-.4A2,2,0,0,0,534.48,229.43Z" style="fill:#263238"></path><path d="M534,230.07a.75.75,0,0,1-.42.13c-.32,0-.4-.28-.4-.53A.74.74,0,0,1,534,230.07Z" style="fill:#ff9bbc"></path><path d="M526,229c1.55-.36.94-2.8.94-2.8s1.72-.59,1.15-3.45a4.45,4.45,0,0,0,3.73,1.27c.52-.05-1.49-.95-1.49-.95a7.1,7.1,0,0,0,6.05-.28c.26-.11-1.28-3.93-4.55-4.56a6.44,6.44,0,0,0-7.11,3.09A4.5,4.5,0,0,0,523,225C523.29,227.09,525.36,229.18,526,229Z" style="fill:#263238"></path><path d="M530.41,220.77c0,.65-1.16,1.09-2.47,1s-2.35-.72-2.29-1.37,1.16-1.09,2.47-1S530.47,220.12,530.41,220.77Z" style="fill:#00D1FF"></path><path d="M529.9,220.6c0,.49-.88.82-1.88.74s-1.78-.54-1.74-1,.88-.83,1.88-.75S529.94,220.1,529.9,220.6Z" style="fill:#263238"></path><path d="M529.93,220.1l-.36-.19a1.83,1.83,0,0,1,2.11-.75l-.1.4C531.53,219.54,530.38,219.24,529.93,220.1Z" style="fill:#00D1FF"></path><path d="M525.09,228.77c0-.07-.15-1.64-.16-2s1.89-5.57,1.91-5.6l.17.12.19.08c-.12.29-1.83,5-1.86,5.4s.16,1.89.16,1.91Z" style="fill:#00D1FF"></path><path d="M535.74,219.3c0,.65-1.16,1.09-2.48,1s-2.34-.71-2.29-1.36,1.16-1.09,2.48-1S535.79,218.65,535.74,219.3Z" style="fill:#00D1FF"></path><path d="M535.21,219.16c0,.49-.88.83-1.88.75s-1.78-.55-1.74-1,.88-.83,1.88-.75S535.25,218.67,535.21,219.16Z" style="fill:#263238"></path><path d="M526.61,229.07s-1.82-1.81-2.67-1.13.78,3.5,1.95,3.71a1.14,1.14,0,0,0,1.4-.87Z" style="fill:#d3766a"></path><path d="M524.42,228.74s0,0,0,0a2.89,2.89,0,0,1,1.79,1.51.63.63,0,0,0-1,0s0,0,0,0a.68.68,0,0,1,.8.1,3.16,3.16,0,0,1,.48.55c0,.06.16,0,.12-.07v0C526.52,229.89,525.5,228.65,524.42,228.74Z" style="fill:#263238"></path><path d="M524.1,237c-9.22,7.62-23,27.76-24.82,30.71-1.25,2,9.16,8.84,9.8,7.35.83-1.9,14.91-25.82,18.52-34.69C529.59,235.43,526,235.37,524.1,237Z" style="fill:#d3766a"></path><path d="M509.77,273.62c-.51,1-2.33,5.33-3.32,5.78s-5.78-.23-8.2-.51-2.83-1-2.69-1.84,5.24-.4,5.24-.4-7,1.16-8.77,1.29-5.8.66-6.21-.83c-.18-.67,1-1.19,1-1.19s-1.71.29-1.87-.56S486.1,274,486.1,274s-1.06.09-1-.68c.14-1.71,6.7-1.8,6.7-1.8s-5.23,1.84-5.23.43c0-2,10.4-2.89,11.55-3.61a7.16,7.16,0,0,0,1.93-1.89Z" style="fill:#d3766a"></path><path d="M495.54,277.48a.74.74,0,0,1,.31-.62,2.14,2.14,0,0,1,.64-.32,7.66,7.66,0,0,1,1.44-.29c1-.13,2-.19,3-.33a11.9,11.9,0,0,0-3,0,5.63,5.63,0,0,0-1.49.38,2.09,2.09,0,0,0-.66.45A.79.79,0,0,0,495.54,277.48Z" style="fill:#263238"></path><path d="M486.79,275.92c.72-.09,1.43-.21,2.15-.33s1.42-.25,2.13-.38l2.12-.4,2.13-.4a17.44,17.44,0,0,0-2.17.14c-.72.08-1.44.2-2.15.33s-1.42.28-2.12.46S487.48,275.69,486.79,275.92Z" style="fill:#263238"></path><path d="M493.87,272.53a13.2,13.2,0,0,0-2,0,18.49,18.49,0,0,0-2,.27,18.94,18.94,0,0,0-1.94.48,14,14,0,0,0-1.86.71c.65-.15,1.29-.32,1.93-.45s1.29-.28,1.93-.4,1.3-.24,2-.35S493.21,272.62,493.87,272.53Z" style="fill:#263238"></path><path d="M493.06,270.79a11.87,11.87,0,0,0-3.2.3,12,12,0,0,0-3,1.06c1-.25,2.06-.51,3.1-.73S492,271,493.06,270.79Z" style="fill:#263238"></path><path d="M525.8,244.1c.36-.75.75-1.48,1.14-2.22,0,0,0,0,0,0-.23.53-.45,1.06-.69,1.58l.17-.22.4-.55a0,0,0,1,1,0,0c-.11.2-.23.39-.36.58l-.2.28-.11.13,0,.05c-.06.14-.12.28-.19.42-.35.75-.73,1.49-1.11,2.23,0,0-.11,0-.08,0C525.11,245.61,525.44,244.85,525.8,244.1Z" style="fill:#263238"></path><path d="M521.3,252.94a0,0,0,0,1,.07,0,73.26,73.26,0,0,1-4,7.25c0,.05-.1,0-.08,0C518.39,258.22,521.19,253.05,521.3,252.94Z" style="fill:#263238"></path></g><g id="freepik--Yacht--inject-17"><rect x="602.09" y="277.59" width="31.51" height="1.85" transform="translate(76.72 686.54) rotate(-61.28)" style="fill:#a6a6a6"></rect><rect x="655.65" y="281.58" width="35.26" height="1.85" transform="translate(102.02 737.23) rotate(-61.28)" style="fill:#a6a6a6"></rect><rect x="523.83" y="270.48" width="20.77" height="1.85" transform="translate(39.5 609.5) rotate(-61.28)" style="fill:#a6a6a6"></rect><rect x="470.66" y="263.06" width="9.1" height="1.85" transform="translate(15.35 553.89) rotate(-61.28)" style="fill:#a6a6a6"></rect><path d="M612.53,293.83c-15.81-4.33-128.67-19.64-128.67-19.64l-85.61-42.65-3.07-4.91L231.12,220.9l-.92,2.56-44.13-10.33-.61-3.84-25.63-9.51,17.8-24.24h-10l-17.34,23.17-15.65,1.07,51.09,30.07-14.57,17.49H164v8.13h30.83l46.34,11S202,286.77,176.61,308c0,0,177.56-9.4,256.93-12.68,66-2.72,164,3.39,191.45,3.65C630.58,299.06,621.12,296.18,612.53,293.83Z" style="fill:#00D1FF"></path><path d="M68.39,356.12h47.87s120.53-26.2,187.18-37.85,397.77-13.4,398-13.8-33.14-5.94-35.28-6.35-203.18-22.4-296-20.35S68.39,356.12,68.39,356.12Z" style="fill:#00D1FF"></path><path d="M692.21,304.52l-.16.12-49.63,35.73h0l-30.29,21.81-2.76-.7-32.18,6.4a148.82,148.82,0,0,1-57.82.06l-22.95-4.53-34.27,5.4a148.67,148.67,0,0,1-60.7-3l-16.53-4.31L358,366.71a148.7,148.7,0,0,1-70.42-3.33l-6.44-1.9-26.83,5.37a148.7,148.7,0,0,1-67.23-2l-12.61-3.33-30.12,6.26a148.7,148.7,0,0,1-56.8.73l-28-5.06-7.72,1.5h0l-.26-1-2.2-7.82s19.16-4.33,48.52-10.39c53.68-11.09,141.46-28,208.59-34.9,7.67-.8,15.07-1.46,22.12-2C431.09,301.5,692.21,304.52,692.21,304.52Z" style="fill:#00D1FF"></path><path d="M692.21,304.52l-.16.12-49.63,35.73h0l-30.29,21.81-2.76-.7-32.18,6.4a148.82,148.82,0,0,1-57.82.06l-22.95-4.53-34.27,5.4a148.67,148.67,0,0,1-60.7-3l-16.53-4.31L358,366.71a148.7,148.7,0,0,1-70.42-3.33l-6.44-1.9-26.83,5.37a148.7,148.7,0,0,1-67.23-2l-12.61-3.33-30.12,6.26a148.7,148.7,0,0,1-56.8.73l-28-5.06-7.72,1.5h0l-.26-1-2.2-7.82s19.16-4.33,48.52-10.39c53.68-11.09,141.46-28,208.59-34.9,7.67-.8,15.07-1.46,22.12-2C431.09,301.5,692.21,304.52,692.21,304.52Z" style="opacity:0.2"></path><path d="M642.41,340.37l-30.29,21.81-2.76-.7-32.18,6.4a148.82,148.82,0,0,1-57.82.06l-22.95-4.53-34.27,5.4a148.67,148.67,0,0,1-60.7-3l-16.53-4.31L358,366.71a148.7,148.7,0,0,1-70.42-3.33l-6.44-1.9-26.83,5.37a148.7,148.7,0,0,1-67.23-2l-12.61-3.33-30.12,6.26a148.7,148.7,0,0,1-56.8.73l-28-5.06-7.72,1.5-.27-1c1.32-.13,117.46-11.06,206.8-17.9,31.46-2.42,59.6-4.33,78.23-5.08l6.58-.24c8.84-.29,19.64-.54,31.85-.75,22.92-.4,50.81-.66,80-.8,10.2-.05,20.58-.08,30.95-.09,30-.07,60.1,0,86.47.21C602.38,339.5,627.5,339.87,642.41,340.37Z" style="opacity:0.2"></path><path d="M434.77,279c-24.17-1.1-46.49-1.62-64.67-1.22-31,.68-75,9.65-119.76,21.3-11.6.82-23,1.63-33.91,2.42,12.42-12.37,47-42.27,94.78-47.45C371.76,247.5,434.77,279,434.77,279Z" style="fill:#263238"></path><g style="opacity:0.2"><path d="M315.61,253.63l-38.89,38.89q-10.89,2.57-22,5.43l41.4-41.4A135.67,135.67,0,0,1,311.2,254C312.68,253.88,314.14,253.74,315.61,253.63Z" style="fill:#fff"></path><path d="M413,269.86l-8.06,8.06c-5.64-.14-11.1-.22-16.33-.26l12.06-12.06C405.11,267,409.24,268.48,413,269.86Z" style="fill:#fff"></path><path d="M354.88,255l-27.15,27.15q-4.91.78-10,1.71l29.74-29.74C350,254.39,352.43,254.68,354.88,255Z" style="fill:#fff"></path><path d="M266.24,266.76l-33.57,33.57-8.92.64,24.5-24.5A168.2,168.2,0,0,1,266.24,266.76Z" style="fill:#fff"></path><path d="M392.84,263.21l-14.45,14.45-2.7,0,15.07-15.07Z" style="fill:#fff"></path></g><path d="M483.86,274.19c-.92.31-37.59,2.45-37.59,2.45l-40.88-19.86s30.68-4,37-3.63S483.86,274.19,483.86,274.19Z" style="fill:#263238"></path><g style="opacity:0.2"><path d="M471,266.87l-8.82,8.81c-8.36.53-15.94,1-15.94,1l-1.07-.52L460.31,261C463.94,263,467.66,265,471,266.87Z" style="fill:#fff"></path><path d="M447.07,254.6,432,269.69,426.41,267l13.83-13.83h0c.86,0,1.58,0,2.11,0A17.31,17.31,0,0,1,447.07,254.6Z" style="fill:#fff"></path></g><path d="M204.69,303l-1.4-1.21c.57-.66,14.54-16.31,60.68-26,49.2-10.36,133.32-15,175.27-16.08,77.29-2,268,8.39,269.89,8.49l1.47.09-19,34.58-1.62-.89,17.55-32c-17.94-1-194.66-10.34-268.28-8.41-41.89,1.09-125.86,5.71-174.94,16C218.81,287.13,204.83,302.82,204.69,303Z" style="fill:#a6a6a6"></path><rect x="585.96" y="280.43" width="37.97" height="1.85" transform="translate(67.53 676.7) rotate(-61.28)" style="fill:#a6a6a6"></rect><rect x="545.98" y="277.06" width="35.32" height="1.85" transform="translate(49.02 638.72) rotate(-61.28)" style="fill:#a6a6a6"></rect><rect x="493.8" y="274.78" width="33.19" height="1.85" transform="translate(23.36 590.84) rotate(-61.28)" style="fill:#a6a6a6"></rect><rect x="440.88" y="273.27" width="31.69" height="1.85" transform="translate(-3.19 542.98) rotate(-61.28)" style="fill:#a6a6a6"></rect><rect x="385.86" y="274.53" width="31.34" height="1.85" transform="translate(-32.97 495.24) rotate(-61.28)" style="fill:#a6a6a6"></rect><rect x="329.08" y="278.02" width="32.07" height="1.85" transform="translate(-65.34 447.6) rotate(-61.29)" style="fill:#a6a6a6"></rect><rect x="274.14" y="283.16" width="29.15" height="1.85" transform="translate(-99.15 400.8) rotate(-61.28)" style="fill:#a6a6a6"></rect><rect x="222.81" y="291.26" width="19.37" height="1.85" transform="translate(-135.46 355.67) rotate(-61.28)" style="fill:#a6a6a6"></rect><polygon points="395.18 226.63 393.04 220.7 376.26 207.81 259.66 217.22 237.14 221.11 395.18 226.63" style="fill:#00D1FF"></polygon><polygon points="395.18 226.63 393.04 220.7 376.26 207.81 259.66 217.22 237.14 221.11 395.18 226.63" style="opacity:0.2"></polygon><rect x="167.66" y="164.34" width="19.64" height="11.2" style="fill:#00D1FF"></rect><polygon points="157.99 160.35 201.26 163.42 201.26 160.35 157.99 156.67 157.99 160.35" style="fill:#00D1FF"></polygon><rect x="173.03" y="160.04" width="9.82" height="4.83" style="fill:#00D1FF"></rect><path d="M41.19,356.12h75.07s93.49-32.94,189.63-45.21S625.42,299,625.42,299,470,284.72,401.63,288.82,125.31,308,125.16,308.15s-1.74,1.94-1.74,1.94l2.92,1.89L100.1,343.23,51,345.89Z" style="fill:#00D1FF"></path><path d="M41.19,356.12h75.07s93.49-32.94,189.63-45.21S625.42,299,625.42,299,470,284.72,401.63,288.82,125.31,308,125.16,308.15s-1.74,1.94-1.74,1.94l2.92,1.89L100.1,343.23,51,345.89Z" style="opacity:0.1"></path><path d="M311.65,331.06c6.74-1,21.52-1.85,41.29-2.63a2.23,2.23,0,0,1,1.42,4l-19.1,14.15a2.3,2.3,0,0,1-1.36.44l-78.52-1a2.22,2.22,0,0,1-.46-4.39C269.26,338.41,290.48,334.06,311.65,331.06Z" style="fill:#263238"></path><path d="M467.63,329.83,443.17,348a2.28,2.28,0,0,1-1.36.44l-70.51-.93a2.22,2.22,0,0,1-1.25-4l22.61-15.93a2.31,2.31,0,0,1,1.22-.41c22.3-.56,47.18-1,72.4-1.32A2.22,2.22,0,0,1,467.63,329.83Z" style="fill:#263238"></path><path d="M585.45,329.68l-26.8,19.85a2.21,2.21,0,0,1-1.36.44l-85-1.12h0l32.39-23a2.16,2.16,0,0,1,1.27-.41c28.21-.16,55.37-.11,78.27.2A2.22,2.22,0,0,1,585.45,329.68Z" style="fill:#263238"></path><g style="opacity:0.2"><path d="M341.6,328.92l-18,18-16.35-.21L324,329.9C329,329.56,334.88,329.23,341.6,328.92Z" style="fill:#fff"></path><path d="M458.19,325.93l-22.45,22.44-16.36-.21,22-22C446.91,326.09,452.54,326,458.19,325.93Z" style="fill:#fff"></path><path d="M573.46,325.54l-24.31,24.32-8.19-.11,24.28-24.27Z" style="fill:#fff"></path><path d="M286.93,335.1l-11.17,11.17-8.17-.12,9.1-9.11C280,336.4,283.43,335.74,286.93,335.1Z" style="fill:#fff"></path><path d="M414.17,326.68,393.05,347.8l-2.65,0,21-21Z" style="fill:#fff"></path><path d="M557.27,325.44l-24.21,24.2-2.65,0,24.19-24.18Z" style="fill:#fff"></path></g></g><g id="freepik--Birds--inject-17"><path d="M421.17,165.67a15,15,0,0,0-1.84-.79,8.09,8.09,0,0,0-2-.47,1.84,1.84,0,0,0-.63.07l-.19.09-.12.09-.22.18a10.15,10.15,0,0,0-.73.74c-.45.51-.85,1-1.26,1.58l.5-.17a15.91,15.91,0,0,0-2.05-.44,9.3,9.3,0,0,0-1.07-.07,3.73,3.73,0,0,0-.57,0c-.1,0-.21,0-.31.07l-.31.15a3.55,3.55,0,0,0-.81.78,10,10,0,0,0-.6.85,14,14,0,0,0-1,1.84c.44-.53.87-1.06,1.32-1.56a9.42,9.42,0,0,1,.69-.72,3.2,3.2,0,0,1,.72-.56,1.69,1.69,0,0,1,.81-.08,6.37,6.37,0,0,1,1,.13,18.2,18.2,0,0,1,1.94.45l.32.08.18-.26c.37-.53.77-1.05,1.17-1.55a7.3,7.3,0,0,1,.62-.72l.15-.15.08-.06s0,0,0,0a1,1,0,0,1,.35-.07,9.87,9.87,0,0,1,1.9.19C419.86,165.41,420.51,165.55,421.17,165.67Z" style="fill:#263238"></path><path d="M413.92,185.25a21.31,21.31,0,0,0-2.48-1.7,12,12,0,0,0-2.81-1.26,2.33,2.33,0,0,0-.94-.08,1.35,1.35,0,0,0-.31.07l-.21.1-.37.19a15.36,15.36,0,0,0-1.29.88c-.81.61-1.56,1.27-2.31,2l.79-.11a23.71,23.71,0,0,0-2.89-1.24,12.58,12.58,0,0,0-1.55-.42,5.8,5.8,0,0,0-.85-.11,4,4,0,0,0-.48,0,3,3,0,0,0-.49.13,5.3,5.3,0,0,0-1.42.9c-.4.34-.78.71-1.14,1.08a20.27,20.27,0,0,0-1.93,2.42c.8-.65,1.58-1.31,2.39-1.91.4-.3.8-.6,1.22-.86a5,5,0,0,1,1.23-.61,2.79,2.79,0,0,1,1.2.12,13.08,13.08,0,0,1,1.37.47c.91.36,1.83.79,2.71,1.22l.44.22.34-.33c.7-.67,1.44-1.32,2.18-1.94a12.42,12.42,0,0,1,1.11-.87,3,3,0,0,1,.28-.17l.13-.07s0,0,0,0a1.38,1.38,0,0,1,.54,0,14.93,14.93,0,0,1,2.74.82C412.08,184.49,413,184.88,413.92,185.25Z" style="fill:#263238"></path><path d="M213.36,139.94a13.79,13.79,0,0,0-1.69-1.08,7.39,7.39,0,0,0-1.91-.79,1.55,1.55,0,0,0-.62,0,.91.91,0,0,0-.21.05l-.13.07-.25.14c-.3.19-.57.4-.84.61-.53.43-1,.89-1.5,1.36l.52-.09a15.48,15.48,0,0,0-1.95-.77,8.47,8.47,0,0,0-1.05-.24,3.43,3.43,0,0,0-.57-.06,1.71,1.71,0,0,0-.31,0,2,2,0,0,0-.33.09,3.73,3.73,0,0,0-.92.63,8.71,8.71,0,0,0-.74.75,12.26,12.26,0,0,0-1.24,1.65c.52-.45,1-.9,1.55-1.32.26-.21.53-.42.8-.6a3.15,3.15,0,0,1,.8-.43,1.78,1.78,0,0,1,.81.05,7.49,7.49,0,0,1,.92.28c.62.22,1.24.49,1.84.76l.3.14.22-.23c.45-.46.93-.91,1.41-1.34.24-.22.48-.43.72-.61l.18-.12.09-.05h0a1,1,0,0,1,.36,0,9.49,9.49,0,0,1,1.84.49C212.11,139.47,212.73,139.71,213.36,139.94Z" style="fill:#263238"></path><path d="M229.78,137.28a21.21,21.21,0,0,0-1.86-2.36,11.54,11.54,0,0,0-2.32-2,2.51,2.51,0,0,0-.87-.35,1.47,1.47,0,0,0-.31,0l-.23,0-.41.08a13,13,0,0,0-1.49.45c-1,.34-1.87.75-2.79,1.18l.78.13a23.19,23.19,0,0,0-2.39-2,13.11,13.11,0,0,0-1.36-.86,5.11,5.11,0,0,0-.78-.36c-.13-.05-.3-.08-.45-.12a4.36,4.36,0,0,0-.51,0,5.49,5.49,0,0,0-1.62.45,12.29,12.29,0,0,0-1.41.69,19.58,19.58,0,0,0-2.57,1.73c1-.38,1.9-.77,2.85-1.11.47-.17,1-.33,1.42-.45a5,5,0,0,1,1.35-.22,2.59,2.59,0,0,1,1.12.47,10.2,10.2,0,0,1,1.17.85c.76.62,1.51,1.3,2.22,2l.36.34.42-.21c.87-.43,1.77-.83,2.65-1.21a13.7,13.7,0,0,1,1.33-.5l.31-.08.14,0s0,0,.06,0a1.46,1.46,0,0,1,.51.15,15,15,0,0,1,2.37,1.6C228.25,136,229,136.65,229.78,137.28Z" style="fill:#263238"></path><path d="M437.35,180.44a22.06,22.06,0,0,0-1.86-2.35,11.45,11.45,0,0,0-2.31-2.05,2.68,2.68,0,0,0-.87-.35.84.84,0,0,0-.32,0,1.6,1.6,0,0,0-.23,0c-.15,0-.27.05-.41.07-.52.13-1,.29-1.49.46-1,.34-1.87.75-2.79,1.18l.78.13a22.18,22.18,0,0,0-2.39-2,12.38,12.38,0,0,0-1.35-.86,6.19,6.19,0,0,0-.78-.36,3.09,3.09,0,0,0-.46-.12,4.24,4.24,0,0,0-.51,0,5.58,5.58,0,0,0-1.62.45,13.16,13.16,0,0,0-1.41.69,19.58,19.58,0,0,0-2.57,1.73c1-.38,1.9-.78,2.85-1.11.47-.17.95-.33,1.42-.45a5,5,0,0,1,1.36-.23,2.89,2.89,0,0,1,1.11.47,11.69,11.69,0,0,1,1.17.86c.76.61,1.51,1.29,2.22,2l.36.34.43-.21c.86-.43,1.76-.84,2.65-1.21a12.64,12.64,0,0,1,1.32-.5,2.14,2.14,0,0,1,.32-.08l.14,0h.05a1.56,1.56,0,0,1,.52.16,15.35,15.35,0,0,1,2.36,1.6C435.82,179.17,436.58,179.81,437.35,180.44Z" style="fill:#263238"></path></g><g id="freepik--Water--inject-17"><path d="M195.94,393.9a50.1,50.1,0,0,0,10.81-1.63c3.54-.85,7-1.91,10.49-3.09s6.88-2.43,10.27-3.78,6.76-2.76,10.07-4.26a.23.23,0,0,1,.16,0l10.66,3.08c1.78.52,3.56,1,5.35,1.45s3.58.87,5.4,1.2a111.13,111.13,0,0,0,22,2.16q5.53,0,11-.59c3.66-.41,7.32-.91,10.92-1.68,1.81-.35,3.6-.8,5.39-1.23s3.56-.95,5.34-1.48L324.48,381a.39.39,0,0,1,.24,0c3.42,1.12,6.85,2.26,10.29,3.27s6.95,1.83,10.49,2.46a112.44,112.44,0,0,0,21.43,1.89,115.69,115.69,0,0,0,21.39-2.29l2.63-.55,2.62-.65c1.74-.41,3.48-.91,5.22-1.37l10.45-2.79a.43.43,0,0,1,.25,0c7.9,2.38,15.69,5.15,23.76,6.71a111.59,111.59,0,0,0,24.53,2.11,119.29,119.29,0,0,0,24.43-3.31l24.17-5.34a.23.23,0,0,1,.16,0,184.63,184.63,0,0,0,23.18,8.6c4,1.13,8,2.14,12,2.9a79.43,79.43,0,0,0,12.31,1.28,79.64,79.64,0,0,1-12.33-1.15c-4.07-.72-8.09-1.68-12.08-2.78s-7.91-2.4-11.8-3.79-7.75-2.9-11.52-4.6l.16,0L482.34,387a119.42,119.42,0,0,1-24.54,3.42,111.31,111.31,0,0,1-24.7-2c-8.15-1.54-16-4.29-23.87-6.64h.24L399,384.61c-1.74.46-3.47,1-5.23,1.39l-2.64.66-2.65.57a109.37,109.37,0,0,1-21.57,2.31,112.52,112.52,0,0,1-21.6-2c-3.57-.64-7.08-1.55-10.56-2.51s-6.89-2.19-10.32-3.32h.24l-10.67,3c-1.77.52-3.57,1-5.36,1.46s-3.61.88-5.43,1.22c-3.63.77-7.32,1.25-11,1.66s-7.4.54-11.11.55a112.35,112.35,0,0,1-22.1-2.25c-1.82-.34-3.61-.8-5.42-1.23s-3.58-.95-5.35-1.48l-10.65-3.13h.16c-3.34,1.47-6.73,2.84-10.14,4.16s-6.84,2.55-10.32,3.68-7,2.17-10.54,3A50.12,50.12,0,0,1,195.94,393.9Z" style="fill:#dbdbdb"></path><path d="M703.34,438.61a123.68,123.68,0,0,1-17.11.32,133.17,133.17,0,0,1-33.63-6.21,111.42,111.42,0,0,1-15.94-6.35l.26,0-10.63,3.16c-1.77.54-3.57,1-5.36,1.49s-3.6.89-5.43,1.23a112.57,112.57,0,0,1-22.13,2.25c-3.71,0-7.42-.2-11.12-.55s-7.38-.92-11-1.7c-1.82-.35-3.62-.81-5.43-1.24s-3.59-1-5.36-1.48l-10.66-3.08h.26c-5.22,1.61-10.48,3-15.79,4.24s-10.65,2.31-16,3.17c-2.69.41-5.39.78-8.1,1.07s-5.43.45-8.16.54a56.63,56.63,0,0,1-16.21-1.5,56.86,56.86,0,0,0,16.2,1.18,144.14,144.14,0,0,0,16.18-1.87q8-1.37,15.94-3.33c5.27-1.3,10.53-2.72,15.7-4.34a.57.57,0,0,1,.26,0l10.67,3c1.77.51,3.55,1,5.33,1.45s3.58.87,5.39,1.21a115.48,115.48,0,0,0,21.94,2.23,110.86,110.86,0,0,0,22-2.16c1.81-.32,3.6-.78,5.39-1.19s3.56-.94,5.34-1.45l10.67-3a.39.39,0,0,1,.26,0h0a111.11,111.11,0,0,0,15.79,6.42,142.21,142.21,0,0,0,16.52,4.32,132.19,132.19,0,0,0,16.94,2.22A122,122,0,0,0,703.34,438.61Z" style="fill:#dbdbdb"></path><path d="M694.82,253.39a47.11,47.11,0,0,1-6.72.19,48.55,48.55,0,0,1-6.69-.74,47.4,47.4,0,0,1-6.55-1.6,43,43,0,0,1-6.31-2.47l.27,0c-2.78.82-5.53,1.8-8.42,2.36a44.16,44.16,0,0,1-8.73.92c-1.47,0-2.94-.07-4.4-.21s-2.91-.37-4.34-.68c-2.89-.59-5.65-1.53-8.44-2.3h.26a88.45,88.45,0,0,1-12.54,2.83,47.39,47.39,0,0,1-6.4.56,21.31,21.31,0,0,1-6.37-.69,22.94,22.94,0,0,0,6.35.36,58.89,58.89,0,0,0,6.33-.81c2.09-.37,4.17-.83,6.23-1.35s4.11-1.1,6.13-1.73a.43.43,0,0,1,.25,0c2.81.76,5.58,1.66,8.39,2.21a47.14,47.14,0,0,0,8.55.87,43.19,43.19,0,0,0,8.56-.82c1.42-.26,2.8-.63,4.19-1l4.2-1.15a.33.33,0,0,1,.26,0,43.47,43.47,0,0,0,6.15,2.54,53.46,53.46,0,0,0,6.46,1.72,47.65,47.65,0,0,0,6.63.93A51.63,51.63,0,0,0,694.82,253.39Z" style="fill:#dbdbdb"></path><path d="M179.82,281.26a74.19,74.19,0,0,1-20.39-.93,79.34,79.34,0,0,1-9.94-2.48,66.76,66.76,0,0,1-9.55-3.78l.26,0c-4.23,1.23-8.42,2.7-12.8,3.55A66.92,66.92,0,0,1,114.16,279q-3.34,0-6.67-.32c-2.21-.25-4.41-.56-6.59-1s-4.34-1-6.45-1.63l-6.37-1.85h.26a139.62,139.62,0,0,1-19,4.37,75.39,75.39,0,0,1-9.72.92,33.24,33.24,0,0,1-9.69-1,35,35,0,0,0,9.68.64A89.58,89.58,0,0,0,69.21,278q4.79-.84,9.51-2c3.13-.79,6.27-1.64,9.35-2.61a.57.57,0,0,1,.26,0l6.37,1.8c2.12.62,4.24,1.16,6.39,1.58a69.07,69.07,0,0,0,13.07,1.33,66,66,0,0,0,13.07-1.27c2.16-.4,4.28-1,6.4-1.56l6.38-1.8a.39.39,0,0,1,.26,0,66,66,0,0,0,9.4,3.85,85.46,85.46,0,0,0,9.85,2.6A76.35,76.35,0,0,0,179.82,281.26Z" style="fill:#dbdbdb"></path><path d="M276.45,422.3a123.7,123.7,0,0,1-17.11.31,131.34,131.34,0,0,1-17-2,133.8,133.8,0,0,1-16.62-4.18,113.32,113.32,0,0,1-15.94-6.35l.26,0-10.63,3.16c-1.77.54-3.57,1-5.36,1.49s-3.61.89-5.43,1.23a111.9,111.9,0,0,1-22.13,2.25c-3.71,0-7.43-.19-11.12-.55s-7.38-.92-11-1.7c-1.82-.35-3.63-.8-5.43-1.24s-3.59-1-5.36-1.48l-10.66-3.07h.26c-5.22,1.62-10.48,3-15.79,4.25s-10.65,2.3-16,3.16q-4,.63-8.1,1.07c-2.72.26-5.44.46-8.16.55a57,57,0,0,1-16.21-1.51,56.5,56.5,0,0,0,16.2,1.18A146.3,146.3,0,0,0,91.24,417q8-1.38,16-3.34c5.27-1.3,10.53-2.72,15.7-4.33a.43.43,0,0,1,.25,0l10.67,3c1.78.52,3.56,1,5.34,1.45s3.58.87,5.39,1.21a113.88,113.88,0,0,0,21.94,2.23,110.82,110.82,0,0,0,22-2.15c1.82-.33,3.6-.79,5.4-1.2s3.56-.94,5.34-1.45l10.66-3a.33.33,0,0,1,.26,0h0a111.77,111.77,0,0,0,15.79,6.41,140.23,140.23,0,0,0,16.52,4.32,132.21,132.21,0,0,0,16.94,2.23A123.53,123.53,0,0,0,276.45,422.3Z" style="fill:#dbdbdb"></path><path d="M59.57,363.36l28.65,5a149.7,149.7,0,0,0,57.68-1.33l28.46-6a.41.41,0,0,1,.19,0c8.75,2.22,17.4,4.81,26.28,6.24,4.44.77,8.91,1.29,13.39,1.63s9,.49,13.49.4,9-.33,13.47-.81,8.93-1.18,13.35-2l26.55-5.25a.21.21,0,0,1,.11,0,176.94,176.94,0,0,0,25.53,6.22,142.71,142.71,0,0,0,26.2,1.73A151.38,151.38,0,0,0,359,366.28l25.84-5.08a.29.29,0,0,1,.13,0l13.67,3.52c4.56,1.2,9.11,2.31,13.75,3.12a149.6,149.6,0,0,0,28,2.31c4.69-.06,9.38-.32,14.05-.81s9.3-1.28,13.95-2l27.9-4.4h.17l14,2.76c4.68.9,9.35,1.9,14,2.66a148.39,148.39,0,0,0,28.4,1.8q7.13-.24,14.2-1.15c4.72-.6,9.38-1.49,14.06-2.43l28.06-5.5a.37.37,0,0,1,.18,0c7.6,1.91,15.15,4,22.88,5.24a146.35,146.35,0,0,0,23.37,2,149,149,0,0,0,23.4-1.71c3.88-.55,7.71-1.35,11.54-2.2s7.59-1.95,11.37-3c0,0,.06,0,.06,0a0,0,0,0,1,0,.06c-3.77,1.06-7.55,2.12-11.35,3.09S683,366.35,679.16,367a142.74,142.74,0,0,1-23.45,1.89A146.49,146.49,0,0,1,632.24,367c-7.78-1.19-15.37-3.26-23-5.13h.18l-28,5.66A154.15,154.15,0,0,1,553,371.15a149.47,149.47,0,0,1-28.58-1.83c-4.73-.77-9.39-1.77-14.07-2.67l-14-2.78h.16l-27.9,4.38c-4.65.72-9.3,1.52-14,2s-9.41.75-14.14.78a150.22,150.22,0,0,1-28.16-2.48c-4.65-.83-9.24-2-13.78-3.2l-13.66-3.6H385l-25.86,5a150.44,150.44,0,0,1-26.17,2.84c-4.39.08-8.79,0-13.17-.31s-8.76-.74-13.1-1.44a175.57,175.57,0,0,1-25.6-6.11h.11l-26.53,5.38q-6.64,1.34-13.39,2.11c-4.49.51-9,.78-13.53.88s-9,0-13.55-.35-9-.83-13.48-1.57-8.89-1.65-13.27-2.79l-13.08-3.48h.19L146,367.75a151.81,151.81,0,0,1-28.9,3.36,148.21,148.21,0,0,1-29-2.31l-28.59-5.34a0,0,0,0,1,0-.06S59.55,363.36,59.57,363.36Z" style="fill:#dbdbdb"></path></g></svg>
