<svg xmlns="http://www.w3.org/2000/svg" viewBox="0 0 750 500"><g id="freepik--background-complete--inject-4"><path d="M124.12,238.82l37.76-83.71,58.87,87.53,22.41-23.31,154.48,127L454.49,271l30,14L555,192.83l68.55,10.83s95.81,151.08,93.6,154,0,107.55,0,107.55H32.77Z" style="fill:#f5f5f5"></path><path d="M354.74,73.52c.62-4.45-5.66-8.1-10.37-8.48-2.25-.18-4.58.16-6.71-.58-4.62-1.61-6.46-7.57-11-9.47-3.37-1.42-7.24-.16-10.51,1.49s-6.48,3.71-10.13,3.94c-3.17.2-6.61-1-9.39.58-2.06,1.15-3.15,3.53-5.05,4.94s-4.3,1.66-6.61,1.79-4.71.15-6.82,1.11-3.84,3.19-3.41,5.47Z" style="fill:#e0e0e0"></path><path d="M283.8,126.82c.88-6.38-8.14-11.64-14.91-12.18-3.23-.26-6.59.23-9.65-.84-6.63-2.31-9.27-10.87-15.74-13.6-4.84-2-10.41-.23-15.1,2.13s-9.32,5.33-14.56,5.67c-4.55.29-9.5-1.4-13.49.83-3,1.66-4.52,5.08-7.26,7.1s-6.17,2.39-9.5,2.57-6.76.22-9.79,1.6-5.53,4.59-4.9,7.86Z" style="fill:#ebebeb"></path><path d="M709.69,144.2c.88-6.39-8.13-11.64-14.91-12.19-3.23-.26-6.58.24-9.64-.83-6.63-2.31-9.28-10.88-15.75-13.61-4.84-2-10.4-.22-15.09,2.14S645,125,639.74,125.38c-4.56.29-9.51-1.4-13.49.82-3,1.66-4.53,5.08-7.27,7.1s-6.17,2.4-9.49,2.58-6.77.21-9.8,1.6-5.53,4.58-4.9,7.85Z" style="fill:#f5f5f5"></path><path d="M145.34,76.83c.42-3-3.85-5.51-7.06-5.77-1.53-.13-3.12.11-4.57-.4-3.14-1.09-4.39-5.15-7.46-6.44-2.29-1-4.92-.11-7.14,1s-4.42,2.52-6.9,2.68c-2.16.14-4.5-.66-6.39.4-1.4.78-2.14,2.4-3.44,3.36a8.28,8.28,0,0,1-4.49,1.22,12.46,12.46,0,0,0-4.64.76,3.65,3.65,0,0,0-2.32,3.71Z" style="fill:#f5f5f5"></path><path d="M622.71,84.59c.42-3-3.85-5.51-7.06-5.77-1.53-.12-3.11.11-4.56-.4-3.14-1.09-4.4-5.15-7.46-6.44-2.29-1-4.93-.1-7.15,1s-4.41,2.53-6.89,2.69c-2.16.13-4.5-.67-6.39.39-1.41.78-2.15,2.4-3.44,3.36a8.23,8.23,0,0,1-4.5,1.22,12.74,12.74,0,0,0-4.64.76,3.67,3.67,0,0,0-2.32,3.72Z" style="fill:#ebebeb"></path><path d="M468.14,77.17a10.75,10.75,0,0,1-1.16-.25,9.29,9.29,0,0,0-3.17-.09,8.57,8.57,0,0,0-4.25,1.86,8.85,8.85,0,0,0-3,4.77v.05l-.19.71-.27-.67a9.49,9.49,0,0,0-3.58-4.35,9.23,9.23,0,0,0-4.39-1.49,12.2,12.2,0,0,0-4.3.55,3.46,3.46,0,0,1,1.09-.48,9.51,9.51,0,0,1,7.83,1,9.74,9.74,0,0,1,3.79,4.54l-.45,0,0-.05a9.1,9.1,0,0,1,3.18-5A8.84,8.84,0,0,1,467,76.73,3.69,3.69,0,0,1,468.14,77.17Z" style="fill:#e0e0e0"></path><path d="M337.37,145.92s-.46-.13-1.3-.3a10.33,10.33,0,0,0-3.58-.1,9.77,9.77,0,0,0-4.8,2.09,10,10,0,0,0-3.38,5.39v.06l-.19.7-.27-.67a10.71,10.71,0,0,0-4-4.9,10.36,10.36,0,0,0-5-1.68,11.2,11.2,0,0,0-3.56.29c-.83.2-1.27.38-1.29.35s.1-.08.31-.17a6.28,6.28,0,0,1,.93-.36,10.62,10.62,0,0,1,8.81,1.2,10.93,10.93,0,0,1,4.25,5.1l-.45,0,0-.06a10.21,10.21,0,0,1,3.57-5.62,9.92,9.92,0,0,1,8.7-1.83,6.17,6.17,0,0,1,.94.32A1,1,0,0,1,337.37,145.92Z" style="fill:#e0e0e0"></path></g><g id="freepik--Floor--inject-4"><path d="M726.28,465.25c0,.15-157.29.27-351.26.27s-351.3-.12-351.3-.27S181,465,375,465,726.28,465.1,726.28,465.25Z" style="fill:#263238"></path></g><g id="freepik--Trees--inject-4"><polygon points="630.78 324 597.13 138.11 544.38 310.81 559.85 304.81 521.65 407.95 543.48 398.36 517.1 465.52 635.33 465.52 625.32 403.16 635.33 421.15 613.46 312.34 630.78 324" style="fill:#263238"></polygon><polygon points="182.95 329.38 148.15 93.08 100 316.72 114.84 310.96 78.17 409.98 99.13 400.77 73.81 465.25 187.31 465.25 177.71 405.38 187.31 422.65 166.32 318.19 182.95 329.38" style="fill:#263238"></polygon><polygon points="651.8 373.06 638.71 365.55 634.37 343 630.71 344 633.88 365.3 621.34 356.82 618.59 359.97 635.19 370.54 651.8 378.32 651.8 373.06" style="fill:#455a64"></polygon><rect x="649.99" y="340.17" width="9.59" height="124.43" style="fill:#455a64"></rect><path d="M652.16,102.5c0,1.3-25.74,82.48-25.74,82.48l12.87-13.09-18.55,56.73,12.22-17-14.4,71.14,7-7.42-12.22,50.19,10.48-13.09L613.32,350l82.92-6.11-19.64-70.7,11.87,13.09-15.36-51.5L681,239.1l-17.89-66.34,8.29,5.67Z" style="fill:#455a64"></path><path d="M655,247.39a8.09,8.09,0,0,1-.42,1.2l-1.29,3.29c-1.18,2.88-2.78,6.81-4.64,11.37l-.21.5-.26-.48a58.36,58.36,0,0,1-3.38-7.52c-.37-1-.71-2-1-3l.51,0c-2.29,5.83-4.53,10.91-6.22,14.52-.84,1.8-1.54,3.24-2,4.22-.23.45-.42.82-.59,1.13s-.21.38-.23.37a12.32,12.32,0,0,1,.64-1.58c.48-1.08,1.12-2.53,1.89-4.29,1.6-3.64,3.78-8.74,6-14.57l.28-.71.22.73c.3.95.63,1.95,1,2.95a59.62,59.62,0,0,0,3.33,7.47l-.47,0c1.94-4.53,3.6-8.43,4.83-11.29.58-1.33,1.06-2.41,1.43-3.23A6.66,6.66,0,0,1,655,247.39Z" style="fill:#263238"></path><path d="M663.78,217.09a4.46,4.46,0,0,1-.47-.88c-.32-.66-.71-1.49-1.19-2.48-1-2.11-2.53-5-4.49-8.34l.48-.07c-.42,1.6-.86,3.32-1.33,5.1-.29,1.12-.57,2.2-.85,3.25l-.19.73-.31-.69c-1.77-3.93-3.3-7.4-4.37-9.89-.5-1.18-.92-2.16-1.24-2.94a4.07,4.07,0,0,1-.39-1.09,6.27,6.27,0,0,1,.56,1l1.38,2.87c1.16,2.45,2.76,5.89,4.54,9.81l-.5,0c.28-1,.56-2.13.85-3.24.47-1.78.92-3.5,1.35-5.1l.16-.6.31.54a84.65,84.65,0,0,1,4.34,8.47c.47,1.07.82,1.94,1.05,2.54A4,4,0,0,1,663.78,217.09Z" style="fill:#263238"></path><path d="M652,154.9a20.59,20.59,0,0,1-1.46,2.88c-1,1.77-2.35,4.23-3.94,7l-.36.64-.13-.72c-.15-.81-.3-1.65-.45-2.5L645,158l.47.09c-1.48,2.35-2.76,4.35-3.7,5.76a17.15,17.15,0,0,1-1.55,2.2,16.82,16.82,0,0,1,1.28-2.37c.86-1.45,2.09-3.49,3.54-5.86l.35-.57.12.66c.24,1.32.49,2.74.76,4.21.15.86.3,1.69.44,2.5l-.49-.08c1.61-2.78,3.05-5.2,4.1-6.92A21.64,21.64,0,0,1,652,154.9Z" style="fill:#263238"></path><rect x="81.17" y="387.31" width="13.4" height="77.94" style="fill:#455a64"></rect><path d="M85,131c0,1.43-28.09,90-28.09,90l14-14.28L50.73,268.61l13.33-18.56L48.35,327.66l7.62-8.1L42.64,374.32,54.06,360,42.64,401l90.46-6.67-21.43-77.13,12.94,14.28-16.74-56.18,8.57,4.76L96.91,207.67l9,6.19Z" style="fill:#455a64"></path><path d="M98.48,274.16s-.11-.07-.3-.25l-.82-.79-3-3L83.87,259.48l.43-.13c-.6,3.47-1.24,7.27-1.92,11.24-.39,2.23-.76,4.4-1.13,6.49l-.16.92-.34-.86a96.74,96.74,0,0,1-5.19-17.5c-.44-2.24-.72-4-.87-5.29-.09-.62-.13-1.11-.16-1.43a2.1,2.1,0,0,1,0-.5,1.5,1.5,0,0,1,.12.48l.25,1.42c.21,1.24.54,3,1,5.25a106.07,106.07,0,0,0,5.35,17.37l-.51.05c.36-2.09.73-4.26,1.12-6.49.69-4,1.35-7.76,2-11.23l.08-.5.35.36c4.16,4.34,7.73,8.07,10.32,10.76,1.21,1.3,2.2,2.34,2.93,3.12l.76.84A1.49,1.49,0,0,1,98.48,274.16Z" style="fill:#263238"></path><path d="M65.57,344.49a35.27,35.27,0,0,1,.75-6,34.33,34.33,0,0,1,1.28-5.94,68.36,68.36,0,0,1-2,12Z" style="fill:#263238"></path><path d="M96.48,314.1a3.15,3.15,0,0,1-.24.67l-.78,1.89-3,6.95c-2.59,5.9-6.16,14-10.14,23.05l-.33.75-.18-.8c-.14-.66-.3-1.36-.46-2.07-1.34-6.11-2.6-11.87-3.7-16.87l.43.09-8.27,12.18-2.37,3.41-.64.89a2.44,2.44,0,0,1-.24.3,1.28,1.28,0,0,1,.18-.34l.58-.93,2.25-3.49,8.12-12.29L78,327l.12.55c1.11,5,2.4,10.75,3.76,16.86.16.7.31,1.41.46,2.06l-.51-.05c4-9,7.66-17.09,10.29-23,1.32-2.87,2.38-5.21,3.15-6.88.36-.77.65-1.38.88-1.85A4.09,4.09,0,0,1,96.48,314.1Z" style="fill:#263238"></path><path d="M103.6,383.75A93.32,93.32,0,0,1,97.22,376a91.19,91.19,0,0,1-6-8.07,93.32,93.32,0,0,1,6.38,7.74A91.19,91.19,0,0,1,103.6,383.75Z" style="fill:#263238"></path><path d="M95,200.43a5.77,5.77,0,0,1-.68-.91l-1.77-2.65-6.09-9.34.45-.09c-.61,3.09-1.18,6.55-1.6,10.21-.33,2.9-.54,5.71-.67,8.28l0,1-.44-.88a58.58,58.58,0,0,1-4.39-11.81c-.38-1.51-.63-2.72-.77-3.55a7.18,7.18,0,0,1-.17-1.29,7.8,7.8,0,0,1,.33,1.26c.2.82.49,2,.91,3.5a65.36,65.36,0,0,0,4.55,11.66l-.49.1c.11-2.58.31-5.4.64-8.31.43-3.68,1-7.15,1.66-10.25l.13-.6.32.52,5.92,9.45c.68,1.12,1.23,2,1.66,2.72A7.5,7.5,0,0,1,95,200.43Z" style="fill:#263238"></path></g><g id="freepik--Sun--inject-4"><circle cx="462.56" cy="90.74" r="16.96" style="fill:#00D1FF"></circle><path d="M461.59,109.58a46.82,46.82,0,0,1,.26,7,46.93,46.93,0,0,1-.26,7,48.58,48.58,0,0,1-.26-7A48.47,48.47,0,0,1,461.59,109.58Z" style="fill:#00D1FF"></path><path d="M452.11,107.27a19.79,19.79,0,0,1-2.74,3.62,19.46,19.46,0,0,1-3.14,3.29,20.75,20.75,0,0,1,2.75-3.62A19.65,19.65,0,0,1,452.11,107.27Z" style="fill:#00D1FF"></path><path d="M442.46,97.15a64.9,64.9,0,0,1-6.93,4,60.79,60.79,0,0,1-7.17,3.59,61.06,61.06,0,0,1,6.92-4.05A61.33,61.33,0,0,1,442.46,97.15Z" style="fill:#00D1FF"></path><path d="M439.07,85.06a28.19,28.19,0,0,1-5.48.65,28.75,28.75,0,0,1-5.52.12,29.68,29.68,0,0,1,5.48-.64A30.35,30.35,0,0,1,439.07,85.06Z" style="fill:#00D1FF"></path><path d="M444.68,76.84a63.56,63.56,0,0,1-5.94-5.45,61.78,61.78,0,0,1-5.58-5.82A63.56,63.56,0,0,1,439.1,71,61.78,61.78,0,0,1,444.68,76.84Z" style="fill:#00D1FF"></path><path d="M455.12,70.45a10.33,10.33,0,0,1-1.51-2.84,10.16,10.16,0,0,1-1-3,10.13,10.13,0,0,1,1.52,2.84A10.21,10.21,0,0,1,455.12,70.45Z" style="fill:#00D1FF"></path><path d="M464.46,54.8a53.31,53.31,0,0,1,.14,7.43,53.79,53.79,0,0,1-.37,7.42,54.07,54.07,0,0,1-.15-7.43A51,51,0,0,1,464.46,54.8Z" style="fill:#00D1FF"></path><path d="M481.56,64.79a19.72,19.72,0,0,1-2.34,3.86,19.8,19.8,0,0,1-2.78,3.56,19.5,19.5,0,0,1,2.35-3.86A19.09,19.09,0,0,1,481.56,64.79Z" style="fill:#00D1FF"></path><path d="M497.68,68.88a90.53,90.53,0,0,1-8.17,5.35,90,90,0,0,1-8.45,4.91,93.5,93.5,0,0,1,8.18-5.35A92.22,92.22,0,0,1,497.68,68.88Z" style="fill:#00D1FF"></path><path d="M477.69,114.46a9.55,9.55,0,0,1-2.21-3.11,9.73,9.73,0,0,1-1.32-3.57,25.74,25.74,0,0,1,1.78,3.33A27.07,27.07,0,0,1,477.69,114.46Z" style="fill:#00D1FF"></path><path d="M494.62,111.35a78.72,78.72,0,0,1-8.13-4.22,82.71,82.71,0,0,1-7.88-4.68,78.72,78.72,0,0,1,8.13,4.22A82.71,82.71,0,0,1,494.62,111.35Z" style="fill:#00D1FF"></path><path d="M492.81,98.59a28.33,28.33,0,0,1-5.08-1.82,27.82,27.82,0,0,1-4.89-2.29,27.79,27.79,0,0,1,5.08,1.81A27.41,27.41,0,0,1,492.81,98.59Z" style="fill:#00D1FF"></path><path d="M495.64,86.07a33.48,33.48,0,0,1-5.86.87,35.1,35.1,0,0,1-5.92.35,33.28,33.28,0,0,1,5.86-.87A35.1,35.1,0,0,1,495.64,86.07Z" style="fill:#00D1FF"></path></g><g id="freepik--Plant--inject-4"><path d="M102.66,420.83a10.31,10.31,0,0,1,.72,1.68c.44,1.09,1,2.69,1.72,4.68,1.39,4,3.13,9.53,4.69,15.76s2.65,11.95,3.31,16.11c.32,2.08.56,3.77.69,4.94a14.83,14.83,0,0,1,.16,1.82,11.35,11.35,0,0,1-.37-1.79c-.22-1.25-.51-2.9-.86-4.91-.75-4.13-1.89-9.82-3.45-16s-3.24-11.77-4.53-15.77c-.64-1.93-1.16-3.53-1.55-4.73A12.09,12.09,0,0,1,102.66,420.83Z" style="fill:#fafafa"></path><path d="M112.85,429.76a8,8,0,0,1,.49,1.37c.29.9.68,2.2,1.15,3.82.93,3.23,2.14,7.71,3.36,12.69s2.23,9.51,2.89,12.81c.34,1.64.6,3,.76,3.91a6.91,6.91,0,0,1,.19,1.45,9.92,9.92,0,0,1-.4-1.41c-.24-1-.55-2.31-.92-3.87-.76-3.27-1.82-7.79-3-12.76s-2.38-9.47-3.21-12.72c-.4-1.55-.72-2.85-1-3.86A7.22,7.22,0,0,1,112.85,429.76Z" style="fill:#fafafa"></path><path d="M128.93,419a12.19,12.19,0,0,1-.3,1.78c-.23,1.14-.55,2.8-.9,4.84A139.12,139.12,0,0,0,125.88,458c.12,2.08.24,3.75.34,4.91a11.65,11.65,0,0,1,.09,1.81,11.2,11.2,0,0,1-.3-1.78c-.17-1.16-.35-2.84-.51-4.91a119.4,119.4,0,0,1-.18-16.29,121.6,121.6,0,0,1,2-16.15c.41-2.05.78-3.7,1.07-4.82A10.45,10.45,0,0,1,128.93,419Z" style="fill:#fafafa"></path><path d="M134.48,445.94a21.53,21.53,0,0,1-.56,2.9,60.27,60.27,0,0,0-1.23,14.1,19.19,19.19,0,0,1,.05,2.95,12.92,12.92,0,0,1-.43-2.93,44,44,0,0,1,0-7.16,44.68,44.68,0,0,1,1.2-7.05A13.29,13.29,0,0,1,134.48,445.94Z" style="fill:#fafafa"></path><path d="M459.16,412.19s0,0,0,.13.06.23.11.39c.09.34.26.84.43,1.49.38,1.29.87,3.17,1.35,5.53a89.26,89.26,0,0,1,1.55,18.69c-.12,7.34-.86,14-1.39,18.74-.27,2.37-.5,4.3-.66,5.67-.07.65-.12,1.16-.17,1.54,0,.16,0,.29,0,.4s0,.14,0,.14l0-.14q0-.15.06-.39c.06-.38.13-.89.23-1.54.19-1.33.45-3.26.75-5.65a174.35,174.35,0,0,0,1.48-18.77,84.9,84.9,0,0,0-1.65-18.73c-.5-2.36-1-4.24-1.43-5.53-.2-.64-.38-1.13-.5-1.47-.05-.15-.1-.28-.13-.38Z" style="fill:#00D1FF"></path><path d="M462.35,427.23c.28.29,2.13-1.06,3.8-3.28s2.46-4.37,2.1-4.56-1.7,1.53-3.3,3.66S462.05,426.93,462.35,427.23Z" style="fill:#00D1FF"></path><path d="M456.71,421.09c-.26.32.8,1.59,2.28,2.92s2.84,2.26,3.14,2-.62-1.71-2.14-3.07S457,420.76,456.71,421.09Z" style="fill:#00D1FF"></path><path d="M461.59,421.25c.35.19,1.88-2,2.87-5.15s1-5.81.62-5.86-1.1,2.42-2.05,5.41S461.21,421.05,461.59,421.25Z" style="fill:#00D1FF"></path><path d="M454,412.26c-.31.28,1.08,2.31,3.1,4.54s3.9,3.8,4.21,3.53-1.08-2.31-3.1-4.54S454.28,412,454,412.26Z" style="fill:#00D1FF"></path><path d="M462.69,434.52c.28.3,2.41-1.23,4.52-3.64s3.37-4.72,3-4.95-2.09,1.62-4.15,4S462.41,434.22,462.69,434.52Z" style="fill:#00D1FF"></path><path d="M458,427.08c-.32.25.43,1.8,1.7,3.45s2.55,2.79,2.88,2.54-.43-1.79-1.69-3.45S458.33,426.83,458,427.08Z" style="fill:#00D1FF"></path><path d="M462.7,442c.28.29,2.3-1.26,4.09-3.8s2.58-4.95,2.21-5.12-1.72,1.84-3.44,4.26S462.4,441.74,462.7,442Z" style="fill:#00D1FF"></path><path d="M458.19,435.34c-.3.28.5,1.62,1.69,3.07s2.35,2.51,2.69,2.26-.3-1.71-1.53-3.21S458.49,435.05,458.19,435.34Z" style="fill:#00D1FF"></path><path d="M462.17,448.41c.31.27,2.22-1.39,4.27-3.71s3.45-4.42,3.14-4.7-2.22,1.39-4.27,3.71S461.86,448.13,462.17,448.41Z" style="fill:#00D1FF"></path><path d="M456.55,442.59c-.32.27.75,2.06,2.28,4.08s2.95,3.55,3.3,3.32-.55-2.16-2.1-4.22S456.86,442.33,456.55,442.59Z" style="fill:#00D1FF"></path><path d="M461.45,456.54c.28.3,2.6-1.45,5.17-3.9s4.42-4.7,4.13-5-2.6,1.45-5.17,3.91S461.16,456.24,461.45,456.54Z" style="fill:#00D1FF"></path><path d="M456.53,449.38c-.36.18.2,2,1.59,3.91s3,3,3.25,2.68-.75-1.79-2-3.57S456.91,449.19,456.53,449.38Z" style="fill:#00D1FF"></path><path d="M439.49,409a2,2,0,0,1,.22.54c.15.42.32,1,.54,1.59.46,1.37,1.07,3.38,1.79,5.87,1.44,5,3.21,11.93,4.73,19.7s2.49,14.88,3,20c.27,2.58.46,4.67.55,6.11,0,.68.08,1.23.1,1.67a2.14,2.14,0,0,1,0,.58,1.9,1.9,0,0,1-.11-.57c0-.44-.12-1-.2-1.66-.18-1.51-.42-3.57-.72-6.09-.63-5.14-1.67-12.22-3.18-20s-3.22-14.7-4.57-19.7c-.67-2.44-1.22-4.44-1.62-5.91-.18-.65-.32-1.19-.44-1.61A2.61,2.61,0,0,1,439.49,409Z" style="fill:#263238"></path><path d="M437.69,438.37a4.59,4.59,0,0,1,.55,1c.32.66.76,1.62,1.29,2.81,1.05,2.39,2.43,5.73,3.8,9.47s2.48,7.17,3.21,9.68c.37,1.25.65,2.27.83,3a5.2,5.2,0,0,1,.23,1.12,4.39,4.39,0,0,1-.43-1.05c-.27-.81-.6-1.78-1-2.93-.83-2.47-2-5.88-3.36-9.61s-2.68-7.08-3.64-9.5L438,439.45A4.21,4.21,0,0,1,437.69,438.37Z" style="fill:#263238"></path><path d="M444.56,465.48a69.81,69.81,0,0,0-4.18-7.08,67.7,67.7,0,0,0-5.43-6.16,8.74,8.74,0,0,1,1.94,1.47,28.22,28.22,0,0,1,6.87,9.46A8.71,8.71,0,0,1,444.56,465.48Z" style="fill:#263238"></path><path d="M504.68,465.12a2.08,2.08,0,0,1-.29-.51c-.19-.41-.43-.91-.73-1.53s-.69-1.48-1.08-2.45-.88-2.05-1.33-3.29c-.95-2.45-1.95-5.42-2.92-8.76s-1.82-7.08-2.53-11-1.1-7.76-1.36-11.23-.3-6.61-.23-9.24c0-1.31.08-2.5.13-3.54s.11-1.94.19-2.67.12-1.24.16-1.69a2.54,2.54,0,0,1,.1-.58,2.41,2.41,0,0,1,0,.59c0,.45,0,1-.06,1.69s-.09,1.63-.1,2.67-.07,2.23-.05,3.54c0,2.62.1,5.74.35,9.19s.72,7.24,1.4,11.18,1.57,7.64,2.47,11,1.9,6.31,2.8,8.77c.42,1.24.88,2.33,1.25,3.31s.71,1.8,1,2.48l.64,1.56A2.29,2.29,0,0,1,504.68,465.12Z" style="fill:#00D1FF"></path><path d="M498.53,448.39c1.29-7.82,3.88-25.58,11.68-36.14a25.62,25.62,0,0,0-9.33,10.14,69.42,69.42,0,0,0-5,13S498.47,448.76,498.53,448.39Z" style="fill:#00D1FF"></path><path d="M499.78,452.37a14.69,14.69,0,0,1,9.13-15.61c-2.82,3.47-5.78,7.28-6,11.75q-.26,5.76-.52,11.52c-.92-2.48-1.71-5.17-2.63-7.66" style="fill:#00D1FF"></path><path d="M497.91,445.67a63.75,63.75,0,0,0-6.27-7.47,19.43,19.43,0,0,0-7.46-5.29,91.61,91.61,0,0,1,16,21.25" style="fill:#00D1FF"></path><path d="M494.3,421a22.36,22.36,0,0,0-8.37-12.18,16.43,16.43,0,0,0,1.25,2.61c2.58,4.68,4.8,9.37,7.38,14.05" style="fill:#00D1FF"></path><path d="M494.63,411.42A29.49,29.49,0,0,1,499.12,401a17.69,17.69,0,0,1,9-6.78,47.92,47.92,0,0,0-13.7,21.65" style="fill:#00D1FF"></path><path d="M495.22,410.13c-.07-4.06-1.43-8.31-4.55-10.91a3.84,3.84,0,0,0-2.15-1,1.79,1.79,0,0,0-1.89,1.2,1.92,1.92,0,0,0,.61,1.7,7.63,7.63,0,0,0,1.55,1.07,12.39,12.39,0,0,1,5.71,9.34" style="fill:#00D1FF"></path><path d="M184.05,423.73a7.86,7.86,0,0,1,4.86,3.81,13.85,13.85,0,0,1,1.68,6.06c.29,4.09-1.24,8.55-3.09,12.2-3.92-2.32-5.64-7.3-6.36-9.89-1.13-4.08-.7-12.15,2.91-12.18" style="fill:#00D1FF"></path><path d="M192.64,451.68a6.73,6.73,0,0,1,1-6.69,8.91,8.91,0,0,1,6.1-3.22,3.74,3.74,0,0,1,3.08.75,2.87,2.87,0,0,1,.58,2.86,5.79,5.79,0,0,1-1.74,2.48c-2.58,2.37-5.51,4.2-9,3.82" style="fill:#00D1FF"></path><path d="M190.59,464.74a4.62,4.62,0,0,1,0-.84c0-.6,0-1.37,0-2.3a23.8,23.8,0,0,1,1-7.52,14.57,14.57,0,0,1,4.09-6.36,10.43,10.43,0,0,1,1.91-1.3c.24-.13.44-.2.57-.26s.2-.08.21-.07a14.55,14.55,0,0,0-2.55,1.79,14.89,14.89,0,0,0-3.95,6.3,25.57,25.57,0,0,0-1.05,7.43c0,1,0,1.75-.09,2.29A4.3,4.3,0,0,1,190.59,464.74Z" style="fill:#263238"></path><path d="M184.27,429.9a2.2,2.2,0,0,1,.1.36c.07.26.15.6.26,1,.21.88.5,2.17.85,3.76.7,3.19,1.6,7.61,2.49,12.5s1.58,9.36,2.05,12.58c.23,1.62.4,2.93.51,3.83l.12,1.05a1.64,1.64,0,0,1,0,.36,1.52,1.52,0,0,1-.08-.36c0-.26-.11-.61-.18-1-.15-.94-.36-2.23-.61-3.81-.52-3.22-1.25-7.67-2.13-12.56s-1.76-9.32-2.4-12.51l-.77-3.79c-.08-.42-.14-.77-.19-1A1.27,1.27,0,0,1,184.27,429.9Z" style="fill:#263238"></path><path d="M187.26,455.19a15.74,15.74,0,0,0-10.55-9.77c-1.22-.33-2.76-.41-3.53.6s-.29,2.48.38,3.56a13.44,13.44,0,0,0,13.68,5.95" style="fill:#00D1FF"></path><path d="M178,449.12a3.61,3.61,0,0,1,.77.18,5.85,5.85,0,0,1,.89.28c.34.13.74.25,1.15.45a13.92,13.92,0,0,1,1.34.67,17,17,0,0,1,1.46.9,18.08,18.08,0,0,1,3,2.62,17.56,17.56,0,0,1,2.22,3.25,15.06,15.06,0,0,1,.7,1.58,10.69,10.69,0,0,1,.47,1.42,10.1,10.1,0,0,1,.28,1.2,6.67,6.67,0,0,1,.15.92,4.25,4.25,0,0,1,0,.79c-.06,0-.15-1.12-.68-2.85a12.46,12.46,0,0,0-.5-1.39,13.86,13.86,0,0,0-.71-1.54,17.24,17.24,0,0,0-2.21-3.18,17.55,17.55,0,0,0-2.88-2.59c-.49-.34-1-.66-1.42-.92a14,14,0,0,0-1.31-.69C179,449.45,177.94,449.18,178,449.12Z" style="fill:#263238"></path></g><g id="freepik--Dog--inject-4"><path d="M344.41,384.86a26.34,26.34,0,0,0,.92-5.29,25.43,25.43,0,0,0-.71-5.33,11.23,11.23,0,0,1-.21,10.62Z" style="fill:#455a64"></path><path d="M347.52,382.77a36.15,36.15,0,0,0,.07-4.52,36.24,36.24,0,0,0-1-4.39,8.06,8.06,0,0,1,1.55,4.34A8,8,0,0,1,347.52,382.77Z" style="fill:#455a64"></path><path d="M293.74,405.16c.63.35,13,9.66,16.23,17.27,2.48,5.81,4.94,22.23,4.94,22.23l-2.57,16.14s-6.53.75-7,4.78l10.76-.21s5.07-19.23,7.54-20.89c0,0-3.44-22.67-1.12-30.86a81.62,81.62,0,0,1,4.14-12l-29-1.44Z" style="fill:#455a64"></path><path d="M229.06,406.2c.63.36,1.39,10,2.28,16.23s2,21.68,2,21.68l-1.64,14.77s-6.78,2.73-7.2,6.56l13-.17s1.92-12.4,4.39-14.06c0,0-.25-29.4,2.06-37.59a82.18,82.18,0,0,1,4.15-12l-22.3-2.47Z" style="fill:#455a64"></path><path d="M233.44,409.07c.67.29,5.06,7.52,6.63,13.64S244.44,444,244.44,444V458.9s-6.3,2.62-6.3,6.47h12.51s.79-13.29,3.06-15.21c0,0-3.5-29.2-2.1-37.59a82.11,82.11,0,0,1,2.8-12.36H232Z" style="fill:#455a64"></path><path d="M190.3,347.27a46.26,46.26,0,0,1,6.7-2.55c2.26-.5,7.08-2.27,7.87-3.25a15.47,15.47,0,0,0,1.57-2.85s4.62-2.86,7.48-3.35a49.28,49.28,0,0,1,11.41,0c1.87.39,3.54,3.25,3.54,3.25s5.41,5.31,6.79,9.34,6.69,13.68,6.69,13.68l-18.69,19s-3.94-8.08-4-10.74-3.29-9.54-3.29-9.54v-1.47l-8.71-1.2a8.7,8.7,0,0,1-3.15.9c-1.08-.1-2.95-1.67-2.95-1.67s-1.77,1.34-3.25.77-5.15-1.85-6.43-4.8S189.51,347.63,190.3,347.27Z" style="fill:#455a64"></path><path d="M191.49,351.87a1.39,1.39,0,0,0,1-1.77c-.05-.14-.13-.3-.05-.43a.5.5,0,0,1,.27-.17,1.82,1.82,0,0,0,1.15-1.66,1.57,1.57,0,0,0-1.3-1.49,2.92,2.92,0,0,0-1.58.45c-.52.26-1.09.61-1.18,1.18a1.81,1.81,0,0,0,.18.91,22.45,22.45,0,0,0,1.5,3" style="fill:#263238"></path><path d="M210.87,343.51c-.05.06-.3-.1-.69-.35a3.27,3.27,0,0,0-1.55-.63,1.89,1.89,0,0,0-1.43.64c-.32.31-.52.53-.58.49s0-.32.3-.73a2.26,2.26,0,0,1,.64-.63,1.83,1.83,0,0,1,1.1-.29,2.81,2.81,0,0,1,1.75.86C210.76,343.21,210.92,343.46,210.87,343.51Z" style="fill:#263238"></path><path d="M223.63,380.39a6.09,6.09,0,0,1,0,3.34c-.57,1.3-.57,7.8,0,10.4s3,10.41,6.58,13.17,15.93,6,18.69,6.67,38-7.32,43.73-7.65,13.82,1,18.05,6.83,8.13,15,14.79,16.75,18.21,11.7,19.51,15.28S346.93,460,346.93,460s-5,1.88-4.42,5.47h0l11.26-.07L352,437.54s-12.36-8.78-15.12-15-5.69-14.79-5.69-14.79-.33-20-4.06-22.76S315.72,375.6,297,376.9,267,374.3,266.3,374s-9.92-3.57-14.8-5-9.21-7.5-9.21-7.5Z" style="fill:#455a64"></path><path d="M324.43,384.7a15.21,15.21,0,0,0,16.55-12c2.51,1.8,2.64,4,.87,7.51a13.84,13.84,0,0,1-5.21,5.77,57.84,57.84,0,0,1-10.52,4.45" style="fill:#455a64"></path><polygon points="221.87 377.87 242.68 361.44 244.6 364.15 223.73 380.87 221.87 377.87" style="fill:#263238"></polygon><path d="M207.65,342.68a2.24,2.24,0,0,0,.22,1,.83.83,0,0,0,.65.49.62.62,0,0,0,.56-.38c.18-.4.42-1.1,0-1.36a1.13,1.13,0,0,0-1.47.3" style="fill:#263238"></path><path d="M209.74,355c0,.16-1.9.16-4.15.62s-4,1.17-4.07,1a9.14,9.14,0,0,1,4-1.54A9.26,9.26,0,0,1,209.74,355Z" style="fill:#263238"></path><path d="M254.74,403.74a6.18,6.18,0,0,1-.55,1.79c-.4,1.09-1,2.56-1.54,4.21a24.4,24.4,0,0,0-1.07,4.32,11.86,11.86,0,0,1-.26,1.85,4.78,4.78,0,0,1-.11-1.88,18.33,18.33,0,0,1,.94-4.45,44,44,0,0,1,1.7-4.19A7.18,7.18,0,0,1,254.74,403.74Z" style="fill:#263238"></path><path d="M223.2,390.75s.11.68.36,1.91a41.05,41.05,0,0,0,1.42,5.11,30.51,30.51,0,0,0,3.32,7.06,27,27,0,0,0,3.07,3.44,32.2,32.2,0,0,1,3.42,3.71,35.4,35.4,0,0,1,4.33,8.69,65.94,65.94,0,0,1,2.12,7.63c.48,2.2.8,4,1,5.23.09.57.17,1,.23,1.43a1.46,1.46,0,0,1,0,.5,2.47,2.47,0,0,1-.14-.48l-.33-1.41c-.27-1.23-.65-3-1.17-5.19a72.74,72.74,0,0,0-2.21-7.55,36.22,36.22,0,0,0-4.3-8.54c-2-2.7-4.76-4.67-6.46-7.18a29.45,29.45,0,0,1-3.28-7.23,34.61,34.61,0,0,1-1.27-5.18,12,12,0,0,1-.16-1.45A1.59,1.59,0,0,1,223.2,390.75Z" style="fill:#263238"></path><path d="M335.05,435.17s-.65-.42-1.81-1.18a43.26,43.26,0,0,0-5.14-2.85,44.07,44.07,0,0,1-7.68-4.23,16.49,16.49,0,0,1-3.53-3.84,50.54,50.54,0,0,1-2.71-4.87c-1.71-3.36-3.26-6.75-6-8.58a17.94,17.94,0,0,0-8-3,47.61,47.61,0,0,0-5.85-.4l-1.61,0a2.28,2.28,0,0,1-.56,0,2.14,2.14,0,0,1,.56-.06l1.61-.06a41.18,41.18,0,0,1,5.9.23,18,18,0,0,1,8.24,3,12.34,12.34,0,0,1,3.54,3.84c1,1.53,1.79,3.2,2.65,4.89a51.3,51.3,0,0,0,2.66,4.83,16.17,16.17,0,0,0,3.41,3.74,45.31,45.31,0,0,0,7.55,4.28,37.3,37.3,0,0,1,5.08,3c.58.39,1,.75,1.28,1A2.63,2.63,0,0,1,335.05,435.17Z" style="fill:#263238"></path><path d="M210.55,354.27s.2,0,.34.19a1.07,1.07,0,0,1,.11.91,1,1,0,0,1-.66.65c-.23.06-.37,0-.38-.06s.4-.33.55-.76S210.45,354.36,210.55,354.27Z" style="fill:#263238"></path><path d="M226.84,383.1a1.16,1.16,0,0,0,.87-.6,1,1,0,0,0-.11-1,1.2,1.2,0,0,0-1.3-.29,1.45,1.45,0,0,0-.74.58h-3.24a1.6,1.6,0,0,0-.82-.48,1.2,1.2,0,0,0-1.3.31,1,1,0,0,0-.07,1,.89.89,0,1,1,0,1.77,1.11,1.11,0,0,0,2.16.25h3.25a1.12,1.12,0,0,0,2.13-.38A1.16,1.16,0,0,0,226.84,383.1Z" style="fill:#00D1FF"></path><path d="M224.38,381.85c-.08,0-.13-.12-.19-.25a.24.24,0,0,0-.11-.1.53.53,0,0,0-.19-.06c-.29,0-.41.29-.52.34s-.19-.09-.15-.34a.65.65,0,0,1,.71-.52.77.77,0,0,1,.47.22.5.5,0,0,1,.15.41C224.53,381.76,224.45,381.84,224.38,381.85Z" style="fill:#263238"></path><path d="M230.87,348.5a3.89,3.89,0,0,0-3.53,1.68,2.94,2.94,0,0,0,.18,3.35,2.37,2.37,0,0,0-1.62,1.4,3,3,0,0,0,0,2.19,2.41,2.41,0,0,0,1.5,1.52,2.52,2.52,0,0,0,2.09-.62,6,6,0,0,0,2.1-6.95c-.34-1-.81-2.52-.84-2.59" style="fill:#fff"></path><path d="M226,339.63s.18.1.47.36a10.58,10.58,0,0,1,1.18,1.24,18.39,18.39,0,0,1,2.87,5.57c.43,1.26.85,2.63,1.28,4.14a7.32,7.32,0,0,1-.07,5,6.8,6.8,0,0,1-1.78,2.1,7,7,0,0,0-1.7,2.09c-.46.81-.82,1.71-1.34,2.58a4.79,4.79,0,0,1-2.28,2.09A3,3,0,0,1,223,365a2.68,2.68,0,0,1-1.41-.79,7,7,0,0,1-1.36-2.66,38.81,38.81,0,0,1-1.3-5.35,14.38,14.38,0,0,1-.18-5,7.08,7.08,0,0,1,.76-2.17,16.17,16.17,0,0,1,1.21-1.72,5.26,5.26,0,0,0,1.24-3.17,8,8,0,0,0-.36-2.61c-.43-1.4-.8-2.13-.75-2.15a2.52,2.52,0,0,1,.29.52,13.29,13.29,0,0,1,.66,1.57,8,8,0,0,1,.45,2.68,5.54,5.54,0,0,1-.3,1.7,6.49,6.49,0,0,1-.93,1.68,14.34,14.34,0,0,0-1.15,1.69,6.53,6.53,0,0,0-.69,2.05,14.36,14.36,0,0,0,.22,4.85,40.53,40.53,0,0,0,1.31,5.27,6.46,6.46,0,0,0,1.26,2.46,2.16,2.16,0,0,0,2.46.5,4.29,4.29,0,0,0,2-1.88c.49-.81.86-1.7,1.33-2.55a7.72,7.72,0,0,1,1.82-2.21,6.2,6.2,0,0,0,1.67-1.94,6.88,6.88,0,0,0,.09-4.69c-.4-1.49-.81-2.88-1.21-4.13a19,19,0,0,0-2.69-5.56A20.88,20.88,0,0,0,226,339.63Z" style="fill:#263238"></path><path d="M203.27,342.5a44.28,44.28,0,0,1-5.61,2.09h0a3.14,3.14,0,0,0,3.69,1.53A3.27,3.27,0,0,0,203.27,342.5Z" style="fill:#fff"></path><path d="M251.82,430.54a7.75,7.75,0,0,1-4.15-6.4,8.47,8.47,0,0,1,3.62-7.13Z" style="fill:#ebebeb"></path><path d="M283.92,377a10.54,10.54,0,0,0,5.75,5.72,9.92,9.92,0,0,0,7.84-.6,13.32,13.32,0,0,1,3.71-1.82c1.59-.29,3.29.39,4.81-.14a2.78,2.78,0,0,0,2.12-3.06A61.18,61.18,0,0,0,296,377C292.93,377.52,283.92,377,283.92,377Z" style="fill:#fff"></path></g><g id="freepik--Character--inject-4"><path d="M260.76,296l-5.93-5.21.24-10.06,7.75,3.15s1.82,8.18,1.64,8.24S260.76,296,260.76,296Z" style="fill:#723c31"></path><path d="M312,240.59a14.53,14.53,0,0,0-7.62,10c-1.15,6.58-4.8,35.26-4.8,35.26l-30.88,3.45-2,8.86s24.93,7.31,32.86,6.78,6.75.22,9.49-2.08a14.92,14.92,0,0,0,4-5.74l2.58-58.78Z" style="fill:#aa6550"></path><path d="M268.65,289.31l-5.9-8.68-9.81-1.44s-.56,1,1.26,2.39a14.85,14.85,0,0,0,5,2l1.53,3.33.8,4.28a10.07,10.07,0,0,0-1.38,4.4c.06,1.95,6.49,2.57,6.49,2.57Z" style="fill:#aa6550"></path><path d="M252.86,277.16c-.12.29,2.16,8.52,1.84,12.39s-1.39,5.09-1.39,5.09h6.9V276.46S253.94,274.62,252.86,277.16Z" style="fill:#263238"></path><rect x="256.53" y="294.64" width="1.28" height="168.15" style="fill:#263238"></rect><path d="M315,236.91s-10.31,6-11.52,10-4.16,24.79-4.16,24.79l14.55,4.82S315.35,236.34,315,236.91Z" style="fill:#00D1FF"></path><path d="M252.86,280.76s-1.36.12-1.55.82a6.24,6.24,0,0,0,0,1.95l2,1.57a1.48,1.48,0,0,0-1,.44,3.62,3.62,0,0,0,0,2.14,2.62,2.62,0,0,0,.59.63,2.05,2.05,0,0,0-.59,1.13c0,.56,0,1.07,0,1.07h1s-1,.31-1,.75a6.89,6.89,0,0,0,0,1.13c0,.19,1.55.63,1.55.63l5.48-.63s.94-.94.37-1.51c0,0,1.78-.25,1.67-.84s-.36-1.93-.36-1.93h-2a7.84,7.84,0,0,0,1.63-.87c.29-.36-.54-1.83-.54-1.83l-2,.06s.81-1.94,0-2.19S252.86,280.76,252.86,280.76Z" style="fill:#aa6550"></path><path d="M303.31,293.55a12.37,12.37,0,0,0-3.77-7.81,7.86,7.86,0,0,1,3.77,7.81Z" style="fill:#723c31"></path><path d="M258.26,284.46c.06,0,.15.37,0,1a1.51,1.51,0,0,1-.7,1,1.85,1.85,0,0,1-1.46,0,10.35,10.35,0,0,1-3-1.53,11.51,11.51,0,0,1,3.17,1,1.44,1.44,0,0,0,1.07.06,1.22,1.22,0,0,0,.57-.66C258.12,284.84,258.18,284.44,258.26,284.46Z" style="fill:#723c31"></path><path d="M259.44,288a5.92,5.92,0,0,1-3.24.88,6,6,0,0,1-3.32-.53c0-.15,1.49.11,3.29,0S259.39,287.82,259.44,288Z" style="fill:#723c31"></path><path d="M259.93,290.69a9.3,9.3,0,0,1-3.57.32,9.08,9.08,0,0,1-3.54-.58,19.89,19.89,0,0,1,3.56.06A18.64,18.64,0,0,1,259.93,290.69Z" style="fill:#723c31"></path><path d="M268,295.59a8,8,0,0,1,.77-4.73,7.3,7.3,0,0,1-.24,2.39A7.19,7.19,0,0,1,268,295.59Z" style="fill:#723c31"></path><path d="M260.76,296l-5.93-5.21.24-10.06,7.75,3.15s1.82,8.18,1.64,8.24S260.76,296,260.76,296Z" style="fill:#723c31"></path><path d="M312,240.59a14.53,14.53,0,0,0-7.62,10c-1.15,6.58-4.8,35.26-4.8,35.26l-30.88,3.45-2,8.86s24.93,7.31,32.86,6.78,6.75.22,9.49-2.08a14.92,14.92,0,0,0,4-5.74l2.58-58.78Z" style="fill:#aa6550"></path><path d="M268.65,289.31l-5.9-8.68-9.81-1.44s-.56,1,1.26,2.39a14.85,14.85,0,0,0,5,2l1.53,3.33.8,4.28a10.07,10.07,0,0,0-1.38,4.4c.06,1.95,6.49,2.57,6.49,2.57Z" style="fill:#aa6550"></path><path d="M252.86,277.16c-.12.29,2.16,8.52,1.84,12.39s-1.39,5.09-1.39,5.09h6.9V276.46S253.94,274.62,252.86,277.16Z" style="fill:#263238"></path><rect x="256.53" y="294.64" width="1.28" height="168.15" style="fill:#263238"></rect><path d="M315,236.91s-10.31,6-11.52,10-4.16,24.79-4.16,24.79l14.55,4.82S315.35,236.34,315,236.91Z" style="fill:#00D1FF"></path><path d="M252.86,280.76s-1.36.12-1.55.82a6.24,6.24,0,0,0,0,1.95l2,1.57a1.48,1.48,0,0,0-1,.44,3.62,3.62,0,0,0,0,2.14,2.62,2.62,0,0,0,.59.63,2.05,2.05,0,0,0-.59,1.13c0,.56,0,1.07,0,1.07h1s-1,.31-1,.75a6.89,6.89,0,0,0,0,1.13c0,.19,1.55.63,1.55.63l5.48-.63s.94-.94.37-1.51c0,0,1.78-.25,1.67-.84s-.36-1.93-.36-1.93h-2a7.84,7.84,0,0,0,1.63-.87c.29-.36-.54-1.83-.54-1.83l-2,.06s.81-1.94,0-2.19S252.86,280.76,252.86,280.76Z" style="fill:#aa6550"></path><path d="M303.31,293.55a12.37,12.37,0,0,0-3.77-7.81,7.86,7.86,0,0,1,3.77,7.81Z" style="fill:#723c31"></path><path d="M258.26,284.46c.06,0,.15.37,0,1a1.51,1.51,0,0,1-.7,1,1.85,1.85,0,0,1-1.46,0,10.35,10.35,0,0,1-3-1.53,11.51,11.51,0,0,1,3.17,1,1.44,1.44,0,0,0,1.07.06,1.22,1.22,0,0,0,.57-.66C258.12,284.84,258.18,284.44,258.26,284.46Z" style="fill:#723c31"></path><path d="M259.44,288a5.92,5.92,0,0,1-3.24.88,6,6,0,0,1-3.32-.53c0-.15,1.49.11,3.29,0S259.39,287.82,259.44,288Z" style="fill:#723c31"></path><path d="M259.93,290.69a9.3,9.3,0,0,1-3.57.32,9.08,9.08,0,0,1-3.54-.58,19.89,19.89,0,0,1,3.56.06A18.64,18.64,0,0,1,259.93,290.69Z" style="fill:#723c31"></path><path d="M268,295.59a8,8,0,0,1,.77-4.73,7.3,7.3,0,0,1-.24,2.39A7.19,7.19,0,0,1,268,295.59Z" style="fill:#723c31"></path><path d="M360.16,315.05s9.07,4.57,15.62,2.84,8.66-6.17,8.66-6.17h0a97.38,97.38,0,0,0-1.87-39l-3.18-12.49s-11.1-20.81-19.23-26-16.36-3.66-15.67-2.8,9.28,74.39,9.28,74.39Z" style="fill:#455a64"></path><path d="M361.8,293.47s.38,0,1.15-.05l3.37-.05,12.21-.12h.21v.21c.11,2.64.23,5.51.36,8.57.06,1.53.13,3.1.19,4.71a19.16,19.16,0,0,1-.2,5,4.8,4.8,0,0,1-2,3.08,5.81,5.81,0,0,1-3.5.68,32.18,32.18,0,0,1-3.35-.46,8.73,8.73,0,0,1-3.08-1.14,5.64,5.64,0,0,1-2-2.41,16.62,16.62,0,0,1-.9-2.78c-.45-1.82-.76-3.52-1-5.08-.53-3.13-.87-5.67-1.1-7.42-.11-.84-.2-1.51-.26-2a6.64,6.64,0,0,1-.06-.7s.07.27.16.7l.36,2c.3,1.74.69,4.27,1.26,7.38.29,1.55.62,3.25,1.08,5a14.92,14.92,0,0,0,.9,2.69,5.08,5.08,0,0,0,1.86,2.2,8,8,0,0,0,2.92,1.06,28.79,28.79,0,0,0,3.28.44,5.33,5.33,0,0,0,3.2-.61,4.25,4.25,0,0,0,1.77-2.76,18.76,18.76,0,0,0,.2-4.85q-.09-2.42-.18-4.71c-.11-3.06-.21-5.94-.3-8.57l.22.21-12.06-.11-3.42-.06-.91,0A1.37,1.37,0,0,1,361.8,293.47Z" style="fill:#263238"></path><path d="M364.37,237.93c.08.17-2.91.54-6.46,1.26a30.33,30.33,0,0,0-4.47,1.19,16,16,0,0,0-1.73.82c-.07,0,.46-.66,1.58-1.16a21,21,0,0,1,4.52-1.36,43.38,43.38,0,0,1,4.64-.69A6.71,6.71,0,0,1,364.37,237.93Z" style="fill:#263238"></path><path d="M371.06,282.23a10.76,10.76,0,0,1-.12-1.79c0-.58-.06-1.28-.13-2.1s-.14-1.74-.29-2.76c-.23-2.05-.69-4.46-1.27-7.12s-1.42-5.53-2.38-8.53a147.2,147.2,0,0,0-5.88-15c-.85-1.88-1.56-3.39-2.06-4.43a9.59,9.59,0,0,1-.72-1.65,13,13,0,0,1,.9,1.56c.55,1,1.32,2.5,2.21,4.36a122.59,122.59,0,0,1,6,15c1,3,1.76,5.92,2.36,8.59a68.32,68.32,0,0,1,1.17,7.18c.12,1,.18,2,.21,2.78s.07,1.53,0,2.11,0,1,0,1.34A1.7,1.7,0,0,1,371.06,282.23Z" style="fill:#263238"></path><rect x="366.34" y="287.8" width="9.44" height="5.67" style="fill:#ebebeb"></rect><path d="M376.09,286.62c-.13-1-4.06-2.24-4.06-2.24v-1.62h-2.3v1.62s-3.18,1.42-3.58,2,.2,2.64.2,2.64h9.74A11.93,11.93,0,0,0,376.09,286.62Z" style="fill:#263238"></path><path d="M375.83,291.77a42,42,0,0,1-9.51,0,43.61,43.61,0,0,1,9.51,0Z" style="fill:#e0e0e0"></path><path d="M376,286.58a17.68,17.68,0,0,1-5,.48,18.15,18.15,0,0,1-5-.42,37.37,37.37,0,0,1,5-.1A36,36,0,0,1,376,286.58Z" style="fill:#455a64"></path><path d="M372.06,284.34c.11.09-.33.66-1.14.69s-1.29-.5-1.19-.6.57.11,1.17.08S372,284.23,372.06,284.34Z" style="fill:#455a64"></path><path d="M379.63,260.25c0,.15-2.62.37-5.83.84s-5.79,1-5.82.86a22.08,22.08,0,0,1,5.75-1.37A22.62,22.62,0,0,1,379.63,260.25Z" style="fill:#263238"></path><path d="M384.51,280.43a35.66,35.66,0,0,1-2.17-3c-1.33-1.84-3.23-4.32-5.52-6.91s-4.54-4.77-6.21-6.3-2.73-2.45-2.68-2.51a3.85,3.85,0,0,1,.82.54c.52.38,1.24,1,2.11,1.69a64.23,64.23,0,0,1,11.78,13.28c.63.95,1.11,1.73,1.43,2.29A3.67,3.67,0,0,1,384.51,280.43Z" style="fill:#263238"></path><path d="M384.44,280.23a23.57,23.57,0,0,1-6,1.94,23.88,23.88,0,0,1-6.23.84c0-.15,2.75-.57,6.11-1.34S384.39,280.09,384.44,280.23Z" style="fill:#263238"></path><path d="M379.94,260.25a3.67,3.67,0,0,1,.07,1,22.63,22.63,0,0,1-.11,2.62,33.5,33.5,0,0,1-1.92,8.42,33.09,33.09,0,0,1-4,7.65,21.35,21.35,0,0,1-1.62,2.06c-.41.47-.65.71-.68.69s.8-1.12,2-2.95a39.5,39.5,0,0,0,3.84-7.63,39,39,0,0,0,2-8.28C379.82,261.61,379.85,260.25,379.94,260.25Z" style="fill:#263238"></path><path d="M301.2,383.44l-11.88,60.67,12.77,3s13.84-36,15.6-41.76,3.74-21.09,3.74-21.09Z" style="fill:#aa6550"></path><path d="M289,443.64,286,457.17s-14.46.59-15.25,3l25.75,7.6,6-20.75Z" style="fill:#00D1FF"></path><g style="opacity:0.6000000000000001"><path d="M294.36,458.09a1.1,1.1,0,0,1,.43,1.4,1.06,1.06,0,0,1-1.39.43,1.15,1.15,0,0,1-.44-1.48,1.1,1.1,0,0,1,1.49-.3" style="fill:#fff"></path></g><g style="opacity:0.6000000000000001"><path d="M296.53,467.8l.55-2.11L272,459.23a1.85,1.85,0,0,0-1.36,1.12Z" style="fill:#fff"></path></g><path d="M285.64,456.93c0,.12.6.34,1.12.91s.71,1.19.84,1.17.13-.81-.51-1.48S285.64,456.8,285.64,456.93Z" style="fill:#263238"></path><path d="M282.63,457.36c-.06.12.43.47.73,1.12s.27,1.25.4,1.27.39-.67,0-1.47S282.66,457.24,282.63,457.36Z" style="fill:#263238"></path><path d="M280.25,460.23c.1.06.44-.53.29-1.31s-.67-1.21-.75-1.12.19.56.3,1.2S280.12,460.19,280.25,460.23Z" style="fill:#263238"></path><path d="M286.65,453.92c0,.13.65.1,1.36.33s1.21.6,1.3.51-.33-.68-1.16-.94S286.62,453.8,286.65,453.92Z" style="fill:#263238"></path><path d="M287.29,451.2a2.6,2.6,0,0,0,1.31.33,6.34,6.34,0,0,0,1.47-.07,7.51,7.51,0,0,0,.85-.21,1.71,1.71,0,0,0,.47-.21.57.57,0,0,0,.23-.66.73.73,0,0,0-.48-.43,1.6,1.6,0,0,0-.51-.06,6.15,6.15,0,0,0-.88.07,4.77,4.77,0,0,0-1.4.49c-.75.4-1.07.82-1,.86s.44-.27,1.18-.57a5,5,0,0,1,2.13-.4c.3,0,.53.06.57.2s0,.07-.07.13a1,1,0,0,1-.34.15,5.24,5.24,0,0,1-.79.22,6.65,6.65,0,0,1-1.38.16A9.35,9.35,0,0,0,287.29,451.2Z" style="fill:#263238"></path><path d="M287.41,451.43s.41-.36.67-1.17a4.41,4.41,0,0,0,.18-1.48,3.9,3.9,0,0,0-.13-.87,1.08,1.08,0,0,0-.66-.87.63.63,0,0,0-.64.22,1.86,1.86,0,0,0-.25.45,2.88,2.88,0,0,0-.23.87,3,3,0,0,0,.22,1.49c.33.81.82,1.09.85,1.05a8,8,0,0,1-.55-1.16,3.11,3.11,0,0,1-.1-1.32,2.57,2.57,0,0,1,.22-.75c.11-.27.27-.46.36-.41s.3.3.35.54a4.7,4.7,0,0,1,.14.79,4.6,4.6,0,0,1-.08,1.37C287.61,451,287.35,451.39,287.41,451.43Z" style="fill:#263238"></path><path d="M346.16,387.74l21.81,63,11.64-1.34s0-39.86-3-47.2S365.84,381,365.84,381Z" style="fill:#aa6550"></path><path d="M365.91,446.18,369,459.67s-12.85,6.68-12.52,9.22L383,464.84l-3.41-21.32Z" style="fill:#00D1FF"></path><g style="opacity:0.6000000000000001"><path d="M376.93,457a1.09,1.09,0,0,1,1,1.08,1,1,0,0,1-1.07,1,1.16,1.16,0,0,1-1-1.15A1.1,1.1,0,0,1,377,457" style="fill:#fff"></path></g><g style="opacity:0.6000000000000001"><path d="M383,464.84l-.4-2.14-25.49,4.81a1.84,1.84,0,0,0-.75,1.6Z" style="fill:#fff"></path></g><path d="M368.54,459.62c0,.13.69.06,1.4.35s1.16.77,1.26.7-.22-.78-1.09-1.12S368.49,459.5,368.54,459.62Z" style="fill:#263238"></path><path d="M366,461.29c0,.13.59.24,1.13.7s.78,1,.91,1,.07-.78-.62-1.34S366,461.17,366,461.29Z" style="fill:#263238"></path><path d="M365.06,464.9c.12,0,.18-.67-.29-1.31s-1.12-.81-1.15-.69.41.42.78,1S364.93,464.91,365.06,464.9Z" style="fill:#263238"></path><path d="M368.18,456.47c.08.1.64-.19,1.37-.28s1.35,0,1.4-.09-.59-.48-1.46-.36S368.1,456.38,368.18,456.47Z" style="fill:#263238"></path><path d="M367.61,453.73c0,.06.53,0,1.32-.26a5.71,5.71,0,0,0,1.3-.69,5.55,5.55,0,0,0,.68-.54,1.49,1.49,0,0,0,.34-.39.58.58,0,0,0-.07-.7.75.75,0,0,0-.62-.18,1.68,1.68,0,0,0-.48.16,5.16,5.16,0,0,0-.77.44,4.81,4.81,0,0,0-1.07,1c-.5.69-.62,1.21-.57,1.22s.29-.43.82-1a5.68,5.68,0,0,1,1.05-.89,4.89,4.89,0,0,1,.72-.38c.26-.13.5-.17.59-.06s0,.06,0,.15a1,1,0,0,1-.25.28,5,5,0,0,1-.62.53,7,7,0,0,1-1.18.74A8.12,8.12,0,0,0,367.61,453.73Z" style="fill:#263238"></path><path d="M367.81,453.89a2.15,2.15,0,0,0,.11-1.35,4.53,4.53,0,0,0-.46-1.41,4.12,4.12,0,0,0-.49-.74,1.1,1.1,0,0,0-1-.5.62.62,0,0,0-.48.47,1.87,1.87,0,0,0,0,.51,2.82,2.82,0,0,0,.17.89,3.14,3.14,0,0,0,.82,1.26c.65.58,1.21.63,1.22.59s-.47-.24-1-.82a2.94,2.94,0,0,1-.65-1.16,2.76,2.76,0,0,1-.13-.77c0-.28.05-.53.16-.52s.4.14.55.34a4.12,4.12,0,0,1,.46.66,4.57,4.57,0,0,1,.51,1.26C367.78,453.37,367.74,453.88,367.81,453.89Z" style="fill:#263238"></path><path d="M309.72,321.41l34.55-1.34s.85,21,.8,26.52-10.93,21.73-10.93,21.73l-10.2,24.12-27.81-8.28,5.34-37.76s7-20.26,8.09-24.34a2,2,0,0,0,.13-.7" style="fill:#263238"></path><path d="M327.76,356.25l17.31,37,27-7.18L361,352.3s-1-17.16-1.58-21.11-.73-4.67-.73-4.67l-15.8-8.63L318,323.29S324.14,348.49,327.76,356.25Z" style="fill:#263238"></path><path d="M324,348.14a24,24,0,0,1,1.68,3.16c1,2,2.29,4.72,3.71,7.77s2.68,5.82,3.57,7.83a25.9,25.9,0,0,1,1.35,3.32,24.25,24.25,0,0,1-1.68-3.15c-1-2-2.29-4.73-3.71-7.78s-2.69-5.82-3.58-7.84A25,25,0,0,1,324,348.14Z" style="fill:#455a64"></path><path d="M363.29,359.27a35.8,35.8,0,0,1-6.42,2.66,37,37,0,0,1-6.7,1.89,63.58,63.58,0,0,1,6.53-2.38A66.57,66.57,0,0,1,363.29,359.27Z" style="fill:#455a64"></path><path d="M364.59,364.78a11.37,11.37,0,0,1-2.44,1.38,42.52,42.52,0,0,1-6.34,2.41c-.64.19-1.27.35-1.88.5l-.89.21a1.88,1.88,0,0,1-1,0,1.4,1.4,0,0,1-.73-.66,4.78,4.78,0,0,1-.33-.75,12.21,12.21,0,0,1-.42-1.37,7.55,7.55,0,0,1-.31-2.81c.09,0,.16,1.07.66,2.71.13.41.28.85.47,1.31s.41,1,.81,1.11a4.1,4.1,0,0,0,1.62-.25c.6-.16,1.22-.32,1.85-.51a62.1,62.1,0,0,0,6.34-2.24A20.56,20.56,0,0,1,364.59,364.78Z" style="fill:#455a64"></path><path d="M369.08,379.3a3.09,3.09,0,0,1-.67.62,17.62,17.62,0,0,1-2.05,1.41,9.77,9.77,0,0,1-3.5,1.29,6.51,6.51,0,0,1-4.45-1,9.37,9.37,0,0,1-3.09-3.37,15.7,15.7,0,0,1-1.36-3.45c-.28-1-.44-1.85-.54-2.42a3.59,3.59,0,0,1-.11-.91,31.81,31.81,0,0,1,1,3.23,17,17,0,0,0,1.43,3.31,9.14,9.14,0,0,0,2.95,3.17,6.1,6.1,0,0,0,4.11.94,10,10,0,0,0,3.38-1.13C368,380,369,379.22,369.08,379.3Z" style="fill:#455a64"></path><path d="M321.76,342.13a10,10,0,0,1-.71-2.27,46.51,46.51,0,0,1-1-5.65,43.6,43.6,0,0,1-.3-5.73,9.17,9.17,0,0,1,.18-2.37,12.19,12.19,0,0,1,.18,2.36c.08,1.46.2,3.47.45,5.68s.58,4.19.83,5.63A11.72,11.72,0,0,1,321.76,342.13Z" style="fill:#263238"></path><path d="M356.67,329.09a3.45,3.45,0,0,1-.25,1.94,6.24,6.24,0,0,1-7.81,3.93,3.44,3.44,0,0,1-1.71-.95c.05-.08.67.33,1.81.6a6.29,6.29,0,0,0,7.36-3.71C356.54,329.83,356.58,329.08,356.67,329.09Z" style="fill:#455a64"></path><path d="M313,326.11a7.59,7.59,0,0,1-.38,2.47,18.63,18.63,0,0,1-6.7,9.86,7.94,7.94,0,0,1-2.16,1.27,27.58,27.58,0,0,0,5.89-5.94A27.29,27.29,0,0,0,313,326.11Z" style="fill:#455a64"></path><path d="M323.68,327s.13-.07.38,0a1.47,1.47,0,0,1,.89.57,1.67,1.67,0,0,1,.29,1.58,1.82,1.82,0,0,1-1.61,1.14,1.72,1.72,0,0,1-1.57-1.18,1.58,1.58,0,0,1,.33-1.57c.65-.7,1.32-.56,1.29-.51s-.56.12-1,.74a1.25,1.25,0,0,0-.17,1.17,1.28,1.28,0,0,0,1.12.83,1.39,1.39,0,0,0,1.16-.81,1.35,1.35,0,0,0-.14-1.18C324.25,327.07,323.65,327.06,323.68,327Z" style="fill:#455a64"></path><path d="M321.14,186.09l-.75,0A14.47,14.47,0,0,0,306.48,200c-.3,7-.54,14.77-.35,18.52.4,7.76,8.21,8.67,8.21,8.67l.15,5.87.08,3.14c.13,5.6,6.85,8.6,10.94,4.79a2.83,2.83,0,0,0,.3-.3l2.48-2.58,4.74-10,.21-26.76C333.63,193.22,329.24,186.25,321.14,186.09Z" style="fill:#aa6550"></path><path d="M314.33,227.17a18.08,18.08,0,0,0,10-3.27s-2.18,5.68-10,5.28Z" style="fill:#723c31"></path><path d="M308.55,205.39a1.11,1.11,0,0,0,1.11,1.08,1.07,1.07,0,0,0,1.11-1,1.11,1.11,0,0,0-1.11-1.08A1.06,1.06,0,0,0,308.55,205.39Z" style="fill:#263238"></path><path d="M308.16,203.32c.14.13,1-.52,2.15-.56s2.09.52,2.22.37-.09-.33-.48-.59a3,3,0,0,0-1.78-.47,2.93,2.93,0,0,0-1.71.62C308.2,203,308.09,203.25,308.16,203.32Z" style="fill:#263238"></path><path d="M320.14,205a1.11,1.11,0,0,0,1.11,1.08,1.06,1.06,0,0,0,1.1-1,1.11,1.11,0,0,0-1.11-1.08A1.05,1.05,0,0,0,320.14,205Z" style="fill:#263238"></path><path d="M320,202.52c.13.16,1-.4,2.2-.32s2,.75,2.16.61,0-.33-.41-.63a3,3,0,0,0-1.72-.67,2.85,2.85,0,0,0-1.76.44C320.12,202.2,320,202.45,320,202.52Z" style="fill:#263238"></path><path d="M316,212.51a7.76,7.76,0,0,0-2-.28c-.31,0-.6-.07-.66-.27a1.58,1.58,0,0,1,.17-.91l.81-2.36a38.26,38.26,0,0,0,1.79-6.15,42,42,0,0,0-2.28,6c-.27.83-.53,1.62-.77,2.37a1.73,1.73,0,0,0-.11,1.2.77.77,0,0,0,.51.43,2.05,2.05,0,0,0,.53.05A7.62,7.62,0,0,0,316,212.51Z" style="fill:#263238"></path><path d="M319.68,197.38c.13.32,1.31.12,2.72.24s2.55.45,2.73.15c.08-.14-.13-.44-.6-.74a4.6,4.6,0,0,0-2-.62,4.48,4.48,0,0,0-2.11.33C319.87,197,319.62,197.23,319.68,197.38Z" style="fill:#263238"></path><path d="M308.33,201c.22.26,1-.05,2-.1s1.83.11,2-.18-.06-.41-.43-.65a2.95,2.95,0,0,0-3.25.22C308.34,200.55,308.23,200.83,308.33,201Z" style="fill:#263238"></path><path d="M332.83,207.09c.13-.06,5.27-1.78,5.31,3.53s-5.31,4.26-5.32,4.1S332.83,207.09,332.83,207.09Z" style="fill:#aa6550"></path><path d="M334.43,212.7s.09.06.25.13a.89.89,0,0,0,.69,0,2.29,2.29,0,0,0,1.05-2.06,3.11,3.11,0,0,0-.27-1.32,1.09,1.09,0,0,0-.7-.71.49.49,0,0,0-.55.26c-.07.15,0,.25-.06.26s-.12-.09-.07-.31a.59.59,0,0,1,.2-.33.69.69,0,0,1,.51-.14,1.32,1.32,0,0,1,1,.82,3.19,3.19,0,0,1,.33,1.48,2.39,2.39,0,0,1-1.34,2.3,1,1,0,0,1-.85-.13C334.44,212.83,334.41,212.71,334.43,212.7Z" style="fill:#723c31"></path><path d="M306.07,214.25a1.66,1.66,0,0,1,2.5.64,2.06,2.06,0,0,1,3.7.39,1.71,1.71,0,0,1,2.8-.67,1.32,1.32,0,0,1,1.39-.67,1.37,1.37,0,0,1,.59-1.36,1.35,1.35,0,0,1,1.47,0,2.13,2.13,0,0,1,3.12-.73,1.19,1.19,0,0,1,2.29-.08,1.93,1.93,0,0,1,2.17-.72,1.28,1.28,0,0,1,1.52-1.28c-.23-.64.71-1,1.17-1.51.2-.22.33-.52.55-.72s.63-.28.81,0a1.13,1.13,0,0,1,.61-1.34,1.15,1.15,0,0,1,1.4.49,3.56,3.56,0,0,1,.24.92c.21,1,.87,2.18.18,2.94-.12.13-.29.25-.33.43s.23.56.27.87-.26.65-.38,1a3.26,3.26,0,0,0,.12,1.57c.08.53-.18,1.23-.71,1.21a1.87,1.87,0,0,1-.43,2.35,1.82,1.82,0,0,1-.91,2.46.94.94,0,0,1,.15,1.23,2.8,2.8,0,0,1-1,.86.77.77,0,0,1,.26,1.07,1.79,1.79,0,0,1-1,.71.77.77,0,0,0-.44.27c-.17.29.11.65.08,1-.05.51-.75.71-.93,1.18s.12,1-.19,1.33-.54.2-.82.32c-.48.21-.66.78-1,1.22a4.45,4.45,0,0,1-2.48,1.56c-.48.16-1,.3-1.46.43-1,.25-2,.44-3,.62-.5.1-1.11.15-1.4-.26a1.74,1.74,0,0,1-2.77-.14,4.21,4.21,0,0,1-2.71-.33l-.91-.32c-.9-.33-1.91-.75-2.23-1.65a1.94,1.94,0,0,1-1.56-2.55c-.39.15-.8-.23-.89-.64a4,4,0,0,1,.07-1.24c.19-1.68-.8-3.31-.69-5,.09-1.18.71-2.38.29-3.49a2.18,2.18,0,0,1-.21-.7c0-.24.21-.51.45-.45a1.08,1.08,0,0,1,1-1.51" style="fill:#263238"></path><path d="M319.58,213.2c-.19,0-.14,1.29-1.22,2.25s-2.45.88-2.46,1.06.32.24.9.23a3.21,3.21,0,0,0,2.06-.81,2.81,2.81,0,0,0,.94-1.88C319.83,213.5,319.67,213.19,319.58,213.2Z" style="fill:#fff"></path><path d="M309.05,228.06a1.33,1.33,0,0,1-.77-.42,4.2,4.2,0,0,1-1.06-1.83,6.72,6.72,0,0,1-.31-2.09,2.21,2.21,0,0,1,.11-.86,10.57,10.57,0,0,0,.4,2.88,4.8,4.8,0,0,0,1,1.79A4.35,4.35,0,0,0,309.05,228.06Z" style="fill:#455a64"></path><path d="M310.16,227.7a1.61,1.61,0,0,1-.63-.38,4.07,4.07,0,0,1-1.08-1.39,4.15,4.15,0,0,1-.39-1.73,1.73,1.73,0,0,1,.1-.72,5.82,5.82,0,0,1,0,.72,5.17,5.17,0,0,0,.44,1.64,5,5,0,0,0,1,1.37C310,227.52,310.18,227.67,310.16,227.7Z" style="fill:#455a64"></path><path d="M315.88,228.72a2.48,2.48,0,0,1-.61-.67,6,6,0,0,1-.88-2,5.7,5.7,0,0,1-.07-2.19,2.72,2.72,0,0,1,.26-.87,6.25,6.25,0,0,1-.11.89,6.42,6.42,0,0,0,.13,2.12,6.33,6.33,0,0,0,.8,2A7.7,7.7,0,0,1,315.88,228.72Z" style="fill:#455a64"></path><path d="M317.24,228.55a3.84,3.84,0,0,1-1.26-1.86,4,4,0,0,1-.22-2.24,10.45,10.45,0,0,0,.41,2.17A10,10,0,0,0,317.24,228.55Z" style="fill:#455a64"></path><path d="M334.65,207.07l2.49-8.49s-.65-4.31-1.45-8.48-3.37-5.65-3.37-5.65a3.16,3.16,0,0,0,1.95-3.53c-.33-2.78-7.43-2.51-10.78-2.46a6.8,6.8,0,0,0-5.15,2.6,16.78,16.78,0,0,0-10.53,8.43,2.07,2.07,0,0,0-1.66.83s-1,1.29.08,2.13c0,0,10.26-.92,18.34,2.38s8.94,7.73,8.94,7.73Z" style="fill:#455a64"></path><path d="M331.45,181.27a3.8,3.8,0,0,1-1.81,1,13.11,13.11,0,0,1-5,.4,25.78,25.78,0,0,0-4.93-.06c-1.25.15-2,.48-2,.4a4,4,0,0,1,1.95-.77,19.37,19.37,0,0,1,5-.09,16,16,0,0,0,4.88-.23C330.75,181.65,331.4,181.19,331.45,181.27Z" style="fill:#263238"></path><path d="M333.65,183.49c.1.1-.46.67-1.37.62s-1.41-.65-1.3-.74.63.19,1.33.22S333.56,183.37,333.65,183.49Z" style="fill:#263238"></path><path d="M305.92,191.57a2.68,2.68,0,0,0-1.58.89,1.48,1.48,0,0,0-.13,1.72,8.11,8.11,0,0,0,.92.83c.69.72.69,2,1.54,2.51a1.37,1.37,0,0,0,2-.89,2.24,2.24,0,0,0,2.87.13,5.14,5.14,0,0,0,1.69-2.58,3.53,3.53,0,0,0,2.09-.22,1.22,1.22,0,0,0,.46-1.79,1.63,1.63,0,0,0-.88-.38,23,23,0,0,0-9.2-.15" style="fill:#263238"></path><path d="M329.91,197.69c-.89.55-1,1.22-.79,2.25a7.74,7.74,0,0,0,1.39,2.78,1.64,1.64,0,0,0-1.23.94,4.6,4.6,0,0,0-.4,1.56,5.8,5.8,0,0,0,.21,3.07,1.92,1.92,0,0,0,3.69.15,6.51,6.51,0,0,0,.4-1.69.7.7,0,0,0,.95.5,1.13,1.13,0,0,0,.64-1,3.47,3.47,0,0,0-.22-1.23,22.77,22.77,0,0,0-1.6-4.16,7.7,7.7,0,0,0-3-3.18" style="fill:#263238"></path><path d="M336.28,201.5s-.08-.48-.29-1.32a9,9,0,0,0-1.56-3.27,20.86,20.86,0,0,0-3.92-3.75,22.42,22.42,0,0,0-2.81-1.54,16.2,16.2,0,0,0-3.18-1.3,35.7,35.7,0,0,0-12-1.37c-1.55.08-2.81.24-3.67.36a7.07,7.07,0,0,1-1.36.16,6.44,6.44,0,0,1,1.32-.36,30.22,30.22,0,0,1,3.69-.53,33.33,33.33,0,0,1,12.19,1.24,16.72,16.72,0,0,1,3.27,1.34,21.36,21.36,0,0,1,2.86,1.61,19.73,19.73,0,0,1,3.94,3.92,8.63,8.63,0,0,1,1.46,3.45,7,7,0,0,1,.11,1C336.31,201.38,336.3,201.5,336.28,201.5Z" style="fill:#263238"></path><path d="M329.53,197.59a14.43,14.43,0,0,0,.51-2.45c.09-1.38-.15-2.5,0-2.54a3.67,3.67,0,0,1,.53,2.58,4.39,4.39,0,0,1-.49,1.83C329.83,197.44,329.58,197.63,329.53,197.59Z" style="fill:#263238"></path><path d="M333,200.87c-.05-.06.14-.26.32-.64a5.21,5.21,0,0,0,.43-1.59c.08-.68.23-1.28.27-1.7s.07-.71.14-.72.19.25.23.72a8.32,8.32,0,0,1-.13,1.77,3.56,3.56,0,0,1-.63,1.72C333.28,200.82,333,200.93,333,200.87Z" style="fill:#263238"></path><path d="M324.84,195a3.46,3.46,0,0,1,.1-2.32c.36-1.25,1-2.09,1.15-2a10.79,10.79,0,0,1-.65,2.16A11.14,11.14,0,0,1,324.84,195Z" style="fill:#263238"></path><path d="M317.93,192.87c-.14,0-.16-1,.31-2.11s1.2-1.79,1.3-1.7-.38.87-.82,1.9S318.08,192.89,317.93,192.87Z" style="fill:#263238"></path><path d="M311.61,192.32c-.14,0-.21-.88.1-1.91s.84-1.74,1-1.67-.18.85-.46,1.81S311.76,192.33,311.61,192.32Z" style="fill:#263238"></path><path d="M314.89,237.26s-4.82,16.39-5.12,22.92.89,32.69.89,32.69,1.94,11,1.19,13.07-4.75,12.78-4.6,18.72h13.81s12.91-1.1,25.26-1.49c7-.22,13.66,4.16,13.66,4.16a46.32,46.32,0,0,0,0-19.9,107.05,107.05,0,0,1-1.78-23.59c.26,1.41,3.75-13.93-1.09-40.8-1.27-7-4.73-14.53-11.71-15l-13,.2Z" style="fill:#00D1FF"></path><path d="M344.36,224.45s-7.08,0-10.53,5.06-5.22,10.28-3.74,19.18a21.52,21.52,0,0,0,6.29,12.1l-2.63-16.27s.19-14.93,10.09-15.71l9.17,2.65C352.57,229.2,350,225.51,344.36,224.45Z" style="fill:#455a64"></path><path d="M311.42,297.6s-2,1.11-1.69,4.41a10.57,10.57,0,0,0,1.59,5s1.46-2.31,5.72-3.45a40.86,40.86,0,0,1,11.65-1.06c2.5.13,11.57,2.49,11.57,2.49l2.3-15.58s-15.62,3.82-20.75,5.39S311.42,297.6,311.42,297.6Z" style="fill:#263238"></path><path d="M312.6,238.41c-3.93-1.75-6.22.92-6.51,1.56a5.8,5.8,0,0,0-.44,2.06c-.5,6.44,2,22.2,3.91,28.37l.75-30.85Z" style="fill:#455a64"></path><path d="M309.91,256.22c6.5-4.36,20.24-4.75,21-4l-.9-4a107,107,0,0,0-11.13.76c-6.73.69-8.18,2-8.6,2.62a2.45,2.45,0,0,0-.28.64Z" style="fill:#263238"></path><path d="M309.72,263.93a6.7,6.7,0,0,1,.09,1.33q0,1.44.09,3.63c.07,3.06.19,7.29.42,12s.51,8.9.71,12c.09,1.45.16,2.66.22,3.62a6.31,6.31,0,0,1,0,1.34,7.16,7.16,0,0,1-.21-1.32c-.11-.85-.24-2.09-.39-3.62-.29-3.05-.63-7.28-.86-11.95s-.3-8.92-.27-12c0-1.53,0-2.78.08-3.63A5.57,5.57,0,0,1,309.72,263.93Z" style="fill:#263238"></path><path d="M317,316.05a6.06,6.06,0,0,1-.2-1.92,23.87,23.87,0,0,1,1.75-9.09,5.89,5.89,0,0,1,.89-1.71c.15.06-1,2.74-1.7,6.27S317.18,316,317,316.05Z" style="fill:#263238"></path><path d="M321.87,320.85a12,12,0,0,1-.7-2.61,53,53,0,0,1-.9-6.45,51,51,0,0,1-.11-6.52,12.12,12.12,0,0,1,.29-2.69,16.22,16.22,0,0,1,.08,2.7c0,1.66.06,4,.26,6.47s.49,4.79.74,6.43A15.67,15.67,0,0,1,321.87,320.85Z" style="fill:#263238"></path><path d="M325.14,276.27a15.34,15.34,0,0,1,.74,2.42c.42,1.5,1,3.55,1.84,5.79s1.64,4.21,2.27,5.63a14,14,0,0,1,1,2.34,10.35,10.35,0,0,1-1.29-2.18,47.86,47.86,0,0,1-2.43-5.62,49.41,49.41,0,0,1-1.71-5.87A10.17,10.17,0,0,1,325.14,276.27Z" style="fill:#263238"></path><path d="M334.63,275.65a10.11,10.11,0,0,1,.38,2.27c.15,1.41.29,3.37.32,5.54s-.06,4.14-.18,5.55a9,9,0,0,1-.33,2.28,11.16,11.16,0,0,1,0-2.3c0-1.41.06-3.37,0-5.52s-.11-4.11-.17-5.52A10.39,10.39,0,0,1,334.63,275.65Z" style="fill:#263238"></path><path d="M315,263.06a11.69,11.69,0,0,1-.72-4.4,11.91,11.91,0,0,1,.48-4.44c.16,0,0,2,0,4.42S315.17,263,315,263.06Z" style="fill:#263238"></path><g style="opacity:0.30000000000000004"><path d="M326.29,277.85c-.13,5.25,3.38,12,4.63,14.54l2.52-.71A27.22,27.22,0,0,0,326.29,277.85Z"></path></g><g style="opacity:0.30000000000000004"><path d="M320.46,302.88l-.83.11a21.24,21.24,0,0,0-2.27,12c.08.5.26,1.08.74,1.23s1.08-.4,1.29-1a9,9,0,0,0,.3-3.63A26.39,26.39,0,0,1,320.46,302.88Z"></path></g><g style="opacity:0.30000000000000004"><path d="M330.12,251.73a15.39,15.39,0,0,0,4.55,9.07c1.07,1,1.11,2.71,1.15,4.2a53.07,53.07,0,0,0,.73,7.75,3.4,3.4,0,0,0,.94,2.16c1.1.91,2.75.21,4-.52a53.83,53.83,0,0,0-1.29-9,18.12,18.12,0,0,0-4.16-8l-5.46-5.74"></path></g><path d="M338.1,251.86c.07.54,4.8,35.23,4.8,35.23l-6.52,47.55,10.11,1.55s16-38.17,15.66-45-3.91-39.32-3.91-39.32-3.59-22.51-10.44-22.35S336.26,237.38,338.1,251.86Z" style="fill:#aa6550"></path><path d="M343.52,228.55s-6.15,3-8.11,9.28,3.36,35.29,3.36,35.29l24.59-5.21S357.87,223.48,343.52,228.55Z" style="fill:#00D1FF"></path><path d="M336.5,333.83l-5.62,10.09-.94,10.14s2.69.87,2.74-1.29c0,0,1.11,1.46,2,1.11a3.22,3.22,0,0,0,1.4-1.28s.53,1.63,1.87,1.16,1.45-1,1.51-1.28.88.29,1.81-.11a1.43,1.43,0,0,0,.87-1.34s1.52.29,2-.12a4.21,4.21,0,0,0,.82-1.46s.87-2.56.58-3-1.1-.41-1.1-.41l.11-1.34a23.49,23.49,0,0,0,2-4.38c.18-1.15,0-6.22,0-6.22Z" style="fill:#aa6550"></path><path d="M330.38,348.2a7.26,7.26,0,0,1,1.43,2.31,7.14,7.14,0,0,1,1,2.54,7.26,7.26,0,0,1-1.43-2.31A7.14,7.14,0,0,1,330.38,348.2Z" style="fill:#723c31"></path><path d="M333.7,347.56a20.68,20.68,0,0,1,1.32,2.72,21.21,21.21,0,0,1,1.36,2.7,5.94,5.94,0,0,1-1.83-2.47A6,6,0,0,1,333.7,347.56Z" style="fill:#723c31"></path><path d="M336.83,348a11.57,11.57,0,0,1,1.39,2.36,11,11,0,0,1,1.26,2.45,5.67,5.67,0,0,1-1.71-2.2A5.47,5.47,0,0,1,336.83,348Z" style="fill:#723c31"></path><path d="M339.48,346.42a44.26,44.26,0,0,1,2.65,4.8,8.79,8.79,0,0,1-2.65-4.8Z" style="fill:#723c31"></path><path d="M343.16,348.94c-.14,0-.07-.82.3-1.72s.89-1.49,1-1.42-.17.78-.53,1.63S343.3,349,343.16,348.94Z" style="fill:#723c31"></path><path d="M334,247.38a1.58,1.58,0,0,1,.13.51l.27,1.47c.26,1.35.6,3.18,1,5.4.9,4.63,2.12,10.88,3.47,17.8,0,.17.07.35.1.5l-.3-.2c6.85-1.28,13-2.51,17.46-3.43l5.25-1.13,1.43-.31a2.3,2.3,0,0,1,.5-.08,1.63,1.63,0,0,1-.48.18c-.32.1-.79.24-1.4.4-1.23.34-3,.78-5.22,1.29-4.43,1-10.59,2.3-17.45,3.59l-.25.05-.05-.25-.1-.51c-1.38-7-2.55-13.25-3.32-17.84-.39-2.29-.68-4.14-.85-5.43-.09-.65-.14-1.15-.17-1.49A2.27,2.27,0,0,1,334,247.38Z" style="fill:#263238"></path></g><g id="freepik--Birds--inject-4"><path d="M406,85.23s-.38.44-1.06,1.22a26.31,26.31,0,0,0-2.58,3.5,25.57,25.57,0,0,0-3.83,13.62v.17l-.47,0a22.83,22.83,0,0,0-6.27-12.5,32.19,32.19,0,0,0-4.57-3.71l.37.17c.24.14.6.31,1,.6a19.73,19.73,0,0,1,3.41,2.71,22.48,22.48,0,0,1,6.5,12.66l-.47,0v-.18a25,25,0,0,1,4-13.8,22.53,22.53,0,0,1,2.73-3.45c.35-.38.66-.64.86-.83S406,85.22,406,85.23Z" style="fill:#263238"></path><path d="M466.3,142.22s-.82-.29-2.34-.63a19,19,0,0,0-6.55-.25,17.65,17.65,0,0,0-8.82,3.81,18.29,18.29,0,0,0-6.23,9.88l0,.11-.19.71-.27-.67a19.68,19.68,0,0,0-7.45-9,19,19,0,0,0-9.11-3,20.2,20.2,0,0,0-6.5.6c-1.5.39-2.3.74-2.32.7a2.84,2.84,0,0,1,.57-.27,13.65,13.65,0,0,1,1.7-.61,19.46,19.46,0,0,1,15.89,2.25,19.87,19.87,0,0,1,7.66,9.19l-.45,0,0-.11a18.62,18.62,0,0,1,6.41-10.12,17.78,17.78,0,0,1,9.06-3.8,18,18,0,0,1,6.63.4,14.53,14.53,0,0,1,1.73.55A2.3,2.3,0,0,1,466.3,142.22Z" style="fill:#263238"></path><path d="M512.4,120.7a17.82,17.82,0,0,1-1.26,1.42,32.11,32.11,0,0,0-3.07,4.15,30.24,30.24,0,0,0-4.56,16.14v.21l-.47,0a26.8,26.8,0,0,0-3-8.75,27.66,27.66,0,0,0-8.39-9.37c-1-.69-1.57-1-1.55-1.07s.16.06.44.21.7.36,1.21.71a24.33,24.33,0,0,1,4,3.22,26.44,26.44,0,0,1,4.64,6.09,26.75,26.75,0,0,1,3,8.89l-.48,0v-.21a29.63,29.63,0,0,1,4.75-16.33A26.67,26.67,0,0,1,511,122c.41-.46.78-.76,1-1A1.85,1.85,0,0,1,512.4,120.7Z" style="fill:#263238"></path></g></svg>